<svg width="238" height="238" viewBox="0 0 238 238" fill="none" xmlns="http://www.w3.org/2000/svg">
<path d="M-0.00390625 34H33.9961V68H-0.00390625V34Z" fill="white"/>
<path d="M102.004 34H136.004V68H102.004V34Z" fill="white"/>
<path d="M204 34H238V68H204V34Z" fill="white"/>
<path d="M68 204H102V238H68V204Z" fill="white"/>
<path d="M68 68H102V102H68V68Z" fill="white"/>
<path d="M170 68H204V102H170V68Z" fill="white"/>
<path d="M135.996 136H169.996V170H135.996V136Z" fill="white"/>
<path d="M68 0H102V34H68V0Z" fill="white"/>
<path d="M102.004 102H136.004V136H102.004V102Z" fill="white"/>
<path d="M204 102H238V136H204V102Z" fill="white"/>
<path d="M204 170H238V204H204V170Z" fill="white"/>
<path d="M170 136H204V170H170V136Z" fill="white"/>
<path d="M204 204H238V238H204V204Z" fill="white"/>
<path d="M170 170H204V204H170V170Z" fill="white"/>
<path d="M135.996 204H169.996V238H135.996V204Z" fill="white"/>
<path d="M170 102H204V136H170V102Z" fill="white"/>
<path d="M102.004 170H136.004V204H102.004V170Z" fill="white"/>
</svg>
