<svg width="272" height="581" viewBox="0 0 272 581" fill="none" xmlns="http://www.w3.org/2000/svg">
<path d="M233.3 299.2L231.377 299.749L231.395 299.812L231.417 299.873L233.3 299.2ZM223.5 281.7L224.98 280.355V280.355L223.5 281.7ZM204.6 267L205.614 265.276L204.6 267ZM175.2 252.3L174.381 254.125L174.388 254.128L174.395 254.131L175.2 252.3ZM119.9 227.1L119.031 228.901L119.042 228.907L119.054 228.912L119.9 227.1ZM87.7 211L86.7195 212.743L86.7417 212.756L86.7642 212.768L87.7 211ZM70.9 201.2L69.7375 202.827L69.7877 202.863L69.84 202.896L70.9 201.2ZM61.8 194.2L63.0804 192.664L61.7902 191.588L60.5081 192.673L61.8 194.2ZM43.6 215.9L41.9231 214.81L41.9035 214.84L41.885 214.871L43.6 215.9ZM52.7 290.1L51.3149 291.543L51.3303 291.557L51.3459 291.572L52.7 290.1ZM110.1 323.7L109.297 325.532L109.3 325.533L110.1 323.7ZM183.6 356.6L182.748 358.41L183.6 356.6ZM217.9 374.8L216.791 376.464L218.402 377.538L219.527 375.962L217.9 374.8ZM230.5 353.1L228.732 352.164L228.71 352.206L228.69 352.248L230.5 353.1ZM220.7 86.4L218.76 86.8851L219.138 88.4H220.7V86.4ZM210.9 64.7L209.185 65.729L209.21 65.7698L209.236 65.8094L210.9 64.7ZM194.8 46.5L193.443 47.9696L193.502 48.0235L193.564 48.0726L194.8 46.5ZM173.1 33.2L172.339 35.0493L172.357 35.0568L172.375 35.064L173.1 33.2ZM117.8 33.2L117.139 31.3123H117.139L117.8 33.2ZM92.6 47.2L91.3388 45.6478L91.3142 45.6678L91.2901 45.6886L92.6 47.2ZM75.1 69.6L76.8483 70.5712L76.8593 70.5515L76.8698 70.5314L75.1 69.6ZM82.8 139.6L81.323 140.949L81.3537 140.982L81.3858 141.014L82.8 139.6ZM168.9 187.2L168.192 189.071L168.215 189.079L168.237 189.087L168.9 187.2ZM217.2 209.6L216.179 211.32L216.199 211.332L216.219 211.343L217.2 209.6ZM254.3 241.8L252.7 243L252.724 243.032L252.75 243.063L254.3 241.8ZM265.5 320.2L267.407 320.802L267.412 320.788L267.416 320.775L265.5 320.2ZM255 345.4L253.232 344.464L253.21 344.506L253.19 344.548L255 345.4ZM242.4 367.1L243.985 368.319L244.007 368.291L244.027 368.262L242.4 367.1ZM229.1 382.5L227.686 381.086L226.128 382.643L227.829 384.044L229.1 382.5ZM248 407.7L246.179 408.528L246.187 408.544L246.194 408.56L248 407.7ZM245.2 493.8L243.359 493.019L243.345 493.052L243.332 493.086L245.2 493.8ZM217.2 536.5L218.614 537.914L217.2 536.5ZM171 566.6L170.241 564.75L170.221 564.758L170.201 564.767L171 566.6ZM80.7 575.7L81.0922 573.739L81.0447 573.729L80.9967 573.722L80.7 575.7ZM53.4 569.4L54.0023 567.493L53.9689 567.482L53.9353 567.473L53.4 569.4ZM28.9 560.3L28.0056 562.089L28.0269 562.1L28.0484 562.11L28.9 560.3ZM9.3 548.4L7.38127 547.836L6.98964 549.167L8.1 550L9.3 548.4ZM14.9 518.3L12.9142 518.062L12.9132 518.071L14.9 518.3ZM17 491V489H15V491H17ZM25.4 491L27.2276 490.188L26.6998 489H25.4V491ZM35.2 507.8L33.5359 508.909L33.5438 508.921L33.5519 508.933L35.2 507.8ZM55.5 528.8L54.2721 530.379L55.5 528.8ZM85.6 545.6L84.8572 547.457L84.8696 547.462L84.882 547.467L85.6 545.6ZM162.6 544.9L161.831 543.054L161.783 543.074L161.737 543.096L162.6 544.9ZM191.3 526L189.971 524.505L189.927 524.544L189.886 524.586L191.3 526ZM210.9 500.8L209.148 499.836L209.129 499.871L209.111 499.906L210.9 500.8ZM202.5 432.2L201.118 433.645L201.134 433.661L201.151 433.677L202.5 432.2ZM110.1 384.6L109.439 386.488L109.447 386.49L109.454 386.493L110.1 384.6ZM58.3 360.8L57.286 362.524L58.3 360.8ZM18.4 325.8L16.7938 326.992L16.8032 327.004L16.8128 327.017L18.4 325.8ZM7.2 239L5.31228 238.339V238.339L7.2 239ZM19.1 213.8L17.4519 212.667L17.4272 212.703L17.404 212.74L19.1 213.8ZM35.2 194.9L36.5515 196.374V196.374L35.2 194.9ZM50.6 183L51.629 184.715L53.4276 183.636L52.2641 181.891L50.6 183ZM42.9 171.1L41.1517 172.071L41.1767 172.116L41.204 172.16L42.9 171.1ZM36.6 157.8L34.6843 158.375L34.71 158.46L34.743 158.543L36.6 157.8ZM33.1 141.7L31.1201 141.983L31.1216 141.993L31.1233 142.004L33.1 141.7ZM39.4 75.2L41.27 75.9093L41.2739 75.8989L41.2778 75.8885L39.4 75.2ZM62.5 38.1L61.0858 36.6858L61.0701 36.7015L61.0547 36.7175L62.5 38.1ZM101.7 12.2L100.939 10.3506L100.929 10.3547L100.919 10.3588L101.7 12.2ZM249.4 45.1L250.738 46.5866L252.199 45.2713L250.909 43.7876L249.4 45.1ZM236.1 64L234.311 63.1056L234.301 63.1269L234.29 63.1484L236.1 64ZM229.1 86.4V88.4H230.851L231.082 86.6643L229.1 86.4ZM238.8 322.3C238.8 313.265 237.612 305.327 235.184 298.527L231.417 299.873C233.655 306.14 234.8 313.602 234.8 322.3H238.8ZM235.223 298.651C233.27 291.815 229.849 285.711 224.98 280.355L222.02 283.045C226.484 287.956 229.597 293.518 231.377 299.749L235.223 298.651ZM224.98 280.355C220.142 275.033 213.668 270.014 205.614 265.276L203.586 268.724C211.399 273.32 217.525 278.1 222.02 283.045L224.98 280.355ZM205.614 265.276C197.593 260.558 187.719 255.623 176.005 250.469L174.395 254.131C186.015 259.243 195.74 264.109 203.586 268.724L205.614 265.276ZM176.019 250.475C153.157 240.211 134.733 231.815 120.746 225.288L119.054 228.912C133.067 235.452 151.51 243.856 174.381 254.125L176.019 250.475ZM120.77 225.299C107.246 218.77 96.5376 213.416 88.6358 209.232L86.7642 212.768C94.7291 216.984 105.488 222.363 119.031 228.901L120.77 225.299ZM88.6805 209.257C81.2207 205.061 75.6531 201.812 71.96 199.504L69.84 202.896C73.6135 205.254 79.246 208.539 86.7195 212.743L88.6805 209.257ZM72.0625 199.573C68.8322 197.265 65.8386 194.962 63.0804 192.664L60.5196 195.736C63.3614 198.105 66.4344 200.468 69.7375 202.827L72.0625 199.573ZM60.5081 192.673C54.2462 197.972 48.0571 205.373 41.9231 214.81L45.2769 216.99C51.2763 207.76 57.2205 200.695 63.0919 195.727L60.5081 192.673ZM41.885 214.871C36.0929 224.524 33.2 235.149 33.2 246.7H37.2C37.2 235.851 39.9071 225.942 45.315 216.929L41.885 214.871ZM33.2 246.7C33.2 264.92 39.2153 279.927 51.3149 291.543L54.0851 288.657C42.8513 277.873 37.2 263.947 37.2 246.7H33.2ZM51.3459 291.572C63.2581 302.531 82.6334 313.837 109.297 325.532L110.903 321.868C84.3666 310.229 65.4752 299.136 54.0541 288.628L51.3459 291.572ZM109.3 325.533C142.43 339.998 166.908 350.956 182.748 358.41L184.452 354.79C168.558 347.311 144.037 336.335 110.9 321.867L109.3 325.533ZM182.748 358.41C198.6 365.869 209.921 371.884 216.791 376.464L219.009 373.136C211.879 368.383 200.333 362.264 184.452 354.79L182.748 358.41ZM219.527 375.962C224.27 369.323 228.53 361.984 232.31 353.952L228.69 352.248C225.004 360.083 220.863 367.211 216.273 373.638L219.527 375.962ZM232.268 354.036C236.669 345.721 238.8 335.102 238.8 322.3H234.8C234.8 334.698 232.731 344.612 228.732 352.164L232.268 354.036ZM222.64 85.9149C220.713 78.2061 217.346 70.7636 212.564 63.5906L209.236 65.8094C213.787 72.6364 216.954 79.6606 218.76 86.8851L222.64 85.9149ZM212.615 63.671C208.287 56.4583 202.757 50.2085 196.036 44.9273L193.564 48.0726C199.91 53.0582 205.113 58.9416 209.185 65.729L212.615 63.671ZM196.157 45.0303C189.89 39.2456 182.437 34.6851 173.825 31.336L172.375 35.064C180.563 38.2482 187.577 42.5544 193.443 47.9696L196.157 45.0303ZM173.861 31.3506C165.655 27.9713 156.524 26.3 146.5 26.3V30.3C156.076 30.3 164.679 31.8953 172.339 35.0493L173.861 31.3506ZM146.5 26.3C136.473 26.3 126.683 27.972 117.139 31.3123L118.461 35.0877C127.584 31.8947 136.927 30.3 146.5 30.3V26.3ZM117.139 31.3123C107.594 34.6531 98.9898 39.4314 91.3388 45.6478L93.8612 48.7522C101.144 42.8353 109.339 38.2802 118.461 35.0877L117.139 31.3123ZM91.2901 45.6886C84.0872 51.9311 78.1032 59.5997 73.3302 68.6685L76.8698 70.5314C81.4301 61.8669 87.1128 54.6022 93.9099 48.7114L91.2901 45.6886ZM73.3517 68.6287C68.5013 77.3593 66.1 87.2673 66.1 98.3H70.1C70.1 87.866 72.3653 78.6406 76.8483 70.5712L73.3517 68.6287ZM66.1 98.3C66.1 115.516 71.1345 129.79 81.323 140.949L84.277 138.251C74.8656 127.944 70.1 114.684 70.1 98.3H66.1ZM81.3858 141.014C91.8253 151.454 104.608 160.44 119.706 167.989L121.494 164.411C106.725 157.026 94.308 148.28 84.2142 138.186L81.3858 141.014ZM119.706 167.989C134.706 175.489 150.869 182.516 168.192 189.071L169.608 185.329C152.398 178.818 136.361 171.844 121.494 164.411L119.706 167.989ZM168.237 189.087C185.386 195.112 201.365 202.524 216.179 211.32L218.221 207.88C203.168 198.943 186.948 191.421 169.563 185.313L168.237 189.087ZM216.219 211.343C230.923 219.614 243.075 230.166 252.7 243L255.9 240.6C245.925 227.3 233.344 216.386 218.181 207.857L216.219 211.343ZM252.75 243.063C262.656 255.221 267.7 271.303 267.7 291.5H271.7C271.7 270.63 266.478 253.579 255.85 240.537L252.75 243.063ZM267.7 291.5C267.7 301.106 266.328 310.479 263.584 319.625L267.416 320.775C270.272 311.254 271.7 301.494 271.7 291.5H267.7ZM263.593 319.598C260.828 328.353 257.374 336.641 253.232 344.464L256.768 346.336C261.026 338.292 264.572 329.78 267.407 320.802L263.593 319.598ZM253.19 344.548C249.504 352.383 245.363 359.511 240.773 365.938L244.027 368.262C248.77 361.623 253.03 354.284 256.81 346.252L253.19 344.548ZM240.815 365.881C236.187 371.897 231.81 376.961 227.686 381.086L230.514 383.914C234.79 379.639 239.28 374.436 243.985 368.319L240.815 365.881ZM227.829 384.044C235.504 390.365 241.626 398.511 246.179 408.528L249.821 406.872C245.04 396.356 238.562 387.702 230.371 380.956L227.829 384.044ZM246.194 408.56C250.694 418.01 253 430.059 253 444.8H257C257 429.675 254.639 416.99 249.806 406.84L246.194 408.56ZM253 444.8C253 461.807 249.784 477.874 243.359 493.019L247.041 494.581C253.683 478.926 257 462.326 257 444.8H253ZM243.332 493.086C237.371 508.677 228.197 522.675 215.786 535.086L218.614 537.914C231.403 525.125 240.896 510.656 247.068 494.514L243.332 493.086ZM215.786 535.086C203.392 547.48 188.221 557.373 170.241 564.75L171.759 568.45C190.179 560.894 205.808 550.72 218.614 537.914L215.786 535.086ZM170.201 564.767C152.298 572.57 131.579 576.5 108 576.5V580.5C132.021 580.5 153.302 576.496 171.799 568.433L170.201 564.767ZM108 576.5C99.2743 576.5 90.3058 575.582 81.0922 573.739L80.3078 577.661C89.7609 579.552 98.9924 580.5 108 580.5V576.5ZM80.9967 573.722C71.7654 572.337 62.7676 570.261 54.0023 567.493L52.7977 571.307C61.7657 574.139 70.968 576.263 80.4033 577.678L80.9967 573.722ZM53.9353 567.473C45.6445 565.17 37.5836 562.176 29.7516 558.49L28.0484 562.11C36.0831 565.891 44.3555 568.963 52.8647 571.327L53.9353 567.473ZM29.7944 558.511C22.4153 554.822 15.9878 550.916 10.5 546.8L8.1 550C13.8122 554.284 20.4514 558.312 28.0056 562.089L29.7944 558.511ZM11.2187 548.964C13.5956 540.883 15.4793 530.728 16.8868 518.529L12.9132 518.071C11.5207 530.139 9.67111 540.05 7.38127 547.836L11.2187 548.964ZM16.8858 518.538C18.289 506.844 19 497.652 19 491H15C15 497.415 14.311 506.422 12.9142 518.062L16.8858 518.538ZM17 493H25.4V489H17V493ZM23.5724 491.812C25.5082 496.168 28.8489 501.879 33.5359 508.909L36.8641 506.691C32.2178 499.721 29.0251 494.232 27.2276 490.188L23.5724 491.812ZM33.5519 508.933C38.8198 516.595 45.7375 523.741 54.2721 530.379L56.7279 527.221C48.4625 520.793 41.8468 513.938 36.8481 506.667L33.5519 508.933ZM54.2721 530.379C62.8438 537.046 73.0471 542.733 84.8572 547.457L86.3428 543.743C74.8196 539.134 64.9562 533.621 56.7279 527.221L54.2721 530.379ZM84.882 547.467C97.2888 552.239 111.54 554.6 127.6 554.6V550.6C111.926 550.6 98.1778 548.295 86.318 543.733L84.882 547.467ZM127.6 554.6C140.481 554.6 152.444 551.974 163.463 546.704L161.737 543.096C151.289 548.093 139.919 550.6 127.6 550.6V554.6ZM163.369 546.746C174.791 541.987 184.582 535.547 192.714 527.414L189.886 524.586C182.152 532.32 172.809 538.479 161.831 543.054L163.369 546.746ZM192.629 527.495C201.204 519.872 207.9 511.272 212.689 501.694L209.111 499.906C204.567 508.994 198.196 517.194 189.971 524.505L192.629 527.495ZM212.652 501.764C217.934 492.162 220.6 482.266 220.6 472.1H216.6C216.6 481.534 214.133 490.772 209.148 499.836L212.652 501.764ZM220.6 472.1C220.6 454.834 215.063 440.962 203.849 430.723L201.151 433.677C211.404 443.038 216.6 455.766 216.6 472.1H220.6ZM203.882 430.755C192.968 420.315 179.479 411.333 163.452 403.79L161.748 407.41C177.454 414.8 190.566 423.552 201.118 433.645L203.882 430.755ZM163.452 403.79C147.509 396.288 129.939 389.261 110.746 382.707L109.454 386.493C128.527 393.006 145.958 399.979 161.748 407.41L163.452 403.79ZM110.761 382.712C92.2078 376.219 75.0606 368.339 59.314 359.076L57.286 362.524C73.2728 371.928 90.6588 379.915 109.439 386.488L110.761 382.712ZM59.314 359.076C43.6595 349.868 30.5571 338.37 19.9872 324.583L16.8128 327.017C27.7095 341.23 41.2072 353.066 57.286 362.524L59.314 359.076ZM20.0062 324.608C9.59031 310.569 4.3 292.354 4.3 269.8H0.300003C0.300003 292.979 5.74303 312.097 16.7938 326.992L20.0062 324.608ZM4.3 269.8C4.3 258.796 5.90453 248.756 9.08772 239.661L5.31228 238.339C1.96215 247.911 0.300003 258.404 0.300003 269.8H4.3ZM9.08772 239.661C12.3114 230.45 16.2167 222.187 20.796 214.86L17.404 212.74C12.6499 220.347 8.62199 228.883 5.31228 238.339L9.08772 239.661ZM20.7481 214.933C25.8116 207.568 31.0818 201.388 36.5515 196.374L33.8486 193.426C28.1182 198.679 22.655 205.099 17.4519 212.667L20.7481 214.933ZM36.5515 196.374C42.0881 191.299 47.1129 187.425 51.629 184.715L49.571 181.285C44.7538 184.175 39.5119 188.234 33.8486 193.426L36.5515 196.374ZM52.2641 181.891C49.4734 177.705 46.9176 173.755 44.596 170.04L41.204 172.16C43.5491 175.912 46.1266 179.895 48.9359 184.109L52.2641 181.891ZM44.6483 170.129C42.3578 166.006 40.2937 161.649 38.457 157.057L34.743 158.543C36.6396 163.284 38.7755 167.794 41.1517 172.071L44.6483 170.129ZM38.5157 157.225C37.148 152.667 35.9994 147.393 35.0768 141.396L31.1233 142.004C32.0672 148.14 33.252 153.6 34.6843 158.375L38.5157 157.225ZM35.0799 141.417C34.1647 135.011 33.7 126.946 33.7 117.2H29.7C29.7 127.054 30.1687 135.323 31.1201 141.983L35.0799 141.417ZM33.7 117.2C33.7 102.976 36.2226 89.2161 41.27 75.9093L37.53 74.4907C32.3108 88.2505 29.7 102.491 29.7 117.2H33.7ZM41.2778 75.8885C46.3166 62.1461 53.8698 50.0159 63.9453 39.4824L61.0547 36.7175C50.5969 47.6507 42.75 60.2539 37.5222 74.5115L41.2778 75.8885ZM63.9142 39.5142C74.4482 28.9802 87.2934 20.4844 102.481 14.0412L100.919 10.3588C85.3066 16.9822 72.0185 25.7531 61.0858 36.6858L63.9142 39.5142ZM102.462 14.0493C118.044 7.63298 135.978 4.39999 156.3 4.39999V0.399994C135.556 0.399994 117.089 3.70033 100.939 10.3506L102.462 14.0493ZM156.3 4.39999C178.918 4.39999 197.438 8.78581 211.979 17.4197L214.021 13.9803C198.696 4.88083 179.415 0.399994 156.3 0.399994V4.39999ZM211.979 17.4197C226.768 26.2007 238.724 35.871 247.891 46.4123L250.909 43.7876C241.409 32.8623 229.099 22.9326 214.021 13.9803L211.979 17.4197ZM248.062 43.6134C243.141 48.0423 238.573 54.582 234.311 63.1056L237.889 64.8944C242.027 56.618 246.326 50.5577 250.738 46.5866L248.062 43.6134ZM234.29 63.1484C230.49 71.2245 228.084 78.89 227.118 86.1357L231.082 86.6643C231.983 79.91 234.243 72.6421 237.91 64.8516L234.29 63.1484ZM229.1 84.4H220.7V88.4H229.1V84.4Z" fill="white" fill-opacity="0.9"/>
</svg>
