<svg width="194" height="239" viewBox="0 0 194 239" fill="none" xmlns="http://www.w3.org/2000/svg">
<path d="M97.0056 0L4.33626e-06 28.6845V119.248C-0.00491472 136.223 4.17536 152.936 12.1678 167.895C20.1603 182.853 31.7163 195.593 45.8048 204.976L96.9609 239L148.106 204.976C162.194 195.593 173.75 182.853 181.743 167.895C189.735 152.936 193.916 136.223 193.911 119.248V28.6845L97.0056 0ZM64.1826 142.222L79.9573 117.789C75.0827 114.184 71.4663 109.125 69.6238 103.334C67.7813 97.543 67.8067 91.3157 69.6965 85.5402C71.5863 79.7646 75.2439 74.7356 80.1477 71.1704C85.0516 67.6051 90.9513 65.6857 97.0056 65.6857C103.06 65.6857 108.96 67.6051 113.863 71.1704C118.767 74.7356 122.425 79.7646 124.315 85.5402C126.204 91.3157 126.23 97.543 124.387 103.334C122.545 109.125 118.928 114.184 114.054 117.789L129.817 142.245L64.1826 142.222Z" fill="#993454"/>
<path d="M97.008 14.9316L12.1016 40.0264V119.282C12.1034 134.141 15.7702 148.769 22.7746 161.859C29.779 174.949 39.9029 186.093 52.2422 194.297L97.008 224.069L141.763 194.297C154.099 186.091 164.22 174.946 171.223 161.857C178.225 148.767 181.89 134.14 181.892 119.282V40.0264L97.008 14.9316ZM95 119.282C96.8425 125.073 90.1254 115.676 95 119.282C93.1102 125.057 93.1575 113.491 95 119.282C90.0961 122.847 96.8898 113.506 95 119.282C88.9457 119.282 99.9039 115.716 95 119.282C90.0961 115.716 101.054 119.282 95 119.282C93.1102 113.506 99.9039 122.847 95 119.282C96.8425 113.491 96.8898 125.057 95 119.282C99.8746 115.676 93.1575 125.073 95 119.282Z" fill="#77253C"/>
</svg>
