<svg width="89" height="110" viewBox="0 0 89 110" fill="none" xmlns="http://www.w3.org/2000/svg">
<path d="M84.1594 -0.000976562H4.60984C2.06389 -0.000976562 0 2.38851 0 5.33609V86.3654C0 89.313 1.75122 90.5431 4.60984 91.7025L44.3846 109.904L84.1594 91.7025C86.5671 90.5431 88.7693 89.313 88.7693 86.3654V5.33609C88.7693 2.38851 86.7054 -0.000976562 84.1594 -0.000976562Z" fill="#77253C"/>
<path d="M84.1594 -0.000976562H4.60984C2.06389 -0.000976562 0 2.38851 0 5.33609V86.3654C0 89.313 1.75122 90.5431 4.60984 91.7025L44.3846 109.904L84.1594 91.7025C86.5671 90.5431 88.7693 89.313 88.7693 86.3654V5.33609C88.7693 2.38851 86.7054 -0.000976562 84.1594 -0.000976562Z" fill="#77253C"/>
<path d="M80 86H76V90H80V86Z" fill="white"/>
<path d="M67 86H62V90H67V86Z" fill="white"/>
<path d="M58 86H53V90H58V86Z" fill="white"/>
<path d="M40 86H36V90H40V86Z" fill="white"/>
<path d="M31 86H27V90H31V86Z" fill="white"/>
<path d="M13 86H9V90H13V86Z" fill="white"/>
<path d="M89 81H85V86H89V81Z" fill="white"/>
<path d="M76 81H71V86H76V81Z" fill="white"/>
<path d="M62 81H58V86H62V81Z" fill="white"/>
<path d="M4 81H0V86H4V81Z" fill="white"/>
<path d="M36 81H31V86H36V81Z" fill="white"/>
<path d="M22 81H18V86H22V81Z" fill="white"/>
<path d="M66.5 77H62V81H66.5H71V77H66.5Z" fill="white"/>
<path d="M40 77H36V81H40V77Z" fill="white"/>
<path d="M31 77H27V81H31V77Z" fill="white"/>
<path d="M18 77H13V81H18V77Z" fill="white"/>
<path d="M62 72H58V77H62V72Z" fill="white"/>
<path d="M49 76.4968V81H53V76.4968V72H49V76.4968Z" fill="white"/>
<path d="M80 72H76V77H80V72Z" fill="white"/>
<path d="M13 72H9V77H13V72Z" fill="white"/>
<path d="M85 68H80V72H85V68Z" fill="white"/>
<path d="M58 68H53V72H58V68Z" fill="white"/>
<path d="M66.5813 68.0018V72.5041H71V68.0018V63.4995H66.5813V59.0036H71V54.5014H66.5813V49.9991V45.5032H62.1625V41.0009H66.5813V45.5032H71V41.0009V36.4986V32.0027V27.5005V22.9982V18.5023V14H66.5813H62.1625H57.75H53.3313H48.9125H44.5H40.0813H35.6625H31.25H26.8313H22.4125H18V18.5023V22.9982V27.5005V32.0027V36.4986V41.0009V45.5032V49.9991V54.5014V59.0036V63.4995V68.0018V72.5041V77H22.4125H26.8313V72.5041H22.4125V68.0018H26.8313V72.5041H31.25H35.6625V68.0018H31.25V63.4995V59.0036V54.5014V49.9991V45.5032V41.0009V36.4986V32.0027V27.5005H35.6625H40.0813H44.5H48.9125H53.3313H57.75V32.0027V36.4986V41.0009V45.5032V49.9991V54.5014V59.0036H62.1625V63.4995H57.75V68.0018H62.1625H66.5813Z" fill="white"/>
<path d="M58 59H53V64H58V59Z" fill="white"/>
<path d="M80 59H76V64H80V59Z" fill="white"/>
<path d="M76 50H71V55H76V50Z" fill="white"/>
<path d="M80 46H76V50H80V46Z" fill="white"/>
<path d="M89 41H85V46H89V41Z" fill="white"/>
</svg>
