<svg width="621" height="351" viewBox="0 0 621 351" fill="none" xmlns="http://www.w3.org/2000/svg">
<path d="M612.312 195.742C613.85 197.141 614.41 198.539 616.089 199.798C616.368 199.938 619.725 202.176 619.725 202.176C619.586 199.938 620.844 198.959 620.984 196.861C621.124 195.182 620.285 193.784 620.285 192.105C620.285 190.427 619.166 186.65 618.327 185.112C617.627 183.853 613.85 182.734 613.85 182.174C613.99 181.615 614.41 181.335 614.969 181.335C615.249 180.216 615.389 178.957 615.529 177.838C615.669 177.838 617.627 175.181 617.347 175.74C617.487 175.321 617.627 175.181 617.627 175.181C617.487 175.041 617.207 174.901 616.648 174.062C616.228 173.362 615.389 172.523 614.83 171.824C612.312 169.026 610.214 166.509 612.591 162.452C613.571 160.634 616.928 159.375 614.69 156.578C613.85 155.459 612.452 155.738 611.472 155.039C609.234 153.64 607.836 151.682 606.996 149.164C606.577 147.766 606.577 147.066 606.297 145.807C606.157 145.108 603.919 145.248 604.898 143.849C606.856 141.052 606.577 147.346 608.675 145.388C611.053 143.15 606.157 140.073 604.758 139.933C603.919 139.793 604.199 140.912 602.66 140.352C603.639 140.632 600.282 138.114 600.422 138.254C599.303 136.576 598.464 131.261 595.107 134.897C594.547 135.457 596.645 138.534 593.568 137.415C591.19 136.436 589.931 130.282 589.232 128.323C587.693 124.827 582.517 119.651 585.595 116.155C586.574 116.714 587.273 116.574 587.693 115.875C588.113 115.595 588.252 115.175 587.973 114.616C587.553 115.455 587.273 110.839 587.273 110.979C587.133 105.944 588.112 107.762 590.77 111.259C592.449 111.958 590.351 106.503 590.211 106.084C590.071 104.126 590.49 102.447 591.47 100.629C591.889 99.7895 593.428 96.8522 593.987 96.4326C595.526 95.4534 598.883 97.4117 599.862 95.8731C600.562 94.6142 598.184 93.0756 597.764 91.537C596.925 88.8795 597.624 85.8023 596.645 83.2846C595.666 80.627 594.687 78.5289 594.267 75.7315C593.848 71.9549 594.267 68.0385 593.848 63.9822C593.708 62.1639 592.169 59.3664 592.589 57.8278C592.729 57.2683 595.526 54.8905 596.086 54.331C597.065 53.4918 598.464 52.9323 598.464 51.8133C598.464 51.6734 595.666 48.4564 595.386 48.4564C593.568 47.757 593.708 49.1557 592.309 49.2956C592.589 49.2956 590.211 45.6589 590.49 49.1557C590.211 49.0159 586.714 47.6171 587.273 49.4355C586.854 49.1557 583.496 45.0994 582.937 47.757C581.958 44.9596 580.279 48.3165 579.86 48.4564C579.3 48.5962 577.621 48.0368 577.482 48.1766C576.782 48.4564 576.083 48.7361 575.663 49.0159C576.363 48.5963 573.565 54.0513 573.845 49.995C573.985 48.0368 578.041 47.1975 578.601 45.0994C579.44 42.4419 576.083 35.8679 573.845 34.609C571.607 33.3502 569.648 34.3293 567.97 31.6717C567.69 31.2521 566.991 31.392 566.851 30.9723C566.571 29.8534 568.389 29.9932 567.41 28.4546C568.669 28.1749 569.089 30.273 570.208 30.6926C571.047 30.9724 572.586 30.8325 573.285 30.8325C574.404 30.6926 573.705 32.0913 575.104 30.6926C576.642 29.154 574.404 27.6154 574.824 26.6363C575.523 24.818 578.321 23.9787 580.139 23.699C581.398 23.5591 582.377 24.5382 583.916 23.699C585.035 22.9996 584.755 21.7408 585.595 20.9015C586.993 19.5028 589.931 19.5028 590.91 17.8244C592.029 16.1459 590.351 14.1877 588.952 13.6282C588.112 13.2086 587.133 13.9079 585.874 13.2086C586.014 12.2295 585.595 11.3902 584.755 10.9706C584.336 10.9706 583.916 10.9706 583.496 10.9706C582.098 10.1314 580.139 11.9497 578.321 11.2504C578.321 10.1314 580.699 9.43203 581.258 8.45293C581.538 7.89344 581.678 6.91432 582.098 6.07508C581.538 5.23585 579.72 5.5156 579.44 6.4947C578.461 6.21496 582.937 1.17956 578.321 2.9979C576.363 -1.19827 578.041 -0.219159 575.104 1.31944C573.985 1.87892 573.145 2.57828 571.187 3.27764C569.369 3.977 568.669 3.977 568.11 5.79534C567.97 6.35483 568.389 7.47381 568.25 7.89343C567.97 8.87253 567.13 9.15228 566.991 9.71177C566.991 9.85164 565.732 8.5928 565.452 10.1314C565.032 12.0896 567.13 12.5092 568.25 12.789C568.669 12.9288 571.886 12.7889 571.467 12.3693C574.544 15.1668 564.473 16.5655 563.214 13.6282C563.214 15.3067 562.654 15.5864 561.815 14.4674C561.395 14.0478 560.836 13.9079 560.276 13.9079C560.276 13.9079 556.779 15.7263 559.437 16.1459C559.577 16.5655 556.919 15.5864 556.64 15.7263C555.94 15.8662 553.562 17.6845 552.863 18.1041C553.003 17.9642 551.744 19.7826 551.884 19.6427C551.464 19.9225 550.485 19.2231 550.205 19.3629C549.226 19.9224 549.226 20.4819 548.247 20.9015C547.827 21.1813 547.128 20.9015 546.568 21.1813C544.89 22.0205 544.19 23.2794 542.791 23.9787C541.393 24.6781 539.854 24.6781 538.315 26.0768C536.497 27.7553 533.419 29.154 531.181 31.392C528.524 34.1894 528.244 38.8052 525.586 41.183C524.467 42.1621 521.949 43.7007 522.089 44.9596C522.089 44.6798 525.167 47.757 525.027 47.6171C525.586 47.757 527.265 46.4982 528.664 46.9178C530.342 47.3374 532.58 49.2956 532.161 50.9741C531.601 53.3519 523.068 55.0304 521.25 52.6525C522.229 51.8133 524.607 52.2329 524.327 50.2747C524.048 48.1766 520.83 49.2956 520.131 50.2747C519.152 51.8133 520.83 52.5127 521.11 54.0513C521.39 56.2892 520.271 58.2474 518.872 59.786C517.613 61.0449 515.795 61.1847 514.815 62.1639C514.256 62.7233 514.676 63.4227 514.256 63.9822C512.438 66.4999 512.018 71.2556 507.682 70.9758C505.723 70.8359 505.024 68.8777 503.485 67.8986C501.107 66.4999 499.569 67.0594 497.191 67.8986C493.554 69.2973 489.917 71.2555 487.819 74.7524C486.7 76.5707 486.56 79.6479 484.042 80.2074C482.084 80.7669 480.685 78.8087 478.726 78.9485C477.607 79.0884 474.39 82.0257 473.411 81.0466C471.593 79.508 474.11 78.5289 473.971 76.9903C471.453 75.4517 467.676 78.5289 465.298 79.3681C463.34 80.0675 460.822 80.0675 458.724 81.0466C457.465 81.6061 456.346 82.3055 455.087 83.0048C454.108 83.4244 450.471 84.2637 449.771 84.6833C447.254 86.6415 451.03 85.5225 449.771 88.7396C449.072 88.5997 448.373 86.6415 447.673 88.0402C447.254 88.7396 447.114 92.0965 448.233 92.3763C448.512 91.6769 448.932 90.9775 449.492 90.5579C450.051 90.5579 450.331 94.0547 450.471 94.3345C451.31 95.5933 453.128 95.7332 453.968 96.8522C452.849 97.2718 446.554 96.5724 446.694 98.6705C446.694 99.5098 450.191 101.188 448.512 101.608C446.834 102.027 445.155 99.23 442.637 100.489C440.26 101.608 441.379 104.545 439.84 105.384C437.882 106.643 436.063 103.846 434.804 103.566C433.126 103.146 433.685 102.167 432.846 104.685C432.286 106.503 435.224 112.518 433.825 113.637C433.545 113.777 431.447 112.098 431.727 113.637C428.649 113.357 425.992 109.72 424.593 107.622C424.313 107.203 423.334 107.902 423.054 106.643C422.914 105.804 424.173 105.384 424.173 104.965C424.033 102.727 423.334 102.307 422.355 100.629C420.956 98.2509 421.096 96.1528 418.019 94.8939C417.179 94.6142 415.781 94.1946 414.801 94.4743C413.822 94.7541 413.682 95.5933 413.263 95.7332C412.563 96.0129 407.388 96.5724 407.108 94.0547C406.828 94.1946 404.59 97.1319 404.59 97.4117C404.171 99.23 406.409 99.6496 406.409 101.468C406.409 104.545 405.15 102.447 404.31 102.167C403.471 101.888 403.751 103.426 403.191 103.426C402.352 103.426 401.233 103.426 400.254 103.286C398.995 103.146 397.316 103.146 396.057 102.447C395.218 102.027 395.218 100.629 394.379 100.209C390.183 98.2509 384.447 101.748 380.391 101.048C379.552 100.908 379.412 99.7895 378.572 99.6496C378.153 99.6496 378.153 100.629 378.153 100.629C378.153 100.629 377.733 101.468 376.894 101.328C375.635 101.188 375.495 99.9294 374.936 99.6496C373.957 99.23 369.76 98.6705 370.599 102.027C370.879 103.286 373.537 100.349 374.096 101.748C370.599 104.405 366.962 108.042 362.207 107.203C363.046 105.804 363.885 104.405 364.585 103.146C365.004 103.146 365.564 103.146 365.983 103.286C367.382 101.888 369.061 100.069 370.18 98.3908C370.879 97.2718 370.599 96.2927 371.579 95.3136C372.698 94.3345 372.977 95.4534 373.956 94.8939C375.915 93.775 376.334 92.9357 377.453 91.1174C377.593 90.8377 379.412 87.7605 379.412 87.6206C379.132 86.3617 376.894 85.9421 377.174 84.5434C378.992 83.9839 379.552 85.2428 378.572 82.1656C378.712 82.5852 376.474 78.5289 376.195 80.0675C374.936 77.2701 373.537 75.5916 370.459 75.5916C369.48 75.5916 366.403 76.1511 365.284 76.4308C363.885 76.7106 365.704 79.2283 362.486 77.5498C362.626 75.172 364.585 75.5916 362.626 74.053C362.067 73.6334 358.43 74.053 358.15 73.2138C357.591 71.3954 363.046 71.5353 358.989 69.0176C356.751 67.6189 356.471 68.3182 354.513 69.7169C352.135 71.5353 351.156 72.7941 350.457 75.4517C350.177 76.4308 351.716 76.8504 350.037 78.1093C348.358 79.508 347.519 77.4099 345.841 77.9694C345.841 79.3681 347.239 80.0675 347.519 81.3263C347.519 81.3263 342.484 78.389 342.763 81.8858C341.364 80.7669 341.085 82.1656 339.266 81.6061C339.546 80.4871 341.924 79.7878 341.784 78.6688C341.644 77.2701 336.888 80.3473 336.608 80.4871C335.909 80.627 334.79 80.0675 333.671 80.3473C333.112 80.4871 333.391 81.6061 333.112 81.746C332.132 82.3055 329.894 82.7251 328.775 82.8649C326.957 83.1447 325.278 82.7251 323.6 83.4244C323.32 83.5643 323.04 82.8649 322.621 83.0048C321.921 83.2846 321.781 84.5434 321.082 84.963C320.243 85.3826 317.865 84.6833 317.305 85.2428C317.305 85.8023 317.585 86.082 318.005 86.2219C317.025 85.8023 316.885 86.2219 317.445 87.201C316.186 86.2219 315.627 86.5016 315.906 87.7605C315.347 87.0611 311.57 85.5225 313.948 88.32C313.249 88.1801 312.549 88.32 311.99 88.7396C311.15 90.5579 315.067 89.0193 315.067 89.0193C315.347 89.5788 315.347 90.1383 315.347 90.6978C314.647 90.2782 313.948 90.1383 313.249 90.418C312.969 91.2573 315.906 93.6351 315.627 94.1946C315.067 95.3136 311.011 94.6142 310.031 94.6142C306.674 94.6142 302.758 93.2155 299.4 92.9357C295.764 92.656 295.764 95.7332 295.344 98.9503C295.204 100.769 295.064 102.027 295.624 103.706C295.904 104.685 298.002 105.384 297.023 106.923C294.505 110.7 291.847 102.867 291.008 102.167C290.588 101.748 290.168 101.188 289.889 100.769C289.189 101.048 288.35 101.188 287.651 100.908C287.231 100.489 287.511 99.7895 287.651 99.9294C287.79 100.069 288.49 98.8104 288.07 98.111C287.371 97.2718 284.853 98.8104 284.293 99.0901C284.573 99.7895 286.112 99.5098 286.252 100.069C286.392 101.048 285.133 100.769 285.133 101.468C285.133 101.468 288.21 103.566 285.692 103.426C284.014 103.426 283.454 100.349 281.776 100.629C277.02 101.608 284.154 108.601 283.035 110.979C283.174 110.56 277.299 106.224 277.16 105.245C276.88 104.126 277.999 102.307 278.978 101.188C280.936 98.8104 282.055 98.5306 282.475 95.3136C282.615 94.1946 282.895 90.6978 281.776 89.9984C280.657 89.2991 281.076 93.2155 280.936 93.3554C280.377 95.7332 279.538 96.7123 277.439 97.9712C273.103 100.489 271.844 100.209 271.005 105.804C270.445 109.161 269.606 110.14 267.508 112.798C266.389 114.196 263.591 117.833 263.871 119.511C264.431 122.729 266.109 120.91 268.487 121.47C271.145 122.169 272.823 125.526 273.103 128.044C273.243 129.023 272.544 131.96 271.984 132.799C271.425 133.499 270.585 132.799 270.026 133.499C266.808 138.114 273.243 136.296 272.264 140.073C271.285 140.073 268.067 137.415 267.788 136.716C266.669 133.918 270.445 131.54 270.725 128.883C271.005 125.526 269.466 125.106 266.948 124.547C263.591 123.848 263.591 124.127 262.332 127.344C260.514 132.24 255.898 136.016 251.422 137.275C249.463 137.835 246.806 139.933 244.847 139.233C242.33 138.394 240.091 134.758 239.532 132.52C240.371 132.659 240.091 134.478 241.071 134.198C242.33 133.778 241.35 131.68 243.169 133.778C242.609 135.317 241.77 134.478 243.868 135.177C243.588 135.037 246.666 134.897 247.085 134.897C247.645 134.758 249.324 133.219 249.883 132.939C251.282 131.96 253.38 131.121 254.639 130.002C256.038 128.883 259.115 125.946 259.954 124.547C261.073 122.309 259.115 120.77 259.954 118.392C260.654 116.434 263.172 114.616 264.011 113.217C264.71 111.958 264.85 110.14 265.829 109.021C267.508 106.923 268.487 106.923 268.907 103.986C269.047 102.867 268.627 100.209 269.186 99.23C270.166 97.4117 273.663 95.7332 275.061 93.6351C276.6 91.2573 277.16 89.2991 274.222 86.9212C270.445 83.844 267.788 86.082 264.85 89.0193C262.192 91.6769 259.675 91.537 256.597 93.4952C255.898 93.9148 252.681 96.5724 253.1 97.2718C257.157 97.1319 246.666 105.105 247.365 106.783C247.645 107.343 249.883 107.343 250.163 108.881C250.303 109.581 248.764 109.86 248.764 110.56C248.764 111.679 249.603 114.476 249.324 115.455C249.184 115.875 246.246 118.532 245.687 118.253C244.148 117.134 244.707 113.357 244.288 111.958C243.588 109.441 242.33 106.643 241.35 104.265C239.672 100.069 238.133 96.1528 234.496 92.9357C234.216 94.1946 231.699 93.3554 230.719 93.9148C230.16 94.1946 229.74 96.5724 229.041 97.2718C228.621 97.8313 228.481 97.9711 228.481 98.111C228.202 98.111 227.782 98.2509 226.523 98.8104C226.383 98.8104 223.446 100.209 223.446 100.209C222.886 100.209 224.845 96.5724 224.145 95.4535C223.166 94.0547 221.208 94.1946 219.949 93.9148C219.109 93.775 219.109 94.7541 218.13 94.3345C217.711 94.1946 216.592 91.6769 215.892 91.2573C212.395 88.7396 212.395 92.3763 209.738 92.2364C209.458 91.3971 209.598 90.5579 209.877 89.8586C208.898 89.5788 208.339 88.8794 208.199 87.9003C208.479 87.7605 209.598 88.5997 209.738 88.4598C210.297 87.9004 210.297 86.9212 210.996 86.6415C211.416 86.3618 214.354 85.2428 214.493 85.3827C214.074 84.8232 210.717 83.5643 210.437 83.5643C209.598 83.5643 207.779 84.4035 207.779 84.4035C206.38 84.2637 206.66 83.4244 205.121 82.1656C204.002 81.1865 201.764 81.3264 200.505 81.0466C198.407 80.627 196.169 79.6479 194.491 79.3681C194.211 79.3681 194.211 81.1865 193.232 80.9067C192.672 80.7669 192.532 79.2283 191.833 79.0884C189.595 78.8087 188.056 81.4662 185.818 81.1865C184.839 81.0466 182.741 78.389 182.461 77.4099C182.461 77.1302 183.16 73.2138 183.3 73.2138C186.517 68.8777 189.455 75.8713 192.113 72.7942C192.532 72.2347 193.931 68.4581 193.791 67.479C193.651 65.6607 192.113 64.1221 191.273 62.8632C190.434 61.6044 191.693 59.9259 190.014 62.1639C189.455 62.8632 189.595 64.4018 188.895 65.241C188.196 66.0803 186.378 66.7796 185.398 67.1993C184.279 67.7588 182.461 68.1784 181.622 69.1575C180.922 69.8568 180.922 71.1157 180.643 71.5353C179.523 72.7941 173.509 75.4517 173.369 76.5707C171.97 75.3118 173.649 71.2556 172.25 69.8568C170.991 68.598 171.69 69.9967 169.872 69.0176C169.312 68.7378 166.375 67.6189 165.675 67.479C163.717 67.0594 160.78 66.0803 158.821 67.3391C157.422 68.3182 157.283 71.2556 155.604 71.9549C154.345 72.5144 155.184 71.6752 153.925 72.2346C153.086 69.9967 153.086 72.5144 152.107 71.1157C151.967 70.8359 151.548 66.36 151.548 65.8005C151.548 66.2202 152.806 61.3246 152.527 61.0449C151.548 59.786 151.687 60.905 150.848 60.6253C149.729 60.2056 149.449 59.2265 148.051 60.0658C148.051 61.1847 147.771 62.3037 147.071 63.143C146.372 63.9822 146.512 64.6815 147.351 65.241C146.931 66.2201 145.673 69.1575 143.994 69.1575C141.616 69.1575 142.455 63.9822 142.735 62.5835C143.295 62.024 143.714 61.1847 143.994 60.3455C143.854 59.3664 143.574 58.3873 143.155 57.5481C143.994 55.8696 145.673 55.8696 146.792 54.7506C147.631 53.9114 148.33 51.9532 149.17 51.2538C150.848 50.1348 152.527 51.2538 154.345 49.8551C156.303 48.3165 156.024 46.0786 157.003 43.9805C158.122 41.6026 160.22 39.5046 161.479 37.1267C162.039 37.8261 160.36 45.6589 159.94 45.9387C162.178 46.3583 160.08 48.0368 160.22 48.7361C160.36 50.2747 160.64 51.3937 161.059 52.9323C161.899 56.2892 161.059 57.8278 163.297 60.6253C167.634 66.2201 175.187 65.8005 178.824 59.3664C180.503 56.4291 179.803 52.6525 180.643 49.5754C181.622 46.0785 183.16 43.5609 183.02 39.7843C183.02 38.3856 183.02 36.4274 182.601 35.1685C182.461 34.8888 181.062 31.8116 180.922 32.2312C180.922 32.2312 182.601 27.4755 182.461 27.0559C182.881 27.3357 184.279 31.5318 184.139 27.1958C184.139 25.937 184.419 26.4964 183.86 25.3775C183.02 25.5173 182.321 25.2376 182.041 24.3984C182.041 23.8389 181.901 23.2794 181.901 22.8598C181.622 23.2794 181.342 23.4192 180.922 23.5591C180.363 23.2794 180.922 21.7408 180.643 21.6009C179.943 21.1813 179.663 22.0205 178.964 21.6009C177.985 20.9015 175.047 18.9433 173.788 18.9433C172.809 18.9433 169.312 20.0623 168.473 20.6218C166.515 21.8807 166.235 24.818 164.556 26.6363C164.696 28.1749 164.137 28.7344 163.018 28.3148C162.038 28.3148 161.059 28.035 160.08 27.7553C158.681 27.6154 158.262 27.4756 156.723 28.035C153.646 29.154 152.247 32.6508 149.589 34.3293C147.771 35.5881 146.372 35.5881 144.833 35.8679C143.155 36.2875 142.595 36.1476 141.196 37.2666C140.917 37.4065 139.658 37.4065 139.098 37.6862C138.818 37.8261 137.979 39.6444 137.839 39.7843C137.28 40.3438 135.042 43.2811 134.063 43.7007C132.244 44.4001 131.405 42.8615 130.006 43.7007C129.446 44.1203 129.307 46.9178 128.887 47.6171C128.327 48.4564 127.208 49.5753 126.509 50.1348C123.012 52.9323 116.018 52.2329 111.542 50.9741C108.744 50.1348 106.366 47.8969 103.429 47.4773C97.414 46.638 103.149 48.0368 102.31 50.1348C97.1343 49.8551 101.471 56.8487 98.9527 58.5272C97.8336 59.3664 98.2533 55.45 97.8336 54.7506C97.5539 54.0513 94.4765 52.5127 94.3367 52.2329C94.6164 51.8133 94.7563 51.3937 94.8962 50.8342C93.4974 50.8342 93.0777 52.0931 91.9587 52.5127C90.5599 52.9323 89.1611 52.5127 87.7623 52.9323C86.923 53.212 86.0837 54.0513 85.2445 54.331C84.6849 54.4709 82.1671 54.7506 82.0272 54.8905C80.7683 55.8696 81.3278 59.3664 78.9499 58.667C77.5511 58.2474 78.2505 55.1702 75.4529 55.3101C75.5928 55.3101 73.7743 59.786 73.2148 60.2057C72.935 60.4854 71.6761 59.6462 70.8368 60.2057C69.5779 61.1848 70.1374 61.7442 69.1583 62.5835C68.0392 63.8423 65.3815 64.5417 64.5423 65.9404C63.2833 68.1784 65.6613 69.5771 65.5214 71.2556C65.5214 71.6752 64.2625 73.2138 64.1226 73.0739C63.9827 73.3536 63.703 73.4935 63.5631 73.7733C63.8428 74.3327 64.2625 74.6125 64.822 74.7524C65.1018 75.8713 66.0809 77.9694 65.2417 79.7878C63.9827 82.5852 61.325 83.4244 58.6673 83.5643C59.2268 83.5643 56.4292 88.1801 56.2893 88.5997C55.7298 89.5788 54.6108 91.537 54.1911 92.5161C54.0513 92.9357 53.0721 93.775 52.9322 94.1946C52.7923 94.4743 53.7715 95.0338 53.6316 95.3136C53.6316 95.5933 52.3727 98.6705 52.3727 98.6705C48.7358 101.188 47.6168 96.4325 46.9174 93.9148C45.3787 94.1946 44.5394 96.1528 43.4204 97.2718C42.3014 98.3908 40.6228 98.8104 40.0633 100.209C39.7835 100.908 39.5038 102.727 40.0633 103.426C41.4621 104.825 41.0424 103.286 42.3014 102.727C42.4412 102.727 45.2388 108.741 45.2388 109.581C45.2388 110.7 44.8192 111.259 44.2597 112.378C44.1198 112.798 43.5603 114.756 43.2805 115.036C42.4412 115.875 41.8817 114.476 41.602 114.616C37.8252 117.274 39.9234 117.833 40.2032 120.77C40.343 123.148 38.5246 124.127 37.1258 125.946C35.727 127.764 36.0068 130.701 37.2657 133.079C37.9651 134.478 40.7627 135.037 41.0424 136.576C41.3222 137.555 39.5038 139.233 39.3639 140.352C38.9442 143.29 40.0633 141.332 40.6228 142.59C41.0424 143.569 40.9026 145.108 41.0424 145.807C41.4621 147.906 42.1615 150.283 41.3222 151.682C41.0424 152.242 43.4204 153.78 43.5603 154.34C43.7001 154.619 41.602 154.619 41.4621 154.619C42.8609 156.857 39.3639 155.738 39.0841 155.738C38.9442 155.738 38.105 155.319 37.6853 155.599C36.9859 156.018 38.105 157.417 37.8252 157.976C37.8252 157.976 35.1675 157.137 34.608 157.277C35.3074 156.997 34.0484 159.795 34.0484 159.655C34.0484 159.655 31.3907 161.893 31.8104 161.753C29.4324 162.452 27.8937 159.095 26.0753 158.116C25.236 157.557 21.739 156.158 20.62 158.536C19.2212 161.193 24.2569 161.193 24.2569 162.732C24.117 167.208 17.9623 160.074 17.6825 163.012C17.8224 161.613 15.3045 158.955 14.0456 160.494C13.0665 161.613 14.8849 165.39 13.7659 166.369C13.0665 166.928 12.9266 164.41 12.6468 164.55C12.3671 164.83 12.2272 164.97 11.8075 164.83C11.8075 164.41 11.8075 164.131 11.8075 163.711C11.8075 163.711 6.49211 164.69 6.63199 164.69C5.51296 164.69 5.2332 165.809 3.97428 164.55C4.39392 164.97 3.55464 159.795 2.71536 161.054C2.4356 161.613 2.29572 162.173 2.15584 162.732C2.01596 162.312 1.7362 162.033 1.31656 161.753C-0.0822372 162.173 1.31656 170.425 1.45644 171.824C1.7362 174.341 1.87608 178.538 1.59632 181.055C1.45644 182.314 -0.641758 189.587 0.197521 190.007C1.59632 190.846 3.27488 191.266 3.8344 193.084C4.67368 195.882 4.5338 197.98 6.07248 200.917C7.89091 204.414 9.98911 207.771 9.98911 211.827C9.98911 212.946 9.14983 214.625 9.70935 215.744C10.2689 216.723 11.248 216.443 11.8075 217.002C13.2063 218.121 12.9266 218.121 13.9057 219.52C14.745 220.779 15.5843 221.758 15.7242 223.856C15.8641 227.073 14.3254 226.094 14.3254 228.612C14.3254 230.15 16.1438 232.528 16.4236 233.927C16.9831 236.025 16.5635 237.424 16.2837 239.102C16.1438 240.641 15.7242 241.76 16.8432 243.019C19.0813 245.956 18.6617 243.159 20.3402 243.019C21.3194 242.879 22.2985 244.697 24.117 243.438C25.236 242.739 25.5158 239.941 25.9354 238.123C26.4949 235.466 26.6348 232.528 27.7538 230.011C28.5931 228.192 30.1318 227.633 31.3907 226.793C32.0901 226.374 33.4889 226.094 33.7687 225.255C34.3282 223.996 32.6496 224.695 32.6496 223.716C32.6496 222.597 33.0693 218.961 33.6288 217.982C34.7478 216.303 36.0068 216.723 38.105 216.023C40.4829 215.184 41.7418 214.345 43.9799 213.086C43.9799 213.086 43.2805 215.184 43.4204 215.184C44.5394 215.744 46.6376 215.044 47.8965 215.044C46.6376 215.044 47.4769 216.583 48.3162 216.863C48.0364 216.723 49.9947 216.583 49.5751 216.583C50.1346 216.583 50.9739 216.303 51.3935 216.303C52.2328 216.303 52.0929 217.142 52.9322 217.142C54.331 217.142 53.9114 213.785 53.7715 212.107C54.331 212.806 56.2893 211.687 56.709 210.988C57.5483 209.729 56.8489 207.631 57.1286 206.232C57.4084 204.834 58.5274 204.414 58.3875 202.735C58.3875 201.616 57.2685 199.938 56.8489 198.959C56.709 198.539 55.1703 198.26 55.1703 198.12C55.0304 196.022 57.4084 195.182 57.6881 193.084C57.9679 190.846 55.5899 190.427 58.5274 188.748C59.7863 188.049 61.4649 188.888 62.5839 188.049C63.5631 187.35 62.8637 186.93 63.5631 186.091C64.6821 184.832 65.1018 183.573 66.9202 183.013C67.8994 182.734 69.2982 182.874 70.4172 182.594C71.1166 182.454 72.5154 180.775 73.4946 181.055C73.0749 180.915 72.3755 186.231 72.2356 186.37C72.0958 187.349 71.3964 187.629 71.2565 188.468C70.5571 190.567 74.8934 190.007 75.4529 189.587C76.8517 188.748 77.1314 185.671 78.2505 185.112C77.6909 185.391 82.4469 187.489 82.1671 187.629C84.1254 186.65 81.6076 185.951 84.2653 185.951C84.2653 185.951 86.3635 187.07 86.7831 187.21C88.8813 187.769 89.8605 187.489 91.2593 186.231C91.6789 185.811 91.3992 187.629 91.3992 187.629C91.3992 187.489 93.2176 187.07 93.6373 187.769C94.1968 188.468 93.6373 189.168 93.6373 189.308C93.917 190.007 94.3367 191.825 95.036 192.245C95.4557 192.525 97.1343 190.986 98.1134 192.385C98.2533 192.665 97.8337 194.763 98.1134 195.322C98.6729 196.581 100.491 196.441 101.051 197.84C101.61 199.239 100.351 199.518 100.491 200.218C100.771 201.477 102.59 202.316 102.729 202.875C103.149 204.134 101.471 203.854 102.31 205.533C102.729 206.512 99.9318 207.351 100.072 208.051C100.491 211.128 103.149 206.092 103.429 206.232C103.848 206.372 104.268 207.491 104.688 207.771C104.268 207.491 104.688 212.107 105.107 212.666C107.066 214.625 108.744 212.247 110.982 212.527C112.101 212.666 113.5 215.324 114.06 215.744C115.039 216.723 114.759 218.541 116.857 216.583C116.857 216.583 119.935 219.52 120.075 219.52C119.375 218.961 119.935 223.576 120.075 224.556C120.214 224.416 122.173 227.073 121.613 226.933C122.033 227.213 123.012 227.493 123.432 227.633C123.711 227.213 124.131 226.793 124.691 226.793C125.39 227.073 125.67 227.493 125.67 228.332C126.929 229.031 126.369 230.29 128.188 230.99C130.845 231.969 131.964 230.15 134.202 229.591C135.601 229.171 130.985 222.318 130.705 221.758C130.845 222.038 130.845 217.982 130.426 218.541C131.125 217.842 132.384 218.541 133.643 218.681C137.699 219.24 136.021 217.982 137.56 215.324C139.937 211.268 142.315 216.583 144.833 217.422C146.372 217.982 143.295 212.806 143.434 213.086C143.015 210.848 143.295 210.848 145.673 211.547C144.973 210.708 144.274 209.729 143.574 208.89C145.952 209.729 145.113 208.19 145.393 207.072C145.673 206.092 150.848 209.729 150.708 209.589C151.268 210.149 151.268 211.547 151.827 211.967C151.687 211.827 153.086 211.408 153.786 211.687C154.905 211.967 155.604 212.527 156.164 212.806C156.723 213.086 157.143 212.527 157.702 212.806C158.262 213.086 158.122 213.785 158.681 214.065C159.94 214.485 160.78 214.065 162.178 214.764C163.297 215.324 163.997 215.883 164.836 216.583C165.396 217.002 165.675 215.184 165.815 215.044C166.235 214.625 174.348 218.261 175.607 218.401C176.586 218.541 176.726 218.821 177.425 218.961C177.705 218.961 179.803 219.66 179.943 219.66C181.482 219.52 183.72 217.982 185.259 218.401C186.937 218.821 187.776 220.779 188.895 221.898C189.315 222.457 188.895 222.877 189.735 223.437C190.014 223.576 190.854 223.437 190.994 223.576C191.273 223.716 192.672 223.157 193.232 223.576C194.77 225.535 189.595 234.067 189.315 233.787C190.014 234.207 190.854 234.626 191.413 234.906C192.532 235.466 192.113 234.207 193.092 234.347C193.511 234.347 193.511 236.724 194.211 236.025C194.211 236.025 195.05 233.927 195.05 234.067C195.889 236.165 193.651 240.361 196.449 237.144C195.889 237.843 200.086 240.781 199.946 240.361C200.925 242.459 199.526 240.781 198.127 242.599C195.61 245.536 201.205 243.019 202.184 246.655C203.863 244.697 209.877 244.417 212.395 244.138C213.235 244.138 216.032 243.019 216.871 243.858C218.55 245.816 215.473 245.536 214.354 245.676C213.374 245.816 218.13 254.069 218.13 254.488C219.669 258.824 219.389 264.979 220.089 269.734C220.508 272.252 220.368 274.49 220.648 277.008C220.788 279.805 220.648 281.064 223.446 280.085C224.285 279.805 223.726 278.406 225.124 278.266C227.223 277.987 226.523 279.246 227.362 280.784C227.782 281.623 228.342 281.623 228.761 282.183C229.181 282.882 228.342 283.442 228.901 284.001C229.181 284.281 232.818 285.959 233.097 286.099C235.196 286.519 235.056 285.26 236.734 285.12C240.231 284.701 241.49 289.037 242.469 291.414C243.029 292.813 242.469 292.673 243.449 293.932C243.728 294.212 244.568 295.051 244.987 295.611C245.687 296.869 244.987 297.849 245.547 299.107C245.966 300.226 248.204 301.905 249.883 302.185C251.841 302.464 252.96 300.506 254.919 300.786C252.96 300.646 255.338 306.661 256.038 307.22C257.437 308.339 259.535 308.479 261.073 307.919C262.053 307.5 261.353 306.521 262.612 306.101C263.172 305.961 264.151 307.08 265.13 306.94C266.389 306.94 268.627 306.521 269.606 305.961C271.704 304.842 272.963 303.304 275.481 302.324C276.88 301.765 278.558 302.045 279.957 301.345C281.916 300.366 283.035 300.226 285.133 299.667C287.93 298.828 286.532 298.968 289.049 300.226C290.868 301.206 292.686 301.485 295.064 302.185C298.421 303.164 297.722 305.402 299.261 307.22C300.38 308.479 302.338 309.318 304.017 309.738C305.275 310.017 304.856 308.619 306.115 308.898C307.514 309.178 308.213 310.577 309.332 310.997C312.13 311.976 318.284 312.675 319.683 308.898C320.522 306.521 315.627 298.688 320.522 297.849C320.802 296.59 322.061 295.75 323.04 294.632C325.138 292.394 323.46 292.813 326.257 293.652C327.936 294.212 329.055 295.75 330.734 296.45C331.853 297.009 333.251 296.87 334.51 297.429C335.49 297.849 336.888 299.107 337.588 299.387C339.126 299.947 341.085 298.968 342.204 301.066C342.344 301.485 341.504 302.744 341.644 303.164C341.784 304.283 342.763 305.542 343.323 306.521C345.561 310.717 349.897 311.976 354.233 310.717C356.052 310.157 359.269 308.479 360.948 308.479C362.906 308.479 367.242 309.878 369.061 310.577C370.18 310.997 372.418 312.116 373.257 312.675C374.656 313.794 375.495 316.871 377.453 317.85C378.992 318.55 382.769 318.27 384.587 318.55C386.825 318.829 388.084 319.529 390.462 318.969C391.581 318.69 392.84 317.571 394.099 317.151C394.938 316.871 395.778 317.151 396.617 316.871C397.736 316.591 398.435 315.892 399.275 315.333C399.834 315.053 399.974 314.353 400.394 314.074C400.813 313.794 401.793 314.353 402.212 314.214C405.15 312.675 406.828 308.759 409.766 306.94C409.346 307.36 412.703 306.661 411.864 306.661C412.563 306.661 413.822 306.101 414.941 306.661C415.781 307.08 415.641 308.479 416.76 308.898C417.879 309.318 419.138 308.339 420.117 308.199C423.754 307.5 427.81 311.276 431.307 309.738C432.846 309.038 433.405 306.94 434.664 305.961C435.224 305.542 436.763 305.122 437.182 304.562C438.301 303.164 438.301 300.646 438.441 298.548C438.581 295.89 438.861 293.792 439.84 291.135C440.679 288.617 443.197 286.239 442.358 283.302C441.658 280.644 440.959 281.903 439.28 280.924C438.301 280.365 438.161 281.903 437.742 279.945C437.602 279.246 439.7 276.728 440.12 276.168C442.498 272.532 446.414 272.112 450.471 270.154C454.387 268.336 453.548 268.056 457.744 269.315C458.584 269.594 459.143 270.014 459.983 270.014C461.521 270.154 462.081 269.035 463.34 269.035C465.578 268.895 467.536 270.154 468.795 271.413C469.914 272.392 472.152 274.91 472.852 275.889C474.95 278.686 476.768 282.183 479.286 285.26C480.825 287.218 482.643 289.596 483.902 291.554C484.881 293.093 484.322 294.632 486.56 295.191C488.658 295.75 489.217 294.212 491.036 294.212C492.155 294.212 492.295 295.191 493.274 295.191C494.673 295.191 495.932 293.932 497.051 294.072C496.491 293.932 503.345 296.31 503.765 296.03C503.625 297.289 506.003 300.506 506.842 301.625C507.402 302.324 507.402 302.604 507.402 302.604C507.542 302.744 507.682 302.884 507.961 303.164C509.22 304.283 509.5 304.283 510.479 304.423C511.179 304.562 515.795 303.583 516.774 302.744C518.312 301.206 517.753 298.548 519.292 296.73C522.369 293.233 526.006 289.876 528.384 294.492C528.803 295.331 529.922 296.45 529.922 297.709C529.783 299.247 528.524 300.786 528.384 302.604C528.244 305.122 529.363 307.08 529.643 309.038C529.922 310.997 529.503 314.493 529.083 316.731C528.943 317.85 528.524 318.41 528.384 319.529C528.244 320.508 530.482 320.648 528.244 322.606C526.705 324.005 524.607 322.326 522.929 322.746C521.53 323.165 521.39 323.725 520.551 324.424C521.11 323.865 518.173 328.481 518.452 327.362C517.473 330.299 520.69 332.537 521.809 335.754C522.509 337.852 523.628 339.95 524.048 341.908C523.908 341.489 523.208 345.685 523.628 345.125C523.348 345.685 522.229 346.244 522.089 346.664C521.39 348.203 519.991 346.804 520.97 349.182C520.97 349.322 522.509 351 522.929 351C524.327 351 523.208 349.182 522.649 348.342C524.327 350.58 526.565 340.51 526.425 339.81C527.125 339.67 530.622 339.81 530.902 339.95C531.042 340.09 531.741 341.629 532.3 342.048C532.161 341.768 534.818 342.188 535.238 342.328C535.518 342.188 536.777 341.489 536.637 341.489C537.196 341.209 537.196 341.349 538.036 340.929C539.015 340.37 539.994 338.551 540.693 337.572C544.47 333.096 546.568 329.32 547.128 324.145C547.268 323.445 546.568 322.746 546.708 321.907C546.848 321.487 547.967 320.228 548.247 319.529C548.946 317.99 548.387 316.452 548.806 314.913C549.086 313.514 549.925 312.395 550.485 311.136C552.163 307.08 552.583 304.003 552.863 299.667C553.003 297.709 553.562 296.03 553.562 294.212C553.562 292.813 553.003 291.414 553.282 289.596C553.562 288.057 553.282 286.799 553.562 285.26C553.702 284.001 554.401 282.882 554.681 281.763C554.961 280.365 555.521 277.287 555.381 276.029C554.821 266.657 547.547 259.663 547.268 250.292C547.128 246.096 545.309 243.998 543.491 240.361C543.071 239.522 541.952 239.102 541.672 238.263C541.253 237.004 542.372 236.585 541.672 235.466C540.413 233.647 538.036 234.347 536.497 232.668C536.217 233.088 532.3 231.969 531.181 231.829C529.783 231.689 529.783 231.269 527.964 231.689C527.125 231.829 525.866 232.388 525.027 232.528C525.027 232.528 527.964 244.417 525.446 239.941C524.467 238.263 526.146 235.186 524.187 238.683C523.068 240.641 523.488 241.76 521.25 242.879C521.11 242.879 522.369 238.962 522.369 238.683C522.369 238.123 520.411 239.242 519.991 238.543C519.292 237.564 520.551 237.843 520.411 236.724C520.131 233.927 518.312 238.543 518.173 238.822C518.173 238.962 519.292 243.019 517.193 241.9C515.235 240.781 517.333 236.724 514.256 235.745C513.137 235.466 511.598 237.424 510.339 237.564C507.122 238.123 506.563 236.724 507.682 233.787C508.381 232.109 508.661 230.15 509.5 228.612C511.318 224.975 512.857 222.457 513.137 218.261C513.277 216.723 512.997 215.744 513.137 214.205C513.417 211.547 515.095 209.449 515.655 206.932C516.214 203.994 515.515 200.498 516.074 197.42C516.354 196.022 517.193 194.763 517.613 193.504C518.033 191.546 517.753 189.587 518.312 187.629C519.571 183.993 523.208 182.174 526.146 180.216C527.405 179.237 528.244 177.419 529.503 176.719C530.202 176.3 531.741 177.279 532.86 176.579C533.419 176.3 532.3 175.041 533 174.481C534.119 173.642 534.818 174.341 535.378 174.062C535.797 174.202 536.357 174.202 536.637 173.922C537.336 173.642 537.616 172.943 537.616 171.964C537.616 171.264 538.036 170.845 538.595 170.565C539.434 170.705 540.274 170.845 541.113 170.705C540.973 170.565 540.973 165.529 541.113 165.39C542.092 163.431 545.449 163.711 547.128 162.732C549.506 161.193 548.387 160.774 551.324 161.193C552.723 161.473 553.982 159.375 553.003 162.312C552.583 163.571 548.946 164.41 551.744 165.39C553.562 166.089 555.241 163.012 556.08 161.613C557.059 159.935 557.898 158.116 559.017 156.717C559.857 155.599 562.654 153.92 562.514 151.962C562.375 149.304 560.416 152.102 559.577 152.242C556.779 152.521 557.059 151.262 556.22 148.885C554.681 144.409 556.08 139.933 554.821 135.457C554.262 133.499 553.422 131.96 553.422 130.282C553.422 128.883 554.401 128.184 554.961 127.065C555.8 125.526 556.919 123.568 558.318 122.589C560.556 120.91 560.696 124.267 560.976 119.092C562.934 119.511 564.053 126.925 566.431 126.225C566.012 125.246 566.291 124.687 566.991 124.267C567.55 124.407 568.11 126.505 568.529 126.505C570.348 126.085 569.648 124.687 569.508 123.148C569.369 119.651 569.229 115.315 569.089 112.238C569.089 111.819 570.208 112.098 569.928 111.259C569.648 110.42 566.711 108.881 565.872 107.902C564.613 106.363 563.913 103.706 565.452 101.888C566.571 100.489 568.389 99.7895 568.809 101.328C568.949 101.748 567.69 102.587 567.83 103.426C567.97 104.265 570.488 107.482 571.047 108.042C572.866 110.28 574.964 110.979 575.523 113.917C575.943 116.574 575.104 119.931 575.803 123.008C575.943 123.708 577.062 124.127 577.202 124.547C577.342 125.946 577.482 128.044 577.482 129.442C577.482 132.24 577.761 133.918 578.461 136.716C579.3 139.793 579.72 142.87 579.999 146.367C580.139 148.045 580.139 149.025 579.72 150.703C579.72 150.843 578.741 150.703 578.601 151.123C578.601 151.123 578.741 152.521 578.741 152.381C578.88 152.242 577.482 155.738 577.482 155.319C577.482 156.578 578.041 156.158 578.601 156.997C579.16 157.976 580.559 158.116 581.118 159.375C581.398 159.935 580.979 162.173 581.118 162.872C581.678 167.628 586.014 175.181 589.511 178.677C591.749 180.915 594.687 182.034 596.925 183.993C599.163 185.951 601.261 188.189 603.359 190.147C606.717 191.825 609.934 193.504 612.312 195.742Z" fill="#77253C"/>
<circle cx="26" cy="179" r="3" fill="#993454"/>
<circle cx="23" cy="210" r="3" fill="#993454"/>
<circle cx="68" cy="170" r="3" fill="#993454"/>
<circle cx="58" cy="134" r="3" fill="#993454"/>
<circle cx="121" cy="182" r="3" fill="#993454"/>
<circle cx="154" cy="194" r="3" fill="#993454"/>
<circle cx="97" cy="137" r="3" fill="#993454"/>
<circle cx="91" cy="147" r="3" fill="#993454"/>
<circle cx="103" cy="158" r="3" fill="#993454"/>
<circle cx="532" cy="335" r="3" fill="#993454"/>
</svg>
