<svg width="245" height="69" fill="none" xmlns="http://www.w3.org/2000/svg"><path d="M66.083 0H2.753A2.757 2.757 0 000 2.76v63.48A2.757 2.757 0 002.754 69h63.329a2.757 2.757 0 002.753-2.76V2.76A2.757 2.757 0 0066.083 0z" fill="#fff"/><path d="M61.953 65.553H58.51v3.452h3.443v-3.452zm-10.323 0h-3.445v3.452h3.444v-3.452zm-6.884 0h-3.443v3.452h3.443v-3.452zm-13.769 0h-3.444v3.452h3.444v-3.452zm-6.881 0h-3.444v3.452h3.444v-3.452zm-13.77 0H6.883v3.452h3.443v-3.452zm58.514-3.451h-3.444v3.451h3.444v-3.451zm-10.324 0h-3.444v3.451h3.444v-3.451zm-10.326 0h-3.444v3.451h3.444v-3.451zm-44.746 0H0v3.451h3.444v-3.451zm24.096 0h-3.444v3.451h3.443v-3.451zm-10.327 0H13.77v3.451h3.444v-3.451zM51.63 58.65h-3.445v3.452h6.888V58.65h-3.444zm-20.653 0h-3.444v3.452h3.444V58.65zm-6.881 0h-3.444v3.452h3.444V58.65zm-10.326 0h-3.444v3.452h3.444V58.65z" fill="#72253D"/><path d="M48.19 55.203h-3.444v3.452h3.444v-3.452zM37.86 58.65v3.452h3.443v-6.899h-3.444v3.447zm24.093-3.447H58.51v3.452h3.443v-3.452zm-51.627 0H6.883v3.452h3.443v-3.452zm55.073-3.452h-3.444v3.452H65.4V51.75zm-20.653 0h-3.443v3.452h3.443V51.75z" fill="#72253D"/><path d="M51.629 51.751v3.452h3.443V48.3H51.63v-3.447h3.443V41.4H51.63v-6.899h-3.444V31.05h3.444v3.451h3.443V10.35H13.77v48.3h6.882v-3.447h-3.444V51.75h3.444v3.452h6.882V51.75h-3.439V20.7h20.652v24.152h3.438V48.3h-3.438v3.451h6.882z" fill="#72253D"/><path d="M44.746 44.853h-3.443v3.451h3.443v-3.451zm17.207 0H58.51v3.451h3.443v-3.451zm-3.437-6.903h-3.444v3.45h3.444v-3.452z" fill="#72253D"/><path d="M61.953 34.502H58.51v3.452h3.443v-3.452zm6.887-3.452h-3.444v3.452h3.444v-3.451z" fill="#72253D"/><path d="M86.52 54.453a7.17 7.17 0 01-.451 1.018c-.13.233-.294.446-.486.633-.149.149-.33.262-.53.33a1.891 1.891 0 01-.616.093h-.748v-.896h.578c.219.002.434-.057.622-.17.224-.173.392-.409.485-.677l.185-.487-2.686-7.122h.971l1.054 2.867 1.151 3.175h.054l1.243-3.31 1.05-2.732h.946l-2.822 7.278zm9.466 1.952v-8.373h-4.76v8.373h-.937v-9.25h6.659v9.25h-.962zm8.825-6.523a2.862 2.862 0 01-.68 1.83 2.758 2.758 0 01-.806.623 2.372 2.372 0 01-1.088.239h-2.788v3.831h-.937v-9.25h3.725a2.52 2.52 0 011.136.239 2.495 2.495 0 011.297 1.495c.098.321.146.656.141.993zm-.937 0a2.033 2.033 0 00-.141-.76 1.663 1.663 0 00-.389-.58 1.857 1.857 0 00-.578-.379 1.934 1.934 0 00-.709-.131h-2.608v3.656h2.608c.242.002.483-.04.709-.127.215-.078.411-.2.578-.355.17-.155.303-.347.389-.56a1.98 1.98 0 00.141-.764zm7.956 6.523a28.74 28.74 0 01-.359-1.07c-.112-.36-.238-.716-.364-1.072h-3.944l-.719 2.142h-.971c.534-1.551 1.067-3.09 1.598-4.615a1411.08 1411.08 0 001.597-4.615h.972l3.21 9.25-1.02-.02zm-2.715-8.013c-.077.258-.194.618-.34 1.071-.145.453-.306.935-.485 1.431-.18.497-.326.974-.486 1.427l-.359 1.086h3.341a79.288 79.288 0 00-.835-2.512c-.175-.497-.331-.974-.486-1.432-.155-.458-.267-.813-.35-1.071zm11.257 5.404a2.86 2.86 0 01-.165.974 2.568 2.568 0 01-.486.837c-.225.25-.5.45-.806.59a2.65 2.65 0 01-1.108.218h-3.885v-9.25h3.72c.383-.009.764.057 1.122.195.301.115.574.292.802.52.211.218.377.477.485.76.114.29.172.6.17.91a2.542 2.542 0 01-.068.57 2.126 2.126 0 01-.213.55 2.009 2.009 0 01-.394.487 2.209 2.209 0 01-.622.39c.243.096.466.235.661.409a2.2 2.2 0 01.452.55c.112.198.197.411.252.633.054.215.082.435.083.657zm-1.083-4.211a1.633 1.633 0 00-.146-.716 1.34 1.34 0 00-.398-.487 1.711 1.711 0 00-.578-.267 2.8 2.8 0 00-.709-.088h-2.594v3.091h2.725c.214 0 .428-.034.631-.102.197-.063.381-.16.544-.287a1.27 1.27 0 00.384-.487c.095-.206.143-.43.141-.657zm.145 4.21a1.796 1.796 0 00-.15-.754 1.963 1.963 0 00-.408-.57 1.853 1.853 0 00-.588-.36 1.936 1.936 0 00-.68-.126h-2.744v3.578h2.744a1.94 1.94 0 001.336-.448 1.723 1.723 0 00.49-1.32zm4.372-5.763v3.325c.008.7-.042 1.398-.151 2.088a6.496 6.496 0 01-.442 1.514c-.174.39-.416.746-.714 1.052-.287.283-.614.52-.971.706l-.432-.803c.284-.17.544-.378.772-.619.236-.26.424-.56.554-.886.167-.424.281-.867.34-1.319a13.34 13.34 0 00.116-1.947v-3.968h5.547v9.25h-.938v-8.393h-3.681zm6.357 1.845c-.001-.35.055-.696.166-1.027a2.58 2.58 0 01.485-.867 2.32 2.32 0 01.807-.589 2.717 2.717 0 011.126-.22h3.73v9.25h-.971v-4.06h-2.21a2.042 2.042 0 00-.51.069 1.47 1.47 0 00-.486.229 1.603 1.603 0 00-.412.447 2.827 2.827 0 00-.321.73l-.753 2.586h-.947l.777-2.707c.096-.338.227-.664.394-.974.155-.27.399-.48.689-.594a1.943 1.943 0 01-1.224-.847 2.69 2.69 0 01-.34-1.426zm.894 0c-.006.26.046.517.151.755.092.202.232.38.408.516.183.136.391.235.612.292.247.063.502.094.757.092h2.521v-3.5h-2.623a1.883 1.883 0 00-1.35.487 1.775 1.775 0 00-.495 1.353l.019.005zm15.533 3.544c.006.435-.067.867-.213 1.276a2.638 2.638 0 01-1.593 1.592 4.053 4.053 0 01-2.628 0 2.651 2.651 0 01-.971-.624 2.562 2.562 0 01-.593-.973 3.79 3.79 0 01-.199-1.28V52.15h-1.355v4.26h-.933v-9.25h.933v4.114h1.355V50.16a3.696 3.696 0 01.199-1.25c.124-.365.327-.697.593-.975.273-.28.605-.498.971-.637a3.651 3.651 0 011.331-.23 3.58 3.58 0 011.311.23 2.68 2.68 0 011.579 1.611 3.7 3.7 0 01.209 1.251l.004 3.262zm-.937-3.11a3.137 3.137 0 00-.16-1.062 1.99 1.99 0 00-.452-.73 1.861 1.861 0 00-.68-.429 2.664 2.664 0 00-.879-.141 2.18 2.18 0 00-1.578.565 2.407 2.407 0 00-.583 1.796v2.99c-.008.364.049.727.17 1.07.096.273.252.521.456.726.193.188.425.33.68.414.276.089.565.133.855.131a2.222 2.222 0 001.574-.555 2.333 2.333 0 00.597-1.787V50.31zm8.154 5.252h3.759v-8.388h.933v8.359h.738v2.843h-.938v-1.986h-10.131v-9.25h.937v8.388h3.774v-8.354h.933l-.005 8.388zm12.365.842c-.121-.355-.243-.71-.359-1.07-.117-.36-.238-.716-.36-1.072h-3.943l-.724 2.142h-.972c.541-1.551 1.074-3.09 1.598-4.615.525-1.525 1.058-3.064 1.598-4.615h.972l3.21 9.25-1.02-.02zm-2.71-8.013c-.083.258-.194.618-.345 1.071-.15.453-.301.935-.486 1.431-.184.497-.32.974-.485 1.427l-.36 1.086h3.342a31.393 31.393 0 00-.345-1.086c-.151-.453-.316-.93-.486-1.427l-.485-1.43a42.414 42.414 0 01-.345-1.072h-.005zm4.854 1.485c-.002-.35.054-.696.165-1.027a2.56 2.56 0 01.486-.867c.225-.252.501-.453.811-.589.356-.153.74-.227 1.127-.22h3.72v9.25h-.937v-4.06h-2.205a2.03 2.03 0 00-.51.069c-.175.045-.34.123-.486.229a1.7 1.7 0 00-.418.447 3.27 3.27 0 00-.32.73l-.729 2.566h-.971l.777-2.706c.091-.34.223-.667.393-.974a1.38 1.38 0 01.685-.594 1.945 1.945 0 01-1.219-.847 2.683 2.683 0 01-.369-1.407zm.894 0c-.009.26.043.518.15.755.093.202.233.38.408.516.183.137.391.236.612.292.248.063.502.094.758.092h2.55v-3.5h-2.618a1.88 1.88 0 00-1.35.487 1.763 1.763 0 00-.51 1.353v.005zm10.149 6.528v-9.25h.933v4.06h1.714c.164 0 .326-.018.486-.053.173-.036.337-.104.486-.2a1.69 1.69 0 00.437-.423c.149-.22.265-.462.345-.716l.884-2.668h.888l-.84 2.654c-.12.405-.302.79-.539 1.139a1.53 1.53 0 01-.796.613c.38.087.712.318.927.643.228.362.401.756.515 1.168l.908 3.014h-.971l-.889-2.834a2.662 2.662 0 00-.32-.744 1.548 1.548 0 00-.413-.448 1.28 1.28 0 00-.486-.224 2.329 2.329 0 00-.52-.059h-1.821v4.353l-.928-.025zm14.091-2.984c.007.438-.077.872-.247 1.276-.157.369-.391.7-.685.973a3.108 3.108 0 01-1.054.619c-.43.145-.882.217-1.336.214a3.958 3.958 0 01-1.355-.224 3.01 3.01 0 01-1.039-.623 2.738 2.738 0 01-.675-.974 3.246 3.246 0 01-.238-1.28v-3.233a3.267 3.267 0 01.233-1.251 2.72 2.72 0 01.665-.974 2.99 2.99 0 011.049-.638 3.877 3.877 0 011.36-.228c.459-.005.914.072 1.346.228.39.14.749.356 1.054.638.294.271.526.604.68.974.164.396.246.822.242 1.251v3.252zm-.937-3.11a2.623 2.623 0 00-.194-1.062 2.06 2.06 0 00-.52-.73 2.238 2.238 0 00-.758-.429 2.903 2.903 0 00-.908-.141 3.03 3.03 0 00-.927.141c-.28.09-.537.235-.758.429a2.033 2.033 0 00-.486.73 2.712 2.712 0 00-.189 1.061v2.99c-.01.367.059.732.204 1.07.12.28.303.528.534.726.224.187.483.328.763.414a3.174 3.174 0 001.797 0 1.94 1.94 0 00.752-.424c.224-.202.4-.451.515-.73a2.57 2.57 0 00.194-1.057l-.019-2.989zm6.682 3.495l3.142-6.631h.869v9.25h-.932V49.4h-.044l-2.7 5.613h-.734l-2.729-5.496h-.054l-.053 6.913h-.933v-9.25h.909l3.205 6.63.054-.004zm11.312 2.599v-8.373h-4.76v8.373h-.933v-9.25h6.654v9.25h-.961zm8.398 0c-.127-.355-.248-.71-.36-1.07-.112-.36-.238-.716-.364-1.072h-3.944l-.719 2.142h-.971c.534-1.551 1.067-3.09 1.598-4.615.531-1.525 1.063-3.064 1.598-4.615h.971l3.21 9.25-1.019-.02zm-2.715-8.013c-.078.258-.195.618-.34 1.071-.146.453-.302.935-.486 1.431-.185.497-.326.974-.486 1.427-.16.453-.272.818-.364 1.086h3.346a52.48 52.48 0 00-.349-1.086c-.151-.453-.311-.93-.486-1.427-.175-.496-.33-.973-.486-1.43-.155-.459-.267-.814-.349-1.072zm10.466 8.013v-4.26h-4.759v4.26h-.909v-9.25h.933v4.114h4.76v-4.094h.971v9.25l-.996-.02zm3.598-1.645l1.671-2.575 3.274-5.01h.922v9.25h-.932v-7.643h-.053l-1.778 2.745-3.186 4.869h-.928v-9.25h.938v7.585l.072.029zm7.583-4.883c-.002-.35.054-.696.165-1.027.104-.318.269-.613.485-.867.224-.251.499-.452.807-.589a2.734 2.734 0 011.122-.22h3.725v9.25h-.938v-4.06h-2.205a2.029 2.029 0 00-.485.069c-.175.045-.34.123-.486.229a1.633 1.633 0 00-.418.447 3.27 3.27 0 00-.32.73l-.748 2.586h-.947l.772-2.707c.095-.338.227-.664.393-.974a1.42 1.42 0 01.685-.603 1.944 1.944 0 01-1.219-.847 2.678 2.678 0 01-.388-1.417zm.893 0c-.007.26.043.517.146.755.092.202.232.38.408.516.185.136.394.235.617.292.246.064.499.095.753.092h2.554v-3.5h-2.618a1.868 1.868 0 00-1.35.487 1.774 1.774 0 00-.51 1.353v.005z" fill="#fff"/><path fill-rule="evenodd" clip-rule="evenodd" d="M115.905 16.923h4.886c.864 0 1.559.973 1.559 2.176v11.31c0 1.197-.695 2.17-1.559 2.17h-4.886c-.855 0-1.559-.973-1.559-2.17v-11.31c0-1.198.704-2.176 1.559-2.176zm16.547-5.842h8.854c-.725.279-.953.81-.685 1.596l5.202 12.064 5.304-12.23c.306-.554 0-1.022-.811-1.43h8.791c-1.074.52-1.613 1.947-1.613 4.303V34.46c.141 1.918.593 3.407 1.618 4.05h-9.034c.84-.487 1.423-1.665 1.646-3.744V24.084l-5.911 14.454-5.828-14.454v10.915c.199 1.611.632 2.838 1.501 3.51h-8.942a4.678 4.678 0 001.506-3.646V15.219c-.044-2.074-.544-3.486-1.598-4.134v-.005zm-20.078.029a3.816 3.816 0 00-2.69 1.115 3.832 3.832 0 00-1.123 2.692v19.766a3.832 3.832 0 001.123 2.691 3.816 3.816 0 002.69 1.116h11.962a3.809 3.809 0 002.691-1.114 3.825 3.825 0 001.122-2.693V14.922a3.825 3.825 0 00-1.122-2.693 3.807 3.807 0 00-2.691-1.114l-11.962-.005zm58.438 5.813h4.886c.855 0 1.564.973 1.564 2.176v11.31c0 1.197-.709 2.17-1.564 2.17h-4.886c-.86 0-1.559-.973-1.559-2.17v-11.31c0-1.198.699-2.176 1.559-2.176zm-3.531-5.808a3.816 3.816 0 00-2.69 1.115 3.831 3.831 0 00-1.123 2.692v19.765a3.831 3.831 0 001.123 2.692 3.816 3.816 0 002.69 1.116h11.938a3.811 3.811 0 002.689-1.116 3.832 3.832 0 001.124-2.692V14.922a3.832 3.832 0 00-1.124-2.692 3.811 3.811 0 00-2.689-1.115h-11.938zm20.166-.05h9.038c-1.059.712-1.515 1.831-1.564 3.238l.034 18.267h5.785V14.556c0-1.622-.538-2.79-1.613-3.5h9.185c-1.02.487-1.584 1.617-1.681 3.355V32.56h5.872V14.036c-.207-1.38-.722-2.373-1.544-2.98h8.999c-1.01.726-1.457 1.913-1.549 3.408v20.589c.155 1.538.578 2.809 1.574 3.495-2.827-.068-5.319 2.176-7.533 5.954v-5.978h-23.478V14.118c-.2-1.64-.787-2.585-1.525-3.052zm36.426 0h9.082c-.971.541-1.418 1.622-1.607 2.951v4.869l8.227-.035c2.914.487 4.857 2.02 5.421 5.025v8.977c-.214 3.414-2.264 5.321-6.149 5.72h-14.945c.714-.837 1.244-2.205 1.574-4.094V14.065a4.05 4.05 0 00-1.574-3.009l-.029.01zm7.455 13.632v7.887h5.94c1.171-.068 1.836-.788 1.967-2.166V26.96c0-1.567-.971-2.142-2.428-2.264h-5.479zM102.179 11.436H82.723V38.81h5.794V17.244h7.858V38.81h5.795V11.436h.009z" fill="#fff"/></svg>