<svg width="86" height="29" fill="none" xmlns="http://www.w3.org/2000/svg"><path d="M21.066 15.788v-2.151L27.31 7.63h-3.42v1.58h-2.325V5.572h9.8v2.136l-6.242 6.021h3.995V11.98h2.247v3.808h-10.3zm23.722-2.368v2.368h-4.9v-.82a4.64 4.64 0 01-2.778.96 4.11 4.11 0 01-2.621-.868 2.695 2.695 0 01-.828-1.037 2.86 2.86 0 01-.265-1.3c0-.48.094-.944.297-1.378.203-.433.5-.804.858-1.099.765-.665 1.764-1.006 2.996-1.006.687 0 1.467.17 2.341.527v-.635c0-.232-.03-.48-.125-.697a1.896 1.896 0 00-.405-.588c-.36-.34-.827-.51-1.42-.51a2.525 2.525 0 00-1.873.804l-2.622-.48c.75-1.625 2.403-2.43 4.931-2.43.984 0 1.795.109 2.435.341.64.217 1.124.51 1.436.851.312.34.53.728.67 1.161.126.418.188 1.1.188 2.059v3.746l1.685.03zm-4.9-1.424c-.78-.496-1.42-.743-1.888-.743a1.72 1.72 0 00-1.014.325.998.998 0 00-.344.418c-.078.17-.109.356-.109.541 0 .356.125.712.374.96.125.14.266.232.438.31a.988.988 0 00.514.092c.61 0 1.28-.356 2.045-1.068v-.835h-.016zm6.772 3.792v-2.337h1.654V2.337H46.66V0h4.932v10.417l3.527-2.833h-2.17v-1.95h6.212v2.059h-1.03l-2.997 2.538 2.747 3.22h1.435v2.337h-3.168l-4.54-5.37v3.141h1.248v2.23H46.66zm19.353.155c-1.53 0-2.825-.48-3.886-1.424s-1.576-2.26-1.592-3.916c0-1.656.53-2.957 1.592-3.916 1.077-.944 2.357-1.424 3.886-1.424 1.545 0 2.84.48 3.886 1.424 1.045.944 1.576 2.26 1.576 3.916 0 1.64-.515 2.94-1.56 3.9-1.046.96-2.342 1.44-3.902 1.44zm-.016-2.523a1.843 1.843 0 001.498-.697c.375-.464.578-1.192.578-2.182 0-.867-.188-1.548-.562-2.043a2.057 2.057 0 00-.655-.558 2.02 2.02 0 00-.843-.185c-1.358 0-2.045.975-2.045 2.91 0 .79.172 1.44.516 1.966.327.526.842.789 1.513.789zm6.882-5.603v-2.4h4.9v.96c.999-.743 2.013-1.13 3.043-1.13 2.091 0 3.137 1.331 3.137 4.009v4.133h1.56v2.399h-4.884V9.504c0-.558-.078-.945-.234-1.146-.156-.201-.406-.31-.75-.31-.608 0-1.248.233-1.888.682v4.674h1.592v2.384H72.88v-2.4h1.592v-5.57H72.88zM28.448 26.252v2.383h-7.382v-2.384h1.936v-5.587h-1.826v-2.4h4.884v2.632a3.725 3.725 0 011.28-1.966 3.556 3.556 0 012.372-.836c.14 0 .328 0 .546.016v3.127a6.718 6.718 0 00-2.075.278c-.53.186-.983.588-1.327 1.223a4.425 4.425 0 00-.515 2.229v1.269h2.107v.015zm16.029 0v2.383h-4.932v-.882c-.983.697-1.982 1.037-2.996 1.037-.999 0-1.764-.279-2.325-.836-.562-.557-.843-1.346-.843-2.384v-4.922h-1.545v-2.383h4.807v6.47c0 .51.078.867.234 1.052.156.186.437.294.842.294.547 0 1.155-.247 1.81-.743v-4.674h-1.576v-2.4h4.854v7.988h1.67z" fill="#2F2C27"/><path d="M15.637 26.113c-.265-2.245-1.28-4.907-3.34-7.631-.327.371-.686.727-1.045 1.099-.484.48-.952.975-1.373 1.501 1.326 1.889 1.982 3.638 2.216 5.015H5.54c.343-2.012 1.56-4.798 4.51-7.708 3.59-3.576 5.213-7.213 5.571-10.138h2.014V5.728H0V8.25h2.013c.281 2.229 1.295 4.89 3.34 7.584.328-.372.67-.728 1.03-1.084.484-.48.952-.99 1.389-1.516-1.296-1.873-1.967-3.607-2.216-4.984h6.539c-.36 2.012-1.608 4.829-4.51 7.692-3.621 3.591-5.213 7.244-5.572 10.17H0v2.523h17.635v-2.523h-1.998z" fill="url(#paint0_linear)"/><defs><linearGradient id="paint0_linear" x1="15.269" y1="8.931" x2="2.655" y2="25.329" gradientUnits="userSpaceOnUse"><stop stop-color="#46C1F1"/><stop offset="1" stop-color="#2D4191"/></linearGradient></defs></svg>