<svg width="138" height="15" fill="none" xmlns="http://www.w3.org/2000/svg"><path d="M14.453 14.5h-3.73a82.706 82.706 0 00-2.246-3.36 74.5 74.5 0 00-2.168-2.92H4.893v4.395c0 .228.035.43.107.606.072.169.225.3.459.39.117.046.322.088.615.127.293.04.54.062.742.069v.693H.957v-.693c.156-.013.38-.036.674-.069.3-.032.508-.075.625-.127a.817.817 0 00.42-.37c.09-.163.136-.372.136-.626V2.595c0-.227-.032-.429-.097-.605s-.218-.309-.46-.4a3.923 3.923 0 00-.634-.156 5.463 5.463 0 00-.664-.098V.643h6.397c.585 0 1.136.061 1.65.185.514.117.98.31 1.396.576.404.26.726.603.967 1.026.241.416.361.92.361 1.513 0 .534-.08 1.006-.244 1.416-.162.41-.403.765-.722 1.065a4.39 4.39 0 01-1.055.732c-.41.202-.863.375-1.357.518.683.905 1.25 1.666 1.699 2.285.456.619 1.012 1.37 1.67 2.256.286.39.543.68.771.869.235.182.466.332.694.45.169.084.38.149.634.194.254.046.466.072.635.079v.693zM9.316 4.168c0-.84-.24-1.504-.722-1.992-.482-.495-1.162-.742-2.041-.742h-1.66V7.38h1.279c.898 0 1.647-.287 2.246-.86.599-.579.898-1.363.898-2.353zm19.698-2.832a5.32 5.32 0 00-.801.117c-.352.072-.638.18-.86.322-.22.15-.374.46-.459.928-.084.469-.126 1.042-.126 1.719v6.025c0 .769-.16 1.436-.479 2.002a4.19 4.19 0 01-1.26 1.397 5.211 5.211 0 01-1.63.752 6.13 6.13 0 01-1.631.234c-.834 0-1.576-.11-2.227-.332-.651-.215-1.198-.508-1.64-.879a3.73 3.73 0 01-.987-1.27 3.562 3.562 0 01-.332-1.503V2.654c0-.228-.039-.416-.117-.566-.072-.156-.221-.3-.45-.43a2.184 2.184 0 00-.624-.215 4.492 4.492 0 00-.625-.107V.643h5.771v.693a4.888 4.888 0 00-.693.088c-.274.052-.476.1-.606.146-.221.078-.37.209-.449.39a1.616 1.616 0 00-.107.597v7.656c0 .371.039.762.117 1.172.085.403.247.781.488 1.133.254.358.6.65 1.035.878.437.228 1.035.342 1.797.342.716 0 1.315-.114 1.797-.341.488-.228.872-.528 1.152-.899a3.36 3.36 0 00.567-1.103c.11-.385.166-.772.166-1.163V4.55c0-.723-.052-1.312-.156-1.768-.105-.462-.258-.765-.46-.908-.227-.163-.54-.29-.937-.38a5.917 5.917 0 00-.898-.157V.643h5.664v.693zm9.746 6.807c.293.325.508.683.644 1.074.143.384.215.833.215 1.348 0 1.223-.452 2.232-1.357 3.027-.905.794-2.028 1.191-3.37 1.191a6.326 6.326 0 01-1.855-.283 7.315 7.315 0 01-1.601-.703l-.42.713h-.782l-.136-4.746h.79c.163.586.352 1.116.567 1.591a5.7 5.7 0 00.87 1.319c.338.384.732.69 1.18.918.457.228.984.342 1.583.342.45 0 .84-.059 1.172-.176.338-.117.612-.283.82-.498a1.99 1.99 0 00.46-.752c.103-.293.155-.628.155-1.006 0-.553-.156-1.068-.468-1.543-.313-.482-.778-.846-1.397-1.094a56.067 56.067 0 00-1.455-.556 23.45 23.45 0 01-1.416-.586c-.781-.352-1.39-.81-1.826-1.377-.43-.573-.645-1.319-.645-2.237 0-.527.108-1.019.323-1.474a3.8 3.8 0 01.918-1.22 4.093 4.093 0 011.337-.792A4.5 4.5 0 0134.678.33c.638 0 1.207.098 1.709.293.508.195.97.423 1.386.684l.4-.664h.782l.078 4.6h-.79a16.473 16.473 0 00-.49-1.514 5.229 5.229 0 00-.693-1.31 3.15 3.15 0 00-1.025-.898c-.403-.227-.898-.341-1.484-.341-.619 0-1.146.198-1.582.595-.436.398-.654.883-.654 1.455 0 .6.14 1.097.42 1.495.28.39.686.713 1.22.966.475.228.94.427 1.397.596.462.163.908.339 1.338.527.39.17.764.362 1.123.577.364.214.68.465.947.752zm12.431-.098a3.39 3.39 0 011.006 1.074c.267.443.4.98.4 1.611 0 .645-.14 1.205-.42 1.68-.28.475-.644.866-1.093 1.172a5 5 0 01-1.484.684 6.153 6.153 0 01-1.7.234h-6.562v-.693c.156-.013.384-.04.684-.079.299-.045.514-.097.644-.156a.886.886 0 00.43-.361 1.25 1.25 0 00.127-.596v-9.96c0-.222-.04-.417-.117-.587-.072-.169-.219-.306-.44-.41a2.763 2.763 0 00-.654-.224 4.754 4.754 0 00-.606-.098V.643h6.397c.495 0 .967.048 1.416.146.456.098.888.27 1.299.518.384.228.7.537.947.927.247.391.37.866.37 1.426 0 .488-.087.925-.263 1.309a2.866 2.866 0 01-.742.976c-.3.26-.645.482-1.035.664-.384.176-.8.313-1.25.41v.088c.397.046.84.147 1.328.303.495.15.934.361 1.318.635zm-2.353-2.09c.24-.28.407-.586.498-.918.098-.332.146-.726.146-1.182 0-.761-.208-1.357-.625-1.787-.416-.436-1.074-.654-1.972-.654-.209 0-.472.007-.791.02a85.83 85.83 0 00-.791.02v5.321h1.24c.534 0 .99-.068 1.367-.205.384-.136.694-.341.928-.615zm1.347 4.424c0-.82-.276-1.494-.83-2.022-.546-.527-1.33-.79-2.353-.79-.417 0-.768.006-1.055.019-.286.006-.501.013-.644.02v4.882c0 .41.166.72.498.928.332.208.794.313 1.386.313.97 0 1.713-.284 2.227-.85.514-.566.771-1.4.771-2.5zM67.373 14.5h-5.771v-.693c.507-.033.927-.098 1.26-.196.338-.097.507-.218.507-.361a1.452 1.452 0 00-.078-.44l-1.152-3.105h-4.854a27.43 27.43 0 00-.45 1.191l-.302.938c-.084.28-.143.508-.176.684a2.469 2.469 0 00-.048.43c0 .26.205.461.615.605.41.143.872.228 1.386.254v.693h-5.214v-.693c.169-.013.38-.05.635-.108.253-.065.462-.15.624-.254.26-.175.463-.358.606-.547.143-.195.283-.462.42-.8a548.886 548.886 0 002.304-5.86c.84-2.168 1.59-4.098 2.247-5.79h.78l4.62 11.952c.098.254.208.46.332.616.124.156.296.309.518.459.15.09.345.169.586.234.24.059.442.091.605.098v.693zm-5.586-5.664l-2.1-5.371-2.06 5.37h4.16zm20.303-7.5c-.182.006-.462.059-.84.156-.378.098-.648.199-.81.303-.235.163-.394.475-.48.937-.077.463-.116 1.049-.116 1.758v10.147h-.85L70.596 3.299v7.148c0 .801.048 1.416.146 1.846.104.43.26.736.469.918.15.143.459.277.928.4.468.124.778.19.927.196v.693h-5.683v-.693c.176-.013.472-.075.889-.186.416-.117.677-.221.78-.312.229-.183.385-.46.47-.83.084-.378.126-1.02.126-1.924V3.729c0-.3-.052-.6-.156-.899-.104-.3-.244-.53-.42-.693-.234-.215-.553-.397-.957-.547-.397-.156-.72-.241-.967-.254V.643h3.956l7.793 10.566V4.617c0-.807-.053-1.426-.157-1.855-.104-.436-.254-.726-.449-.87-.182-.123-.482-.244-.898-.36-.41-.118-.723-.183-.938-.196V.643h5.635v.693zM96.67 14.5h-3.887a40.723 40.723 0 00-2.5-3.447 55.7 55.7 0 00-2.87-3.33h-.255v4.824c0 .215.04.407.117.576.085.17.235.306.45.41.104.046.296.101.576.166.286.065.524.101.713.108v.693h-5.752v-.693l.654-.059c.287-.026.488-.065.606-.117a.818.818 0 00.42-.371 1.26 1.26 0 00.136-.606v-10c0-.221-.039-.413-.117-.576-.072-.163-.218-.296-.44-.4a3.634 3.634 0 00-.624-.225 3.41 3.41 0 00-.635-.117V.643h5.752v.693c-.183.006-.41.036-.684.088-.273.052-.475.1-.605.146-.222.078-.371.209-.45.39a1.507 1.507 0 00-.117.597v4.785h.195a42.42 42.42 0 001.729-1.543c.566-.54 1.08-1.078 1.543-1.612.514-.592.889-1.064 1.123-1.416.24-.358.361-.673.361-.947 0-.097-.061-.176-.185-.234a1.684 1.684 0 00-.41-.156 3.014 3.014 0 00-.489-.069 18.88 18.88 0 00-.351-.03V.644h5.195v.693c-.02 0-.062.003-.127.01l-.224.02a1.962 1.962 0 00-.274.038c-.091.02-.208.043-.351.069a3.49 3.49 0 00-.713.254c-.241.11-.44.25-.596.42-.67.761-1.37 1.549-2.1 2.363a35.521 35.521 0 01-2.168 2.226 77.824 77.824 0 012.452 2.891c.65.807 1.34 1.67 2.07 2.588.28.351.56.635.84.85.28.208.52.364.722.468.17.085.381.15.635.196.254.045.466.071.635.078v.693zm13.935 0h-3.73a83.468 83.468 0 00-2.246-3.36 74.694 74.694 0 00-2.168-2.92h-1.416v4.395c0 .228.036.43.107.606.072.169.225.3.459.39.118.046.323.088.616.127.293.04.54.062.742.069v.693h-5.86v-.693c.157-.013.381-.036.674-.069.3-.032.508-.075.625-.127a.817.817 0 00.42-.37c.091-.163.137-.372.137-.626V2.595c0-.227-.033-.429-.098-.605s-.218-.309-.459-.4a3.922 3.922 0 00-.635-.156 5.462 5.462 0 00-.664-.098V.643h6.397c.586 0 1.136.061 1.65.185.515.117.98.31 1.397.576.403.26.726.603.967 1.026.24.416.361.92.361 1.513 0 .534-.082 1.006-.244 1.416a2.93 2.93 0 01-.723 1.065c-.293.28-.644.524-1.055.732a8.24 8.24 0 01-1.357.518c.684.905 1.25 1.666 1.699 2.285.456.619 1.013 1.37 1.67 2.256.287.39.544.68.772.869.234.182.465.332.693.45.169.084.381.149.635.194.254.046.465.072.634.079v.693zm-5.136-10.332c0-.84-.241-1.504-.723-1.992-.482-.495-1.162-.742-2.041-.742h-1.66V7.38h1.279c.899 0 1.647-.287 2.246-.86.599-.579.899-1.363.899-2.353zm16.875-1.885c.612.638 1.09 1.41 1.435 2.315.345.898.518 1.894.518 2.988 0 1.1-.176 2.1-.527 2.998-.352.898-.84 1.663-1.465 2.295a6.356 6.356 0 01-2.11 1.445c-.8.339-1.653.508-2.558.508a6.613 6.613 0 01-2.676-.537 6.264 6.264 0 01-2.1-1.514c-.586-.631-1.048-1.396-1.386-2.295a8.355 8.355 0 01-.498-2.9c0-1.126.175-2.129.527-3.008a6.991 6.991 0 011.455-2.295 6.298 6.298 0 012.129-1.465 6.571 6.571 0 012.549-.507 6.58 6.58 0 012.597.517c.814.345 1.517.83 2.11 1.455zm-1.455 9.824a6.419 6.419 0 00.791-2.011 11.43 11.43 0 00.254-2.51c0-.95-.095-1.823-.284-2.617-.182-.795-.452-1.472-.81-2.032a3.855 3.855 0 00-1.348-1.289c-.54-.312-1.159-.468-1.855-.468-.782 0-1.446.179-1.992.537a4.172 4.172 0 00-1.338 1.435c-.326.573-.57 1.244-.733 2.012a12.148 12.148 0 00-.234 2.422c0 .937.084 1.784.254 2.539.169.755.436 1.426.801 2.012a3.981 3.981 0 001.328 1.347c.534.32 1.172.479 1.914.479.696 0 1.325-.163 1.884-.488a3.825 3.825 0 001.368-1.368zm16.406-7.705h-.674a4.388 4.388 0 00-.322-.83 6.927 6.927 0 00-.508-.918c-.195-.3-.41-.56-.645-.78-.227-.229-.449-.359-.664-.392a9.137 9.137 0 00-.761-.058c-.306-.013-.589-.02-.85-.02h-.566v11.084c0 .215.045.414.136.596.092.176.251.313.479.41.117.046.361.108.732.186a5.6 5.6 0 00.879.127v.693h-6.543v-.693c.183-.013.459-.04.83-.079.378-.038.638-.087.782-.146.214-.085.371-.205.468-.361.105-.163.157-.378.157-.645V1.404h-.567c-.202 0-.452.007-.752.02a8.906 8.906 0 00-.859.058c-.215.026-.44.157-.674.391a5.137 5.137 0 00-.635.781 6.47 6.47 0 00-.517.938 5.49 5.49 0 00-.313.81h-.683V.642h12.07v3.76z" fill="#4F52FF"/></svg>