<svg width="136" height="25" fill="none" xmlns="http://www.w3.org/2000/svg"><g clip-path="url(#clip0)" fill-rule="evenodd" clip-rule="evenodd" fill="#7CCB56"><path d="M9.668 11.602V3.597h.706c.53 0 1.412-.086 1.412 2.311v3.34c0 2.397-.883 2.354-1.412 2.354h-.706zm-5.426 9.59H2.918v.684h9.618c2.338 0 4.765-.814 4.765-4.495 0-2.525-.927-4.923-4.545-5.265v-.3c1.765-.128 4.236-.942 4.236-4.494 0-4.025-3.22-4.453-4.28-4.453H2.919v.728h1.323v17.594zm5.426 0v-8.905h.706c.53 0 1.412-.043 1.412 2.354v4.194c0 2.398-.883 2.356-1.412 2.356h-.706zm9.88-17.595H18.18v-.728h12.177v6.807h-.441c-.575-6.036-3.663-6.08-4.633-6.08h-.353v8.348h.265c1.764 0 2.47-2.14 2.382-4.066h.485v8.775h-.485c.088-1.926-.618-4.024-2.383-4.024h-.264v8.562c3.706.086 4.986-3.254 5.294-6.635h.485v7.32H18.18v-.685h1.369V3.597zm17.695 0v17.594h-3.574c1.588-2.268 1.765-5.565 1.765-10.274V5.14c0-1.499.485-1.542.882-1.542h.927zm-4.103-.728v.728h.706c.44 0 1.059.086 1.059 1.755v5.566c0 7.705-1.103 10.274-2.824 10.274h-.265V25h.442c.088-2.824 1.147-3.124 3.485-3.124h4.676c2.34 0 3.398.3 3.486 3.124h.441v-3.81H42.67V3.597h1.323v-.728H33.14z"/><path d="M49.86 4.923c0-1.198.398-1.712 1.06-1.712.617 0 1.058.514 1.058 1.712v14.984c0 1.155-.44 1.67-1.059 1.67-.661 0-1.058-.515-1.058-1.67V4.923zm-5.735 7.492c0 4.709 2.294 9.887 6.794 9.887s6.75-5.178 6.75-9.887c0-4.752-2.25-9.932-6.75-9.932s-6.794 5.18-6.794 9.932zM60.05 5.053h-.043v13.783c0 2.142.75 2.355 1.367 2.355h.353v.686H58.11v-.686c.574.042 1.368-.257 1.368-2.355V3.597H58.11v-.728h6.795l1.72 7.749h.088l1.765-7.749h6.794v.728h-1.323v17.594h1.324v.686h-8.075v-.686h1.324V5.14h-.088l-3.839 16.738h-.75L60.052 5.053zm21.575-.13c0-1.198.441-1.712 1.059-1.712.662 0 1.058.514 1.058 1.712v14.984c0 1.155-.396 1.67-1.058 1.67-.618 0-1.059-.515-1.059-1.67V4.923zm-5.691 7.492c0 4.709 2.25 9.887 6.75 9.887 4.499 0 6.794-5.178 6.794-9.887 0-4.752-2.295-9.932-6.794-9.932-4.5 0-6.75 5.18-6.75 9.932zm26.733-3.297h-.485c-.441-3.082-1.985-5.479-3.75-5.479-1.942 0-2.03 2.783-2.03 4.11v8.775c0 .856.045 4.109 2.25 4.109 2.471 0 3.442-3.296 3.795-5.822l.441.129c-.397 3.168-1.632 7.362-5.427 7.362-4.544 0-6.75-5.393-6.75-9.93 0-5.437 2.736-9.89 6.75-9.89.795 0 1.985.258 3.089 1.242l1.456-1.67h.441l.22 7.064zm5.032-5.521c-2.515.214-3.398 4.024-3.574 6.079h-.441V2.869h13.456v6.807h-.486c-.176-2.055-1.059-5.865-3.531-6.08v17.595h1.589v.686h-8.648v-.686h1.633V3.597h.002zm17.12 12.543h.087l2.029-11.259V3.597h-.661v-.728h7.411v.728h-1.323V21.19h1.323v.686h-7.411v-.686h.661V7.878h-.087l-2.029 11.215v2.098h.662v.686h-7.415v-.686h1.326V3.597h-1.326v-.728h7.415v.728h-.662V16.14z"/></g><defs><clipPath id="clip0"><path fill="#fff" d="M0 0h136v25H0z"/></clipPath></defs></svg>