<svg width="238" height="238" fill="none" xmlns="http://www.w3.org/2000/svg"><g clip-path="url(#clip0)" fill="#fff"><path d="M238.004 34h-34v34h34V34zm-102.008 0h-34v34h34V34zM34 34H0v34h34V34zm136 170h-34v34h34v-34zm0-136h-34v34h34V68zM68 68H34v34h34V68zm34.004 68h-34v34h34v-34zM170 0h-34v34h34V0zm-34.004 102h-34v34h34v-34zM34 102H0v34h34v-34zm0 68H0v34h34v-34zm34-34H34v34h34v-34zm-34 68H0v34h34v-34zm34-34H34v34h34v-34zm34.004 34h-34v34h34v-34zM68 102H34v34h34v-34zm67.996 68h-34v34h34v-34z"/></g><defs><clipPath id="clip0"><path fill="#fff" d="M0 0h238v238H0z"/></clipPath></defs></svg>