<svg width="138" height="15" viewBox="0 0 138 15" fill="none" xmlns="http://www.w3.org/2000/svg">
<g style="mix-blend-mode:color-burn">
<path d="M14.4531 14.5H10.7227C9.89583 13.2044 9.14714 12.0846 8.47656 11.1406C7.8125 10.1966 7.08984 9.22331 6.30859 8.2207H4.89258V12.6152C4.89258 12.8431 4.92839 13.0449 5 13.2207C5.07161 13.39 5.22461 13.5202 5.45898 13.6113C5.57617 13.6569 5.78125 13.6992 6.07422 13.7383C6.36719 13.7773 6.61458 13.8001 6.81641 13.8066V14.5H0.957031V13.8066C1.11328 13.7936 1.33789 13.7708 1.63086 13.7383C1.93034 13.7057 2.13867 13.6634 2.25586 13.6113C2.45117 13.5267 2.59115 13.403 2.67578 13.2402C2.76693 13.0775 2.8125 12.8691 2.8125 12.6152V2.5957C2.8125 2.36784 2.77995 2.16602 2.71484 1.99023C2.64974 1.81445 2.49674 1.68099 2.25586 1.58984C2.0931 1.53125 1.88151 1.47917 1.62109 1.43359C1.36068 1.38151 1.13932 1.34896 0.957031 1.33594V0.642578H7.35352C7.93945 0.642578 8.48958 0.704427 9.00391 0.828125C9.51823 0.945312 9.98372 1.13737 10.4004 1.4043C10.804 1.66471 11.1263 2.00651 11.3672 2.42969C11.6081 2.84635 11.7285 3.35091 11.7285 3.94336C11.7285 4.47721 11.6471 4.94922 11.4844 5.35938C11.3216 5.76953 11.0807 6.12435 10.7617 6.42383C10.4688 6.70378 10.1172 6.94792 9.70703 7.15625C9.29688 7.35807 8.8444 7.5306 8.34961 7.67383C9.0332 8.57878 9.59961 9.34049 10.0488 9.95898C10.5046 10.5775 11.0612 11.3294 11.7188 12.2148C12.0052 12.6055 12.2624 12.8952 12.4902 13.084C12.7246 13.2663 12.9557 13.416 13.1836 13.5332C13.3529 13.6178 13.5645 13.6829 13.8184 13.7285C14.0723 13.7741 14.2839 13.8001 14.4531 13.8066V14.5ZM9.31641 4.16797C9.31641 3.32812 9.07552 2.66406 8.59375 2.17578C8.11198 1.68099 7.43164 1.43359 6.55273 1.43359H4.89258V7.38086H6.17188C7.07031 7.38086 7.81901 7.0944 8.41797 6.52148C9.01693 5.94206 9.31641 5.15755 9.31641 4.16797ZM29.0137 1.33594C28.8314 1.34245 28.5645 1.38151 28.2129 1.45312C27.8613 1.52474 27.5749 1.63216 27.3535 1.77539C27.1322 1.92513 26.9792 2.23438 26.8945 2.70312C26.8099 3.17188 26.7676 3.74479 26.7676 4.42188V10.4473C26.7676 11.2155 26.6081 11.8828 26.2891 12.4492C25.9701 13.0156 25.5501 13.4811 25.0293 13.8457C24.515 14.1973 23.9714 14.4479 23.3984 14.5977C22.832 14.7539 22.2884 14.832 21.7676 14.832C20.9342 14.832 20.1921 14.7214 19.541 14.5C18.89 14.2852 18.3431 13.9922 17.9004 13.6211C17.4642 13.25 17.1354 12.8268 16.9141 12.3516C16.6927 11.8698 16.582 11.3685 16.582 10.8477V2.6543C16.582 2.42643 16.543 2.23763 16.4648 2.08789C16.3932 1.93164 16.2435 1.78841 16.0156 1.6582C15.8529 1.56706 15.6445 1.49544 15.3906 1.44336C15.1367 1.38477 14.9284 1.34896 14.7656 1.33594V0.642578H20.5371V1.33594C20.3548 1.34245 20.1237 1.37174 19.8438 1.42383C19.5703 1.47591 19.3685 1.52474 19.2383 1.57031C19.0169 1.64844 18.8672 1.77865 18.7891 1.96094C18.7174 2.14323 18.6816 2.3418 18.6816 2.55664V10.2129C18.6816 10.584 18.7207 10.9746 18.7988 11.3848C18.8835 11.7884 19.0462 12.166 19.2871 12.5176C19.541 12.8757 19.8861 13.1686 20.3223 13.3965C20.7585 13.6243 21.3574 13.7383 22.1191 13.7383C22.8353 13.7383 23.4342 13.6243 23.916 13.3965C24.4043 13.1686 24.7884 12.8691 25.0684 12.498C25.3353 12.1465 25.5241 11.7786 25.6348 11.3945C25.7454 11.0104 25.8008 10.623 25.8008 10.2324V4.54883C25.8008 3.82617 25.7487 3.23698 25.6445 2.78125C25.5404 2.31901 25.3874 2.01628 25.1855 1.87305C24.9577 1.71029 24.6452 1.58333 24.248 1.49219C23.8574 1.40104 23.5579 1.34896 23.3496 1.33594V0.642578H29.0137V1.33594ZM38.7598 8.14258C39.0527 8.4681 39.2676 8.82617 39.4043 9.2168C39.5475 9.60091 39.6191 10.0501 39.6191 10.5645C39.6191 11.7884 39.1667 12.7975 38.2617 13.5918C37.3568 14.3861 36.2337 14.7832 34.8926 14.7832C34.2741 14.7832 33.6556 14.6888 33.0371 14.5C32.4186 14.3047 31.8848 14.0703 31.4355 13.7969L31.0156 14.5098H30.2344L30.0977 9.76367H30.8887C31.0514 10.3496 31.2402 10.8802 31.4551 11.3555C31.6764 11.8242 31.9661 12.2637 32.3242 12.6738C32.6628 13.0579 33.0566 13.3639 33.5059 13.5918C33.9616 13.8197 34.4889 13.9336 35.0879 13.9336C35.5371 13.9336 35.9277 13.875 36.2598 13.7578C36.5983 13.6406 36.8717 13.4746 37.0801 13.2598C37.2884 13.0449 37.4414 12.7943 37.5391 12.5078C37.6432 12.2148 37.6953 11.8796 37.6953 11.502C37.6953 10.9486 37.5391 10.4342 37.2266 9.95898C36.9141 9.47721 36.4486 9.11263 35.8301 8.86523C35.4069 8.69596 34.9219 8.51042 34.375 8.30859C33.8281 8.10026 33.3561 7.90495 32.959 7.72266C32.1777 7.37109 31.569 6.91211 31.1328 6.3457C30.7031 5.77279 30.4883 5.02734 30.4883 4.10938C30.4883 3.58203 30.5957 3.09049 30.8105 2.63477C31.0254 2.17904 31.3314 1.77214 31.7285 1.41406C32.1061 1.07552 32.5521 0.811849 33.0664 0.623047C33.5807 0.427734 34.1178 0.330078 34.6777 0.330078C35.3158 0.330078 35.8854 0.427734 36.3867 0.623047C36.8945 0.818359 37.3568 1.04622 37.7734 1.30664L38.1738 0.642578H38.9551L39.0332 5.24219H38.2422C38.099 4.71484 37.9362 4.21029 37.7539 3.72852C37.5781 3.24674 37.347 2.81055 37.0605 2.41992C36.7806 2.04232 36.4388 1.74284 36.0352 1.52148C35.6315 1.29362 35.1367 1.17969 34.5508 1.17969C33.9323 1.17969 33.4049 1.37826 32.9688 1.77539C32.5326 2.17253 32.3145 2.65755 32.3145 3.23047C32.3145 3.82943 32.4544 4.32747 32.7344 4.72461C33.0143 5.11523 33.4212 5.4375 33.9551 5.69141C34.4303 5.91927 34.8958 6.11784 35.3516 6.28711C35.8138 6.44987 36.2598 6.62565 36.6895 6.81445C37.0801 6.98372 37.4544 7.17578 37.8125 7.39062C38.1771 7.60547 38.4928 7.85612 38.7598 8.14258ZM51.1914 8.04492C51.5951 8.31836 51.9303 8.67643 52.1973 9.11914C52.4642 9.56185 52.5977 10.099 52.5977 10.7305C52.5977 11.375 52.4577 11.9349 52.1777 12.4102C51.8978 12.8854 51.5332 13.276 51.084 13.582C50.6478 13.8815 50.153 14.1094 49.5996 14.2656C49.0527 14.4219 48.4863 14.5 47.9004 14.5H41.3379V13.8066C41.4941 13.7936 41.722 13.7676 42.0215 13.7285C42.321 13.6829 42.5358 13.6309 42.666 13.5723C42.8678 13.4811 43.0111 13.3607 43.0957 13.2109C43.1803 13.0547 43.2227 12.8561 43.2227 12.6152V2.6543C43.2227 2.43294 43.1836 2.23763 43.1055 2.06836C43.0339 1.89909 42.8874 1.76237 42.666 1.6582C42.4707 1.56055 42.2526 1.48568 42.0117 1.43359C41.7708 1.38151 41.569 1.34896 41.4062 1.33594V0.642578H47.8027C48.2975 0.642578 48.7695 0.691406 49.2188 0.789062C49.6745 0.886719 50.1074 1.05924 50.5176 1.30664C50.9017 1.53451 51.2174 1.84375 51.4648 2.23438C51.7122 2.625 51.8359 3.10026 51.8359 3.66016C51.8359 4.14844 51.748 4.58464 51.5723 4.96875C51.3965 5.34635 51.1491 5.67188 50.8301 5.94531C50.5306 6.20573 50.1855 6.42708 49.7949 6.60938C49.4108 6.78516 48.9941 6.92188 48.5449 7.01953V7.10742C48.9421 7.15299 49.3848 7.25391 49.873 7.41016C50.3678 7.5599 50.8073 7.77148 51.1914 8.04492ZM48.8379 5.95508C49.0788 5.67513 49.2448 5.36914 49.3359 5.03711C49.4336 4.70508 49.4824 4.3112 49.4824 3.85547C49.4824 3.09375 49.2741 2.49805 48.8574 2.06836C48.4408 1.63216 47.7832 1.41406 46.8848 1.41406C46.6764 1.41406 46.4128 1.42057 46.0938 1.43359C45.7812 1.4401 45.5176 1.44661 45.3027 1.45312V6.77539H46.543C47.0768 6.77539 47.5326 6.70703 47.9102 6.57031C48.2943 6.43359 48.6035 6.22852 48.8379 5.95508ZM50.1855 10.3789C50.1855 9.55859 49.9089 8.88477 49.3555 8.35742C48.8086 7.83008 48.0241 7.56641 47.002 7.56641C46.5853 7.56641 46.2337 7.57292 45.9473 7.58594C45.6608 7.59245 45.446 7.59896 45.3027 7.60547V12.4883C45.3027 12.8984 45.4688 13.2077 45.8008 13.416C46.1328 13.6243 46.5951 13.7285 47.1875 13.7285C48.1576 13.7285 48.8997 13.4453 49.4141 12.8789C49.9284 12.3125 50.1855 11.4792 50.1855 10.3789ZM67.373 14.5H61.6016V13.8066C62.1094 13.7741 62.5293 13.709 62.8613 13.6113C63.1999 13.5137 63.3691 13.3932 63.3691 13.25C63.3691 13.1914 63.3626 13.1198 63.3496 13.0352C63.3366 12.9505 63.3171 12.8757 63.291 12.8105L62.1387 9.70508H57.2852C57.1029 10.1608 56.9531 10.5579 56.8359 10.8965C56.7253 11.235 56.6243 11.5475 56.5332 11.834C56.4486 12.1139 56.39 12.3418 56.3574 12.5176C56.3249 12.6934 56.3086 12.8366 56.3086 12.9473C56.3086 13.2077 56.5137 13.4095 56.9238 13.5527C57.334 13.696 57.7962 13.7806 58.3105 13.8066V14.5H53.0957V13.8066C53.265 13.7936 53.4766 13.7578 53.7305 13.6992C53.9844 13.6341 54.1927 13.5495 54.3555 13.4453C54.6159 13.2695 54.8177 13.0872 54.9609 12.8984C55.1042 12.7031 55.2441 12.4362 55.3809 12.0977C56.0775 10.3594 56.8457 8.40625 57.6855 6.23828C58.5254 4.07031 59.2741 2.13997 59.9316 0.447266H60.7129L65.332 12.4004C65.4297 12.6543 65.5404 12.8594 65.6641 13.0156C65.7878 13.1719 65.9603 13.3249 66.1816 13.4746C66.3314 13.5658 66.5267 13.6439 66.7676 13.709C67.0085 13.7676 67.2103 13.8001 67.373 13.8066V14.5ZM61.7871 8.83594L59.6875 3.46484L57.627 8.83594H61.7871ZM82.0898 1.33594C81.9076 1.34245 81.6276 1.39453 81.25 1.49219C80.8724 1.58984 80.6022 1.69076 80.4395 1.79492C80.2051 1.95768 80.0456 2.27018 79.9609 2.73242C79.8828 3.19466 79.8438 3.7806 79.8438 4.49023V14.6367H78.9941L70.5957 3.29883V10.4473C70.5957 11.248 70.6445 11.8633 70.7422 12.293C70.8464 12.7227 71.0026 13.0286 71.2109 13.2109C71.3607 13.3542 71.6699 13.4876 72.1387 13.6113C72.6074 13.735 72.9167 13.8001 73.0664 13.8066V14.5H67.3828V13.8066C67.5586 13.7936 67.8548 13.7318 68.2715 13.6211C68.6882 13.5039 68.9486 13.3997 69.0527 13.3086C69.2806 13.1263 69.4368 12.8496 69.5215 12.4785C69.6061 12.1009 69.6484 11.4596 69.6484 10.5547V3.72852C69.6484 3.42904 69.5964 3.12956 69.4922 2.83008C69.388 2.5306 69.248 2.29948 69.0723 2.13672C68.8379 1.92188 68.5189 1.73958 68.1152 1.58984C67.7181 1.43359 67.3958 1.34896 67.1484 1.33594V0.642578H71.1035L78.8965 11.209V4.61719C78.8965 3.8099 78.8444 3.19141 78.7402 2.76172C78.6361 2.32552 78.4863 2.03581 78.291 1.89258C78.1087 1.76888 77.8092 1.64844 77.3926 1.53125C76.9824 1.41406 76.6699 1.34896 76.4551 1.33594V0.642578H82.0898V1.33594ZM96.6699 14.5H92.7832C92.0345 13.3411 91.2012 12.1921 90.2832 11.0527C89.3717 9.9069 88.4147 8.79688 87.4121 7.72266H87.1582V12.5469C87.1582 12.7617 87.1973 12.9538 87.2754 13.123C87.36 13.2923 87.5098 13.429 87.7246 13.5332C87.8288 13.5788 88.0208 13.6341 88.3008 13.6992C88.5872 13.7643 88.8249 13.8001 89.0137 13.8066V14.5H83.2617V13.8066C83.4115 13.7936 83.6296 13.7741 83.916 13.748C84.2025 13.722 84.4043 13.6829 84.5215 13.6309C84.7168 13.5462 84.8568 13.4225 84.9414 13.2598C85.0326 13.0905 85.0781 12.8887 85.0781 12.6543V2.6543C85.0781 2.43294 85.0391 2.24089 84.9609 2.07812C84.8893 1.91536 84.7428 1.7819 84.5215 1.67773C84.3457 1.5931 84.1374 1.51823 83.8965 1.45312C83.6556 1.38802 83.444 1.34896 83.2617 1.33594V0.642578H89.0137V1.33594C88.8314 1.34245 88.6035 1.37174 88.3301 1.42383C88.0566 1.47591 87.8548 1.52474 87.7246 1.57031C87.5033 1.64844 87.3535 1.77865 87.2754 1.96094C87.1973 2.14323 87.1582 2.3418 87.1582 2.55664V7.3418H87.3535C87.9395 6.84701 88.5156 6.33268 89.082 5.79883C89.6484 5.25846 90.1628 4.72135 90.625 4.1875C91.1393 3.59505 91.5137 3.12305 91.748 2.77148C91.9889 2.41341 92.1094 2.09766 92.1094 1.82422C92.1094 1.72656 92.0475 1.64844 91.9238 1.58984C91.8066 1.52474 91.6699 1.47266 91.5137 1.43359C91.3314 1.39453 91.1686 1.37174 91.0254 1.36523C90.8822 1.35221 90.765 1.34245 90.6738 1.33594V0.642578H95.8691V1.33594C95.8496 1.33594 95.8073 1.33919 95.7422 1.3457C95.6771 1.35221 95.6022 1.35872 95.5176 1.36523C95.4264 1.37174 95.3353 1.38477 95.2441 1.4043C95.153 1.42383 95.0358 1.44661 94.8926 1.47266C94.6647 1.52474 94.4271 1.60938 94.1797 1.72656C93.9388 1.83724 93.7402 1.97721 93.584 2.14648C92.9134 2.9082 92.2135 3.69596 91.4844 4.50977C90.7552 5.32357 90.0326 6.06576 89.3164 6.73633C90.306 7.85612 91.123 8.81966 91.7676 9.62695C92.4186 10.4342 93.1087 11.2969 93.8379 12.2148C94.1178 12.5664 94.3978 12.8496 94.6777 13.0645C94.9577 13.2728 95.1986 13.429 95.4004 13.5332C95.5697 13.6178 95.7812 13.6829 96.0352 13.7285C96.2891 13.7741 96.5007 13.8001 96.6699 13.8066V14.5ZM110.605 14.5H106.875C106.048 13.2044 105.299 12.0846 104.629 11.1406C103.965 10.1966 103.242 9.22331 102.461 8.2207H101.045V12.6152C101.045 12.8431 101.081 13.0449 101.152 13.2207C101.224 13.39 101.377 13.5202 101.611 13.6113C101.729 13.6569 101.934 13.6992 102.227 13.7383C102.52 13.7773 102.767 13.8001 102.969 13.8066V14.5H97.1094V13.8066C97.2656 13.7936 97.4902 13.7708 97.7832 13.7383C98.0827 13.7057 98.291 13.6634 98.4082 13.6113C98.6035 13.5267 98.7435 13.403 98.8281 13.2402C98.9193 13.0775 98.9648 12.8691 98.9648 12.6152V2.5957C98.9648 2.36784 98.9323 2.16602 98.8672 1.99023C98.8021 1.81445 98.6491 1.68099 98.4082 1.58984C98.2454 1.53125 98.0339 1.47917 97.7734 1.43359C97.513 1.38151 97.2917 1.34896 97.1094 1.33594V0.642578H103.506C104.092 0.642578 104.642 0.704427 105.156 0.828125C105.671 0.945312 106.136 1.13737 106.553 1.4043C106.956 1.66471 107.279 2.00651 107.52 2.42969C107.76 2.84635 107.881 3.35091 107.881 3.94336C107.881 4.47721 107.799 4.94922 107.637 5.35938C107.474 5.76953 107.233 6.12435 106.914 6.42383C106.621 6.70378 106.27 6.94792 105.859 7.15625C105.449 7.35807 104.997 7.5306 104.502 7.67383C105.186 8.57878 105.752 9.34049 106.201 9.95898C106.657 10.5775 107.214 11.3294 107.871 12.2148C108.158 12.6055 108.415 12.8952 108.643 13.084C108.877 13.2663 109.108 13.416 109.336 13.5332C109.505 13.6178 109.717 13.6829 109.971 13.7285C110.225 13.7741 110.436 13.8001 110.605 13.8066V14.5ZM105.469 4.16797C105.469 3.32812 105.228 2.66406 104.746 2.17578C104.264 1.68099 103.584 1.43359 102.705 1.43359H101.045V7.38086H102.324C103.223 7.38086 103.971 7.0944 104.57 6.52148C105.169 5.94206 105.469 5.15755 105.469 4.16797ZM122.344 2.2832C122.956 2.92122 123.434 3.69271 123.779 4.59766C124.124 5.49609 124.297 6.49219 124.297 7.58594C124.297 8.6862 124.121 9.68555 123.77 10.584C123.418 11.4824 122.93 12.2474 122.305 12.8789C121.699 13.5039 120.996 13.9857 120.195 14.3242C119.395 14.6628 118.542 14.832 117.637 14.832C116.673 14.832 115.781 14.653 114.961 14.2949C114.147 13.9303 113.447 13.4258 112.861 12.7812C112.275 12.1497 111.813 11.3848 111.475 10.4863C111.143 9.58138 110.977 8.61458 110.977 7.58594C110.977 6.45964 111.152 5.45703 111.504 4.57812C111.855 3.69271 112.34 2.92773 112.959 2.2832C113.571 1.64518 114.281 1.1569 115.088 0.818359C115.902 0.479818 116.751 0.310547 117.637 0.310547C118.555 0.310547 119.421 0.483073 120.234 0.828125C121.048 1.17318 121.751 1.6582 122.344 2.2832ZM120.889 12.1074C121.253 11.515 121.517 10.8444 121.68 10.0957C121.849 9.34701 121.934 8.51042 121.934 7.58594C121.934 6.63542 121.839 5.76302 121.65 4.96875C121.468 4.17448 121.198 3.4974 120.84 2.9375C120.482 2.38411 120.033 1.95443 119.492 1.64844C118.952 1.33594 118.333 1.17969 117.637 1.17969C116.855 1.17969 116.191 1.35872 115.645 1.7168C115.098 2.07487 114.652 2.55339 114.307 3.15234C113.981 3.72526 113.737 4.39583 113.574 5.16406C113.418 5.93229 113.34 6.73958 113.34 7.58594C113.34 8.52344 113.424 9.36979 113.594 10.125C113.763 10.8802 114.03 11.5508 114.395 12.1367C114.746 12.7096 115.189 13.1589 115.723 13.4844C116.257 13.8034 116.895 13.9629 117.637 13.9629C118.333 13.9629 118.962 13.8001 119.521 13.4746C120.081 13.1491 120.537 12.6934 120.889 12.1074ZM137.295 4.40234H136.621C136.562 4.16797 136.455 3.89128 136.299 3.57227C136.149 3.24674 135.98 2.94076 135.791 2.6543C135.596 2.35482 135.381 2.0944 135.146 1.87305C134.919 1.64518 134.697 1.51497 134.482 1.48242C134.281 1.45638 134.027 1.43685 133.721 1.42383C133.415 1.41081 133.132 1.4043 132.871 1.4043H132.305V12.4883C132.305 12.7031 132.35 12.9017 132.441 13.084C132.533 13.2598 132.692 13.3965 132.92 13.4941C133.037 13.5397 133.281 13.6016 133.652 13.6797C134.03 13.7578 134.323 13.8001 134.531 13.8066V14.5H127.988V13.8066C128.171 13.7936 128.447 13.7676 128.818 13.7285C129.196 13.6895 129.456 13.6406 129.6 13.582C129.814 13.4974 129.971 13.377 130.068 13.2207C130.173 13.0579 130.225 12.8431 130.225 12.5762V1.4043H129.658C129.456 1.4043 129.206 1.41081 128.906 1.42383C128.607 1.43034 128.32 1.44987 128.047 1.48242C127.832 1.50846 127.607 1.63867 127.373 1.87305C127.145 2.10091 126.934 2.36133 126.738 2.6543C126.543 2.94727 126.37 3.25977 126.221 3.5918C126.071 3.91732 125.967 4.1875 125.908 4.40234H125.225V0.642578H137.295V4.40234Z" fill="#4F52FF"/>
</g>
</svg>
