<svg width="50" height="50" fill="none" xmlns="http://www.w3.org/2000/svg"><path d="M49 39H22.673L20.4 17.728a1 1 0 00-.994-.895h-.61c1.245-2.251 6.746-2.287 11.275-2.312 4.75-.027 8.183-.047 9.056-2.036a1 1 0 10-1.83-.803c-.352.8-4.662.824-7.237.838-5.598.032-12.465.076-13.413 4.314h-.993a1 1 0 00-.994.894l-1.39 13.035-2.442-22.868A1 1 0 009.834 7H8.239a2.17 2.17 0 01.586-.962c2.248-2.173 9.307-1.93 15.534-1.716 7.639.264 14.24.49 15.464-2.99a1 1 0 00-1.887-.664C37.2 2.763 30.119 2.52 24.428 2.323c-6.95-.24-14.135-.487-16.993 2.277A4.15 4.15 0 006.193 7H4.417a1 1 0 00-.995.894l-3.416 32c-.002.017.006.034.005.051C.01 39.965 0 39.98 0 40v9a1 1 0 001 1h48a1 1 0 001-1v-9a1 1 0 00-1-1zM16.554 18.834h1.954L20.662 39H14.4l2.153-20.166zM5.315 9h3.62l3.203 30H2.112L5.315 9zM48 48H2v-7h46v7z" fill="#fff"/></svg>