<svg width="47" height="52" fill="none" xmlns="http://www.w3.org/2000/svg"><path d="M16.254 50.243a1.072 1.072 0 002.143 0V17.145l4.76-12.985 4.76 12.985v33.098a1.072 1.072 0 002.144 0v-33.25a.962.962 0 00-.07-.39L24.187.762a1.116 1.116 0 00-.654-.695 1.073 1.073 0 00-1.378.64l1.002.362-1.002-.362-5.804 15.839a1.085 1.085 0 00-.083.431l-.014 33.265z" fill="#fff"/><path d="M29.529 19.86l16.006 9.256.543.306v6.639H28.986v-2.144h14.948v-3.27L28.457 21.71l1.072-1.851zm-11.801 1.851L2.25 30.647v3.27h14.948v2.144H.12v-6.639l.529-.306 16.02-9.256 1.058 1.851zM29.74 37.368l8.072 7.961.32.32v4.802l-1.378-.431L23.1 45.789l-13.653 4.3-1.392.432v-4.802l.32-.32 8.072-7.975 1.504 1.53-7.753 7.642v1.016l12.582-3.953h.627l12.596 3.897V46.54l-7.753-7.655 1.49-1.517z" fill="#fff"/><path d="M36.143 18.954a1.072 1.072 0 00-2.143 0v5.122a1.072 1.072 0 002.143 0v-5.122zm4.969 2.979a1.072 1.072 0 00-2.143 0v5.095a1.072 1.072 0 002.143 0v-5.095zm-29.801-2.979a1.072 1.072 0 00-2.143 0v5.122c0 .585.473 1.072 1.072 1.072.598 0 1.071-.473 1.071-1.072v-5.122zm-4.968 2.979a1.072 1.072 0 00-2.144 0v5.095a1.072 1.072 0 002.144 0v-5.095z" fill="#fff"/></svg>