<svg width="51" height="52" fill="none" xmlns="http://www.w3.org/2000/svg"><path d="M25.901 32.937v1.77a3.81 3.81 0 01-3.803 3.8H7.065a3.908 3.908 0 01-3.902-3.898V21.397a3.9 3.9 0 013.902-3.899h4.986a5.063 5.063 0 013.843 1.765l8.69 10.113a5.468 5.468 0 011.317 3.561zm-3.227 0a2.235 2.235 0 00-.538-1.46l-8.69-10.114a1.829 1.829 0 00-1.399-.644H7.064a.683.683 0 00-.674.673v13.216a.682.682 0 00.674.673h15.034a.577.577 0 00.576-.576v-1.768zm11.082 2.597V23.885a1.611 1.611 0 011.614-1.612h5.39V9.854L27.384 25.507a1.615 1.615 0 01-2.818-.927 1.61 1.61 0 01.364-1.167l16.247-19.01-.614-.613L21.6 19.457a1.615 1.615 0 01-2.636-1.395c.04-.425.248-.818.578-1.09L39.637.37a1.615 1.615 0 012.17.102l2.705 2.703a1.611 1.611 0 01.086 2.188l-.61.713v16.197h5.398A1.615 1.615 0 0151 23.885v11.649a1.611 1.611 0 01-1.614 1.612h-14.02a1.614 1.614 0 01-1.614-1.612h.004zm6.078-10.037l7.938 6.599v-6.599h-7.938zm5.086 8.425l-7.94-6.599v6.599h7.94zM0 50.388A1.611 1.611 0 001.614 52h32.231a1.615 1.615 0 001.614-1.612v-6.366a1.612 1.612 0 00-1.614-1.613H1.614A1.615 1.615 0 000 44.022a1.612 1.612 0 001.614 1.612H32.23v3.142H1.614A1.615 1.615 0 000 50.388z" fill="#fff"/></svg>