<svg width="272" height="581" fill="none" xmlns="http://www.w3.org/2000/svg"><path d="M233.3 299.2l-1.923.549.018.063.022.061 1.883-.673zm-9.8-17.5l1.48-1.345-1.48 1.345zM204.6 267l1.014-1.724L204.6 267zm-29.4-14.7l-.819 1.825.007.003.007.003.805-1.831zm-55.3-25.2l-.869 1.801.011.006.012.005.846-1.812zM87.7 211l-.98 1.743.022.013.022.012L87.7 211zm-16.8-9.8l-1.163 1.627.05.036.053.033 1.06-1.696zm-9.1-7l1.28-1.536-1.29-1.076-1.282 1.085L61.8 194.2zm-18.2 21.7l-1.677-1.09-.02.03-.018.031L43.6 215.9zm9.1 74.2l-1.385 1.443.015.014.016.015L52.7 290.1zm57.4 33.6l-.803 1.832.003.001.8-1.833zm73.5 32.9l-.852 1.81.852-1.81zm34.3 18.2l-1.109 1.664 1.611 1.074 1.125-1.576-1.627-1.162zm12.6-21.7l-1.768-.936-.022.042-.02.042 1.81.852zm-9.8-266.7l-1.94.485.378 1.515h1.562v-2zm-9.8-21.7l-1.715 1.029.025.04.026.04L210.9 64.7zm-16.1-18.2l-1.357 1.47.059.053.062.05L194.8 46.5zm-21.7-13.3l-.761 1.85.018.007.018.007.725-1.864zm-55.3 0l-.661-1.888.661 1.888zm-25.2 14l-1.261-1.552-.025.02-.024.02L92.6 47.2zM75.1 69.6l1.748.971.011-.02.01-.02L75.1 69.6zm7.7 70l-1.477 1.349.03.033.033.032L82.8 139.6zm86.1 47.6l-.708 1.871.023.008.022.008.663-1.887zm48.3 22.4l-1.021 1.72.02.012.02.011.981-1.743zm37.1 32.2l-1.6 1.2.024.032.026.031 1.55-1.263zm11.2 78.4l1.907.602.005-.014.004-.013-1.916-.575zM255 345.4l-1.768-.936-.022.042-.02.042 1.81.852zm-12.6 21.7l1.585 1.219.022-.028.02-.029-1.627-1.162zm-13.3 15.4l-1.414-1.414-1.558 1.557 1.701 1.401 1.271-1.544zm18.9 25.2l-1.821.828.008.016.007.016 1.806-.86zm-2.8 86.1l-1.841-.781-.014.033-.013.034 1.868.714zm-28 42.7l1.414 1.414-1.414-1.414zM171 566.6l-.759-1.85-.02.008-.02.009.799 1.833zm-90.3 9.1l.392-1.961-.047-.01-.048-.007-.297 1.978zm-27.3-6.3l.602-1.907-.033-.011-.034-.009-.535 1.927zm-24.5-9.1l-.894 1.789.02.011.022.01.852-1.81zM9.3 548.4l-1.919-.564-.391 1.331L8.1 550l1.2-1.6zm5.6-30.1l-1.986-.238v.009l1.986.229zM17 491v-2h-2v2h2zm8.4 0l1.828-.812L26.7 489h-1.3v2zm9.8 16.8l-1.664 1.109.008.012.008.012L35.2 507.8zm20.3 21l-1.228 1.579L55.5 528.8zm30.1 16.8l-.743 1.857.013.005.012.005.718-1.867zm77-.7l-.769-1.846-.048.02-.046.022.863 1.804zm28.7-18.9l-1.329-1.495-.044.039-.041.042L191.3 526zm19.6-25.2l-1.752-.964-.019.035-.018.035 1.789.894zm-8.4-68.6l-1.382 1.445.016.016.017.016 1.349-1.477zm-92.4-47.6l-.661 1.888.008.002.007.003.646-1.893zm-51.8-23.8l-1.014 1.724L58.3 360.8zm-39.9-35l-1.606 1.192.01.012.009.013L18.4 325.8zM7.2 239l-1.888-.661L7.2 239zm11.9-25.2l-1.648-1.133-.025.036-.023.037 1.696 1.06zm16.1-18.9l1.351 1.474L35.2 194.9zM50.6 183l1.029 1.715 1.799-1.079-1.164-1.745L50.6 183zm-7.7-11.9l-1.748.971.025.045.027.044 1.696-1.06zm-6.3-13.3l-1.916.575.026.085.033.083 1.857-.743zm-3.5-16.1l-1.98.283.002.01.001.011 1.977-.304zm6.3-66.5l1.87.71.004-.011.004-.01L39.4 75.2zm23.1-37.1l-1.414-1.414-.016.016-.015.016L62.5 38.1zm39.2-25.9l-.761-1.85-.01.005-.01.004.781 1.841zm147.7 32.9l1.338 1.487 1.461-1.316-1.29-1.483L249.4 45.1zM236.1 64l-1.789-.894-.01.02-.011.022 1.81.852zm-7 22.4v2h1.751l.231-1.736-1.982-.264zm9.7 235.9c0-9.035-1.188-16.973-3.616-23.773l-3.767 1.346c2.238 6.267 3.383 13.729 3.383 22.427h4zm-3.577-23.649c-1.953-6.836-5.374-12.94-10.243-18.296l-2.96 2.69c4.464 4.911 7.577 10.473 9.357 16.704l3.846-1.098zm-10.243-18.296c-4.838-5.322-11.312-10.341-19.366-15.079l-2.028 3.448c7.813 4.596 13.939 9.376 18.434 14.321l2.96-2.69zm-19.366-15.079c-8.021-4.718-17.895-9.653-29.609-14.807l-1.61 3.662c11.62 5.112 21.345 9.978 29.191 14.593l2.028-3.448zm-29.595-14.801c-22.862-10.264-41.286-18.66-55.273-25.187l-1.692 3.624c14.013 6.54 32.456 14.944 55.327 25.213l1.638-3.65zm-55.249-25.176c-13.524-6.529-24.232-11.883-32.134-16.067l-1.872 3.536c7.965 4.216 18.724 9.595 32.267 16.133l1.739-3.602zm-32.09-16.042c-7.46-4.196-13.027-7.445-16.72-9.753l-2.12 3.392c3.773 2.358 9.406 5.643 16.88 9.847l1.96-3.486zm-16.618-9.684a152.877 152.877 0 01-8.982-6.909l-2.56 3.072a155.866 155.866 0 009.217 7.091l2.326-3.254zm-11.554-6.9c-6.262 5.299-12.45 12.7-18.585 22.137l3.354 2.18c6-9.23 11.944-16.295 17.815-21.263l-2.584-3.054zm-18.623 22.198c-5.792 9.653-8.685 20.278-8.685 31.829h4c0-10.849 2.707-20.758 8.115-29.771l-3.43-2.058zM33.2 246.7c0 18.22 6.015 33.227 18.115 44.843l2.77-2.886C42.851 277.873 37.2 263.947 37.2 246.7h-4zm18.146 44.872c11.912 10.959 31.287 22.265 57.951 33.96l1.606-3.664c-26.536-11.639-45.428-22.732-56.849-33.24l-2.708 2.944zm57.954 33.961c33.13 14.465 57.608 25.423 73.448 32.877l1.704-3.62c-15.894-7.479-40.415-18.455-73.552-32.923l-1.6 3.666zm73.448 32.877c15.852 7.459 27.173 13.474 34.043 18.054l2.218-3.328c-7.13-4.753-18.676-10.872-34.557-18.346l-1.704 3.62zm36.779 17.552c4.743-6.639 9.003-13.978 12.783-22.01l-3.62-1.704c-3.686 7.835-7.827 14.963-12.417 21.39l3.254 2.324zm12.741-21.926c4.401-8.315 6.532-18.934 6.532-31.736h-4c0 12.398-2.069 22.312-6.068 29.864l3.536 1.872zM222.64 85.915c-1.927-7.709-5.294-15.151-10.076-22.324l-3.328 2.218c4.551 6.827 7.718 13.852 9.524 21.076l3.88-.97zM212.615 63.67c-4.328-7.213-9.858-13.462-16.579-18.744l-2.472 3.146c6.346 4.985 11.549 10.869 15.621 17.656l3.43-2.058zm-16.458-18.64c-6.267-5.785-13.72-10.346-22.332-13.695l-1.45 3.728c8.188 3.184 15.202 7.49 21.068 12.906l2.714-2.94zm-22.296-13.68c-8.206-3.38-17.337-5.051-27.361-5.051v4c9.576 0 18.179 1.595 25.839 4.75l1.522-3.7zM146.5 26.3c-10.027 0-19.817 1.672-29.361 5.012l1.322 3.776c9.123-3.193 18.466-4.788 28.039-4.788v-4zm-29.361 5.012c-9.545 3.341-18.15 8.12-25.8 14.336l2.522 3.104c7.283-5.917 15.478-10.472 24.6-13.664l-1.322-3.776zM91.29 45.69c-7.203 6.242-13.187 13.91-17.96 22.98l3.54 1.862c4.56-8.664 10.243-15.929 17.04-21.82l-2.62-3.022zM73.352 68.63C68.502 77.359 66.1 87.267 66.1 98.3h4c0-10.434 2.265-19.66 6.748-27.729l-3.496-1.942zM66.1 98.3c0 17.216 5.035 31.49 15.223 42.649l2.954-2.698C74.866 127.944 70.1 114.684 70.1 98.3h-4zm15.286 42.714c10.44 10.44 23.222 19.426 38.32 26.975l1.788-3.578c-14.769-7.385-27.186-16.131-37.28-26.225l-2.828 2.828zm38.32 26.975c15 7.5 31.163 14.527 48.486 21.082l1.416-3.742c-17.21-6.511-33.247-13.485-48.114-20.918l-1.788 3.578zm48.531 21.098c17.149 6.025 33.128 13.437 47.942 22.233l2.042-3.44c-15.053-8.937-31.273-16.459-48.658-22.567l-1.326 3.774zm47.982 22.256c14.704 8.271 26.856 18.823 36.481 31.657l3.2-2.4c-9.975-13.3-22.556-24.214-37.719-32.743l-1.962 3.486zm36.531 31.72c9.906 12.158 14.95 28.24 14.95 48.437h4c0-20.87-5.222-37.921-15.85-50.963l-3.1 2.526zM267.7 291.5a97.34 97.34 0 01-4.116 28.125l3.832 1.15A101.356 101.356 0 00271.7 291.5h-4zm-4.107 28.098c-2.765 8.755-6.219 17.043-10.361 24.866l3.536 1.872c4.258-8.044 7.804-16.556 10.639-25.534l-3.814-1.204zm-10.403 24.95c-3.686 7.835-7.827 14.963-12.417 21.39l3.254 2.324c4.743-6.639 9.003-13.978 12.783-22.01l-3.62-1.704zm-12.375 21.333c-4.628 6.016-9.005 11.08-13.129 15.205l2.828 2.828c4.276-4.275 8.766-9.478 13.471-15.595l-3.17-2.438zm-12.986 18.163c7.675 6.321 13.797 14.467 18.35 24.484l3.642-1.656c-4.781-10.516-11.259-19.17-19.45-25.916l-2.542 3.088zm18.365 24.516c4.5 9.45 6.806 21.499 6.806 36.24h4c0-15.125-2.361-27.81-7.194-37.96l-3.612 1.72zM253 444.8c0 17.007-3.216 33.074-9.641 48.219l3.682 1.562C253.683 478.926 257 462.326 257 444.8h-4zm-9.668 48.286c-5.961 15.591-15.135 29.589-27.546 42l2.828 2.828c12.789-12.789 22.282-27.258 28.454-43.4l-3.736-1.428zm-27.546 42c-12.394 12.394-27.565 22.287-45.545 29.664l1.518 3.7c18.42-7.556 34.049-17.73 46.855-30.536l-2.828-2.828zm-45.585 29.681C152.298 572.57 131.579 576.5 108 576.5v4c24.021 0 45.302-4.004 63.799-12.067l-1.598-3.666zM108 576.5c-8.726 0-17.694-.918-26.908-2.761l-.784 3.922C89.76 579.552 98.992 580.5 108 580.5v-4zm-27.003-2.778a176.419 176.419 0 01-26.995-6.229l-1.204 3.814a180.35 180.35 0 0027.605 6.371l.594-3.956zm-27.062-6.249a152.62 152.62 0 01-24.183-8.983l-1.704 3.62a156.686 156.686 0 0024.817 9.217l1.07-3.854zm-24.14-8.962c-7.38-3.689-13.807-7.595-19.295-11.711L8.1 550c5.712 4.284 12.351 8.312 19.906 12.089l1.788-3.578zm-18.576-9.547c2.377-8.081 4.26-18.236 5.668-30.435l-3.974-.458c-1.392 12.068-3.242 21.979-5.532 29.765l3.838 1.128zm5.667-30.426C18.289 506.844 19 497.652 19 491h-4c0 6.415-.689 15.422-2.086 27.062l3.972.476zM17 493h8.4v-4H17v4zm6.572-1.188c1.936 4.356 5.277 10.067 9.964 17.097l3.328-2.218c-4.646-6.97-7.839-12.459-9.636-16.503l-3.656 1.624zm9.98 17.121c5.268 7.662 12.185 14.808 20.72 21.446l2.456-3.158c-8.266-6.428-14.881-13.283-19.88-20.554l-3.296 2.266zm20.72 21.446c8.572 6.667 18.775 12.354 30.585 17.078l1.486-3.714c-11.523-4.609-21.387-10.122-29.615-16.522l-2.456 3.158zm30.61 17.088c12.407 4.772 26.658 7.133 42.718 7.133v-4c-15.674 0-29.422-2.305-41.282-6.867l-1.436 3.734zM127.6 554.6c12.881 0 24.844-2.626 35.863-7.896l-1.726-3.608c-10.448 4.997-21.818 7.504-34.137 7.504v4zm35.769-7.854c11.422-4.759 21.213-11.199 29.345-19.332l-2.828-2.828c-7.734 7.734-17.077 13.893-28.055 18.468l1.538 3.692zm29.26-19.251c8.575-7.623 15.271-16.223 20.06-25.801l-3.578-1.788c-4.544 9.088-10.915 17.288-19.14 24.599l2.658 2.99zm20.023-25.731c5.282-9.602 7.948-19.498 7.948-29.664h-4c0 9.434-2.467 18.672-7.452 27.736l3.504 1.928zM220.6 472.1c0-17.266-5.537-31.138-16.751-41.377l-2.698 2.954c10.253 9.361 15.449 22.089 15.449 38.423h4zm-16.718-41.345c-10.914-10.44-24.403-19.422-40.43-26.965l-1.704 3.62c15.706 7.39 28.818 16.142 39.37 26.235l2.764-2.89zm-40.43-26.965c-15.943-7.502-33.513-14.529-52.706-21.083l-1.292 3.786c19.073 6.513 36.504 13.486 52.294 20.917l1.704-3.62zm-52.691-21.078c-18.553-6.493-35.7-14.373-51.447-23.636l-2.028 3.448c15.987 9.404 33.373 17.391 52.153 23.964l1.322-3.776zm-51.447-23.636c-15.654-9.208-28.757-20.706-39.327-34.493l-3.174 2.434c10.896 14.213 24.394 26.049 40.473 35.507l2.028-3.448zm-39.308-34.468C9.59 310.569 4.3 292.354 4.3 269.8h-4c0 23.179 5.443 42.297 16.494 57.192l3.212-2.384zM4.3 269.8c0-11.004 1.605-21.044 4.788-30.139l-3.776-1.322C1.962 247.911.3 258.404.3 269.8h4zm4.788-30.139c3.223-9.211 7.129-17.474 11.708-24.801l-3.392-2.12c-4.754 7.607-8.782 16.143-12.092 25.599l3.776 1.322zm11.66-24.728c5.064-7.365 10.334-13.545 15.803-18.559l-2.702-2.948c-5.73 5.253-11.194 11.673-16.397 19.241l3.296 2.266zm15.803-18.559c5.537-5.075 10.562-8.949 15.078-11.659l-2.058-3.43c-4.817 2.89-10.06 6.949-15.722 12.141l2.703 2.948zm15.713-14.483a480.797 480.797 0 01-7.668-11.851l-3.392 2.12a486.144 486.144 0 007.732 11.949l3.328-2.218zm-7.616-11.762a114.256 114.256 0 01-6.191-13.072l-3.714 1.486a118.276 118.276 0 006.409 13.528l3.496-1.942zm-6.132-12.904c-1.368-4.558-2.517-9.832-3.44-15.829l-3.953.608c.944 6.136 2.129 11.596 3.561 16.371l3.832-1.15zm-3.436-15.808c-.915-6.406-1.38-14.471-1.38-24.217h-4c0 9.854.469 18.123 1.42 24.783l3.96-.566zM33.7 117.2c0-14.224 2.523-27.984 7.57-41.29l-3.74-1.42c-5.22 13.76-7.83 28.001-7.83 42.71h4zm7.578-41.312c5.039-13.742 12.592-25.872 22.667-36.406l-2.89-2.764C50.597 47.65 42.75 60.254 37.522 74.51l3.756 1.377zm22.636-36.374c10.534-10.534 23.38-19.03 38.567-25.473l-1.562-3.682c-15.612 6.623-28.9 15.394-39.833 26.327l2.828 2.828zm38.548-25.465C118.044 7.633 135.978 4.4 156.3 4.4v-4c-20.744 0-39.211 3.3-55.361 9.95l1.523 3.7zM156.3 4.4c22.618 0 41.138 4.386 55.679 13.02l2.042-3.44C198.696 4.88 179.415.4 156.3.4v4zm55.679 13.02c14.789 8.78 26.745 18.451 35.912 28.992l3.018-2.624c-9.5-10.926-21.81-20.855-36.888-29.808l-2.042 3.44zm36.083 26.193c-4.921 4.43-9.489 10.969-13.751 19.493l3.578 1.788c4.138-8.276 8.437-14.336 12.849-18.307l-2.676-2.974zM234.29 63.148c-3.8 8.077-6.206 15.742-7.172 22.988l3.964.528c.901-6.754 3.161-14.022 6.828-21.812l-3.62-1.704zM229.1 84.4h-8.4v4h8.4v-4z" fill="#fff" fill-opacity=".9"/></svg>