<svg width="273" height="208" fill="none" xmlns="http://www.w3.org/2000/svg"><path d="M18.42 142.645c7.447 5.192 8.65 10.859 8.83 12.45 1.182.696 2.282 1.314 3.29 1.86-1.579-2.632-3.084-5.316-4.446-8.062a121.76 121.76 0 01-5.92-14.423 24.925 24.925 0 01-.515-1.622 39.669 39.669 0 00-5.653-11.333l-.514-.69C-7.374 109.374 2.185 86.024 2.185 86.024c-.318 5.15 4.626 9.091 9.765 18.492 4.338 8 2.883 13.604 2.354 15.103a97.411 97.411 0 002.93 4.291c-.343-1.5-.66-3.008-.951-4.522a108.155 108.155 0 01-1.794-15.423l-.087-1.895a27.044 27.044 0 01-.047-1.937v-3.88c.031-1.292.113-2.575.165-3.873.036-.649.046-1.293.108-1.937l.175-1.926a13.274 13.274 0 00-.206-3.828l-1.48-7.381C-2.096 58.975 15.363 40.78 15.363 40.78c-2.18 4.683.997 10.169 2.297 20.79 1.105 9.035-2.303 13.718-3.346 14.939.432 2.142.88 4.012 1.27 5.537l.17-1.205c.148-1.278.452-2.54.678-3.807l.365-1.9c.118-.634.241-1.268.405-1.891.622-2.504 1.193-5.017 1.99-7.47l.555-1.849.277-.922.324-.912 1.3-3.636c.822-2.112 1.68-4.214 2.57-6.285a33.776 33.776 0 002.93-11.77c.05-.948.122-1.875.215-2.782-8.192-22.38 14.349-33.636 14.349-33.636-3.598 3.673-2.467 9.911-4.8 20.352-1.99 8.886-6.764 12.147-8.12 12.925a101.623 101.623 0 00-.797 7.366l.103-.196.889-1.674c.303-.567.653-1.102.977-1.659l1.988-3.291 2.149-3.2c.36-.514.709-1.065 1.079-1.59l1.151-1.546a82.525 82.525 0 013.72-4.796c1.805-2.287 4.272-5.594 6.415-7.979a15.575 15.575 0 002.533-3.714C58.374-4.853 81.28.721 81.28.721c-5.139.33-8.423 5.753-17.093 11.997-6.856 4.934-12.267 4.64-14.267 4.28l-.76.253-2.621 2.745a109.961 109.961 0 00-9.57 11.94l-1.105 1.546c-.354.515-.683 1.071-1.027 1.607l-2.056 3.22-.864 1.545a64.274 64.274 0 016.84-5.09c12.335-20.377 35.195-9.745 35.195-9.745-5.14-.546-9.25 4.25-18.867 8.937-8.166 3.987-13.69 2.277-15.155 1.68a84.074 84.074 0 00-7.54 4.898 7.644 7.644 0 00-2.405 2.735l-.858 1.705a109.27 109.27 0 00-5.988 14.001l-1.187 3.606-.293.906-.252.917-.513 1.834c-.72 2.431-1.213 4.92-1.763 7.392-.15.618-.252 1.242-.355 1.87v.03a65.607 65.607 0 014.805-6.505c5.86-23.108 30.806-19.641 30.806-19.641-5.063.983-7.622 6.779-15.419 14.078-6.645 6.181-12.426 6.181-13.999 6.052a101.118 101.118 0 00-4.343 5.048 12.249 12.249 0 00-2.708 6.522v.036l-.432 3.791-.108.943-.061.948-.124 1.89-.123 1.896c-.041.628-.036 1.262-.057 1.895 0 1.262-.066 2.524-.061 3.791l.092 3.787c0 .633.041 1.262.093 1.89l.128 1.891c.206 2.73.514 5.449.895 8.159a64.383 64.383 0 011.87-6.475c-2.755-23.695 21.78-29.362 21.78-29.362-4.378 2.73-4.702 9.061-9.4 18.673-4.028 8.185-9.43 10.246-10.956 10.663a115.417 115.417 0 00-1.511 4.044 16.863 16.863 0 00-.58 9.22v.047a108.225 108.225 0 004.152 14.511 117.151 117.151 0 006.08 13.779 106.286 106.286 0 002.142 3.827 65.1 65.1 0 01-.76-7.727c-11.224-21.027 9.528-35.326 9.528-35.326-3.083 4.147-1.064 10.158-1.922 20.826-.73 9.076-5.006 12.971-6.265 13.908v1.03a28.207 28.207 0 005.14 16.134l.051.072a108.22 108.22 0 009.544 11.574c.873.892 1.7 1.834 2.616 2.684l2.698 2.602.066-.021a63.053 63.053 0 01-2.23-4.353c-18.501-15.021-4.872-36.264-4.872-36.264-1.233 5.012 2.945 9.787 6.28 19.94 2.837 8.654.401 13.908-.39 15.284.544 1.308 1.074 2.508 1.541 3.575a18.024 18.024 0 005.232 6.696l.031.026a105.865 105.865 0 0012.252 8.551c2.495 1.48 5.04 2.865 7.637 4.157a54.126 54.126 0 01-3.006-3.369c-17.7-8.18-11.183-27.816-11.183-27.816.03 4.234 4.312 7.17 9.009 14.562 3.993 6.295 3.12 10.962 2.77 12.213a85.74 85.74 0 001.64 2.117 16.34 16.34 0 006.367 4.879h.036a118.564 118.564 0 0014.112 4.94h.057a3.094 3.094 0 012.282 2.874 3.174 3.174 0 01-1.216 2.637 3.155 3.155 0 01-2.85.531 124.184 124.184 0 01-14.718-5.517 116.577 116.577 0 01-13.79-7.49 101.337 101.337 0 01-7.744-5.378 22.432 22.432 0 00-11.718-4.497c-22.212 8.546-33.785-13.872-33.785-13.872 3.72 3.575 9.923 2.324 20.377 4.502 8.896 1.855 12.221 6.594 13.018 7.969 2.138.273 4.029.454 5.581.567-1.408-1.247-2.78-2.54-4.153-3.822l-2.734-2.787c-.93-.912-1.768-1.916-2.657-2.874a113.226 113.226 0 01-9.626-12.296l-.174-.268a14.91 14.91 0 00-5.654-4.991l-1.1-.572c-23.753-.891-25.603-26.065-25.603-26.065 2.02 4.754 8.212 6.032 16.97 12.172zm236.159 0c-7.446 5.192-8.649 10.859-8.829 12.45a106.924 106.924 0 01-3.289 1.86c1.578-2.632 3.084-5.316 4.445-8.062a121.661 121.661 0 005.921-14.423c.185-.515.36-1.076.514-1.622a39.684 39.684 0 015.653-11.333l.514-.69c20.866-11.451 11.307-34.801 11.307-34.801.318 5.15-4.626 9.091-9.765 18.492-4.338 8-2.883 13.604-2.354 15.103a98.14 98.14 0 01-2.929 4.291c.342-1.5.659-3.008.95-4.522a108.155 108.155 0 001.794-15.423l.087-1.895a27.22 27.22 0 00.047-1.937v-3.88c-.031-1.292-.113-2.575-.165-3.873-.036-.649-.046-1.293-.108-1.937l-.174-1.926a13.285 13.285 0 01.205-3.828l1.48-7.381c15.213-18.333-2.246-36.527-2.246-36.527 2.179 4.683-.997 10.169-2.297 20.79-1.105 9.035 2.302 13.718 3.346 14.939a108.831 108.831 0 01-1.27 5.537l-.169-1.205c-.149-1.278-.453-2.54-.679-3.807l-.365-1.9a25.911 25.911 0 00-.406-1.891c-.621-2.504-1.192-5.017-1.988-7.47l-.556-1.849-.277-.922-.324-.912-1.3-3.636a198.104 198.104 0 00-2.57-6.285 33.778 33.778 0 01-2.929-11.77 58.876 58.876 0 00-.216-2.782c8.192-22.381-14.349-33.637-14.349-33.637 3.598 3.673 2.467 9.911 4.8 20.352 1.989 8.886 6.764 12.147 8.12 12.925.437 3.034.674 5.584.797 7.366l-.103-.196-.889-1.674c-.303-.567-.653-1.102-.976-1.659l-1.989-3.291-2.149-3.2c-.359-.514-.709-1.065-1.079-1.59l-1.151-1.546a82.31 82.31 0 00-3.721-4.796c-1.804-2.287-4.271-5.594-6.414-7.979a15.563 15.563 0 01-2.533-3.714C214.626-4.853 191.72.721 191.72.721c5.14.33 8.424 5.753 17.094 11.997 6.856 4.934 12.267 4.64 14.267 4.28l.76.253 2.621 2.745a109.906 109.906 0 019.57 11.94l1.105 1.546c.354.515.683 1.071 1.027 1.607l2.056 3.22.864 1.545a64.342 64.342 0 00-6.841-5.09c-12.334-20.377-35.194-9.745-35.194-9.745 5.139-.546 9.251 4.25 18.867 8.937 8.166 3.987 13.691 2.277 15.155 1.68a84.101 84.101 0 017.54 4.898 7.642 7.642 0 012.405 2.735l.858 1.705c2.319 4.522 4.32 9.2 5.988 14.001l1.187 3.606.293.906.251.917.514 1.834c.72 2.431 1.213 4.92 1.763 7.392.149.618.252 1.242.355 1.87v.03a65.795 65.795 0 00-4.805-6.505c-5.859-23.108-30.805-19.641-30.805-19.641 5.062.983 7.621 6.779 15.417 14.078 6.646 6.181 12.427 6.181 14 6.052a101.252 101.252 0 014.343 5.048 12.244 12.244 0 012.708 6.522v.036l.432 3.791.108.943.061.948.124 1.89.123 1.896c.041.628.036 1.262.057 1.895 0 1.262.066 2.524.061 3.791l-.092 3.787c0 .633-.041 1.262-.093 1.89l-.128 1.891c-.206 2.73-.514 5.449-.894 8.159a64.622 64.622 0 00-1.871-6.475c2.755-23.695-21.781-29.362-21.781-29.362 4.379 2.73 4.703 9.061 9.4 18.673 4.029 8.185 9.431 10.246 10.957 10.663a114.024 114.024 0 011.511 4.044 16.868 16.868 0 01.581 9.22v.047a108.257 108.257 0 01-4.153 14.511 117.31 117.31 0 01-6.079 13.779 106.612 106.612 0 01-2.144 3.827c.407-2.558.661-5.138.761-7.727 11.224-21.027-9.528-35.326-9.528-35.326 3.083 4.147 1.064 10.158 1.922 20.826.73 9.076 5.006 12.971 6.265 13.908v1.03a28.202 28.202 0 01-5.14 16.134l-.051.072a108.128 108.128 0 01-9.544 11.574c-.873.892-1.701 1.834-2.616 2.684l-2.698 2.602-.067-.021a62.844 62.844 0 002.231-4.353c18.501-15.021 4.872-36.264 4.872-36.264 1.233 5.012-2.945 9.787-6.28 19.94-2.837 8.654-.401 13.908.39 15.284-.544 1.308-1.074 2.508-1.541 3.575a18.032 18.032 0 01-5.232 6.696l-.031.026a105.907 105.907 0 01-12.252 8.551 117.866 117.866 0 01-7.637 4.157 54.243 54.243 0 003.006-3.369c17.7-8.18 11.183-27.816 11.183-27.816-.03 4.234-4.311 7.17-9.009 14.562-3.993 6.295-3.119 10.962-2.77 12.213a86.769 86.769 0 01-1.639 2.117 16.345 16.345 0 01-6.368 4.879h-.036a118.534 118.534 0 01-14.113 4.94h-.056a3.095 3.095 0 00-2.282 2.874 3.169 3.169 0 001.216 2.637 3.154 3.154 0 002.849.531 124.125 124.125 0 0014.719-5.517 116.524 116.524 0 0013.789-7.49 101.438 101.438 0 007.745-5.378 22.433 22.433 0 0111.718-4.497c22.212 8.546 33.786-13.872 33.786-13.872-3.721 3.575-9.925 2.324-20.378 4.502-8.896 1.855-12.221 6.594-13.018 7.969-2.138.273-4.029.454-5.581.567 1.408-1.247 2.78-2.54 4.153-3.822l2.734-2.787c.93-.912 1.768-1.916 2.657-2.874a113.376 113.376 0 009.626-12.296l.174-.268a14.912 14.912 0 015.654-4.991l1.099-.572c23.754-.891 25.604-26.065 25.604-26.065-2.019 4.754-8.212 6.032-16.97 12.172z" fill="#77253C"/></svg>