<svg width="194" height="239" fill="none" xmlns="http://www.w3.org/2000/svg"><path d="M97.006 0L0 28.684v90.564a103.176 103.176 0 0012.168 48.647 102.687 102.687 0 0033.637 37.081L96.96 239l51.145-34.024a102.696 102.696 0 0033.637-37.081 103.18 103.18 0 0012.168-48.647V28.684L97.006 0zM64.183 142.222l15.774-24.433a28.856 28.856 0 01-10.333-14.455 28.977 28.977 0 01.073-17.794 28.858 28.858 0 0110.45-14.37 28.665 28.665 0 0116.859-5.484 28.67 28.67 0 0116.857 5.484 28.86 28.86 0 0110.452 14.37 28.98 28.98 0 01.072 17.794 28.856 28.856 0 01-10.333 14.455l15.763 24.456-65.634-.023z" fill="#993454"/><path d="M97.008 14.932L12.102 40.026v79.256a90.275 90.275 0 0010.673 42.577 89.851 89.851 0 0029.467 32.438l44.766 29.772 44.755-29.772a89.878 89.878 0 0029.46-32.44 90.297 90.297 0 0010.669-42.575V40.026L97.008 14.932zM95 119.282c1.843 5.791-4.875-3.606 0 0-1.89 5.775-1.843-5.791 0 0-4.904 3.565 1.89-5.776 0 0-6.054 0 4.904-3.566 0 0-4.904-3.566 6.054 0 0 0-1.89-5.776 4.904 3.565 0 0 1.843-5.791 1.89 5.775 0 0 4.875-3.606-1.843 5.791 0 0z" fill="#77253C"/></svg>