<svg width="89" height="110" fill="none" xmlns="http://www.w3.org/2000/svg"><path d="M84.16-.001H4.61C2.064-.001 0 2.389 0 5.336v81.03c0 2.947 1.751 4.177 4.61 5.337l39.775 18.201 39.774-18.201c2.408-1.16 4.61-2.39 4.61-5.338V5.336C88.77 2.39 86.705 0 84.16 0z" fill="#77253C"/><path d="M84.16-.001H4.61C2.064-.001 0 2.389 0 5.336v81.03c0 2.947 1.751 4.177 4.61 5.337l39.775 18.201 39.774-18.201c2.408-1.16 4.61-2.39 4.61-5.338V5.336C88.77 2.39 86.705 0 84.16 0z" fill="#77253C"/><path d="M80 86h-4v4h4v-4zm-13 0h-5v4h5v-4zm-9 0h-5v4h5v-4zm-18 0h-4v4h4v-4zm-9 0h-4v4h4v-4zm-18 0H9v4h4v-4zm76-5h-4v5h4v-5zm-13 0h-5v5h5v-5zm-14 0h-4v5h4v-5zM4 81H0v5h4v-5zm32 0h-5v5h5v-5zm-14 0h-4v5h4v-5zm44.5-4H62v4h9v-4h-4.5zM40 77h-4v4h4v-4zm-9 0h-4v4h4v-4zm-13 0h-5v4h5v-4zm44-5h-4v5h4v-5zm-13 4.497V81h4v-9h-4v4.497zM80 72h-4v5h4v-5zm-67 0H9v5h4v-5zm72-4h-5v4h5v-4zm-27 0h-5v4h5v-4z" fill="#fff"/><path d="M66.581 68.002v4.502H71V63.5h-4.419v-4.496H71V54.5h-4.419v-8.997h-4.419v-4.502h4.42v4.502H71V14H18v63h8.831v-4.496h-4.418v-4.502h4.418v4.502h8.832v-4.502H31.25V27.5h26.5v31.504h4.413v4.495H57.75v4.503h8.831z" fill="#fff"/><path d="M58 59h-5v5h5v-5zm22 0h-4v5h4v-5zm-4-9h-5v5h5v-5zm4-4h-4v4h4v-4zm9-5h-4v5h4v-5z" fill="#fff"/></svg>