<svg width="621" height="351" fill="none" xmlns="http://www.w3.org/2000/svg"><path d="M612.312 195.742c1.538 1.399 2.098 2.797 3.777 4.056.279.14 3.636 2.378 3.636 2.378-.139-2.238 1.119-3.217 1.259-5.315.14-1.679-.699-3.077-.699-4.756 0-1.678-1.119-5.455-1.958-6.993-.7-1.259-4.477-2.378-4.477-2.938.14-.559.56-.839 1.119-.839.28-1.119.42-2.378.56-3.497.14 0 2.098-2.657 1.818-2.098.14-.419.28-.559.28-.559-.14-.14-.42-.28-.979-1.119-.42-.7-1.259-1.539-1.818-2.238-2.518-2.798-4.616-5.315-2.239-9.372.98-1.818 4.337-3.077 2.099-5.874-.84-1.119-2.238-.84-3.218-1.539-2.238-1.399-3.636-3.357-4.476-5.875-.419-1.398-.419-2.098-.699-3.357-.14-.699-2.378-.559-1.399-1.958 1.958-2.797 1.679 3.497 3.777 1.539 2.378-2.238-2.518-5.315-3.917-5.455-.839-.14-.559.979-2.098.419.979.28-2.378-2.238-2.238-2.098-1.119-1.678-1.958-6.993-5.315-3.357-.56.56 1.538 3.637-1.539 2.518-2.378-.979-3.637-7.133-4.336-9.092-1.539-3.496-6.715-8.672-3.637-12.168.979.559 1.678.419 2.098-.28.42-.28.559-.7.28-1.259-.42.839-.7-3.777-.7-3.637-.14-5.035.839-3.217 3.497.28 1.679.699-.419-4.756-.559-5.175-.14-1.958.279-3.637 1.259-5.455.419-.84 1.958-3.777 2.517-4.196 1.539-.98 4.896.979 5.875-.56.7-1.259-1.678-2.797-2.098-4.336-.839-2.658-.14-5.735-1.119-8.252-.979-2.658-1.958-4.756-2.378-7.553-.419-3.777 0-7.694-.419-11.75-.14-1.818-1.679-4.616-1.259-6.154.14-.56 2.937-2.938 3.497-3.497.979-.84 2.378-1.399 2.378-2.518 0-.14-2.798-3.357-3.078-3.357-1.818-.699-1.678.7-3.077.84.28 0-2.098-3.637-1.819-.14-.279-.14-3.776-1.539-3.217.28-.419-.28-3.777-4.337-4.336-1.679-.979-2.797-2.658.56-3.077.7-.56.14-2.239-.42-2.378-.28-.7.28-1.399.56-1.819.839.7-.42-2.098 5.035-1.818.979.14-1.958 4.196-2.797 4.756-4.896.839-2.657-2.518-9.231-4.756-10.49-2.238-1.259-4.197-.28-5.875-2.937-.28-.42-.979-.28-1.119-.7-.28-1.119 1.538-.979.559-2.517 1.259-.28 1.679 1.818 2.798 2.238.839.28 2.378.14 3.077.14 1.119-.14.42 1.258 1.819-.14 1.538-1.539-.7-3.078-.28-4.057.699-1.818 3.497-2.657 5.315-2.937 1.259-.14 2.238.84 3.777 0 1.119-.7.839-1.958 1.679-2.798 1.398-1.398 4.336-1.398 5.315-3.077 1.119-1.678-.559-3.636-1.958-4.196-.84-.42-1.819.28-3.078-.42.14-.979-.279-1.818-1.119-2.237h-1.259c-1.398-.84-3.357.979-5.175.28 0-1.12 2.378-1.819 2.937-2.798.28-.56.42-1.539.84-2.378-.56-.84-2.378-.56-2.658.42-.979-.28 3.497-5.315-1.119-3.497-1.958-4.196-.28-3.217-3.217-1.679-1.119.56-1.959 1.26-3.917 1.959-1.818.699-2.518.699-3.077 2.517-.14.56.279 1.679.14 2.098-.28.98-1.12 1.26-1.259 1.819 0 .14-1.259-1.12-1.539.42-.42 1.958 1.678 2.377 2.798 2.657.419.14 3.636 0 3.217-.42 3.077 2.798-6.994 4.197-8.253 1.26 0 1.678-.56 1.957-1.399.838-.42-.42-.979-.56-1.539-.56 0 0-3.497 1.82-.839 2.239.14.42-2.518-.56-2.797-.42-.7.14-3.078 1.958-3.777 2.378.14-.14-1.119 1.679-.979 1.539-.42.28-1.399-.42-1.679-.28-.979.56-.979 1.119-1.958 1.538-.42.28-1.119 0-1.679.28-1.678.84-2.378 2.098-3.777 2.798-1.398.7-2.937.7-4.476 2.098-1.818 1.678-4.896 3.077-7.134 5.315-2.657 2.797-2.937 7.413-5.595 9.791-1.119.98-3.637 2.518-3.497 3.777 0-.28 3.078 2.797 2.938 2.657.559.14 2.238-1.119 3.637-.7 1.678.42 3.916 2.379 3.497 4.057-.56 2.378-9.093 4.056-10.911 1.679.979-.84 3.357-.42 3.077-2.378-.279-2.098-3.497-.98-4.196 0-.979 1.538.699 2.238.979 3.776.28 2.238-.839 4.196-2.238 5.735-1.259 1.259-3.077 1.399-4.057 2.378-.559.56-.139 1.259-.559 1.818-1.818 2.518-2.238 7.274-6.574 6.994-1.959-.14-2.658-2.098-4.197-3.077-2.378-1.4-3.916-.84-6.294 0-3.637 1.398-7.274 3.356-9.372 6.853-1.119 1.819-1.259 4.896-3.777 5.455-1.958.56-3.357-1.398-5.316-1.258-1.119.14-4.336 3.077-5.315 2.098-1.818-1.539.699-2.518.56-4.057-2.518-1.538-6.295 1.539-8.673 2.378-1.958.7-4.476.7-6.574 1.679-1.259.56-2.378 1.258-3.637 1.958-.979.42-4.616 1.259-5.316 1.678-2.517 1.958 1.259.84 0 4.057-.699-.14-1.398-2.099-2.098-.7-.419.7-.559 4.056.56 4.336.279-.7.699-1.398 1.259-1.818.559 0 .839 3.497.979 3.776.839 1.26 2.657 1.4 3.497 2.518-1.119.42-7.414-.28-7.274 1.819 0 .839 3.497 2.517 1.818 2.937-1.678.419-3.357-2.378-5.875-1.119-2.377 1.119-1.258 4.056-2.797 4.895-1.958 1.259-3.777-1.538-5.036-1.818-1.678-.42-1.119-1.399-1.958 1.119-.56 1.818 2.378 7.833.979 8.952-.28.14-2.378-1.539-2.098 0-3.078-.28-5.735-3.917-7.134-6.015-.28-.419-1.259.28-1.539-.979-.14-.839 1.119-1.259 1.119-1.678-.14-2.238-.839-2.658-1.818-4.336-1.399-2.378-1.259-4.476-4.336-5.735-.84-.28-2.238-.7-3.218-.42-.979.28-1.119 1.12-1.538 1.26-.7.279-5.875.838-6.155-1.68-.28.14-2.518 3.078-2.518 3.358-.419 1.818 1.819 2.238 1.819 4.056 0 3.077-1.259.979-2.099.699-.839-.279-.559 1.259-1.119 1.259-.839 0-1.958 0-2.937-.14-1.259-.14-2.938-.14-4.197-.839-.839-.42-.839-1.818-1.678-2.238-4.196-1.958-9.932 1.539-13.988.839-.839-.14-.979-1.258-1.819-1.398-.419 0-.419.979-.419.979s-.42.839-1.259.699c-1.259-.14-1.399-1.399-1.958-1.678-.979-.42-5.176-.98-4.337 2.377.28 1.259 2.938-1.678 3.497-.279-3.497 2.657-7.134 6.294-11.889 5.455.839-1.399 1.678-2.798 2.378-4.057.419 0 .979 0 1.398.14 1.399-1.398 3.078-3.217 4.197-4.895.699-1.12.419-2.098 1.399-3.077 1.119-.98 1.398.14 2.377-.42 1.959-1.119 2.378-1.958 3.497-3.777.14-.28 1.959-3.357 1.959-3.496-.28-1.26-2.518-1.679-2.238-3.078 1.818-.56 2.378.7 1.398-2.377.14.42-2.098-3.637-2.377-2.099-1.259-2.797-2.658-4.475-5.736-4.475-.979 0-4.056.56-5.175.839-1.399.28.42 2.797-2.798 1.119.14-2.378 2.099-1.958.14-3.497-.559-.42-4.196 0-4.476-.84-.559-1.818 4.896-1.678.839-4.195-2.238-1.4-2.518-.7-4.476.699-2.378 1.818-3.357 3.077-4.056 5.735-.28.979 1.259 1.398-.42 2.657-1.679 1.399-2.518-.7-4.196-.14 0 1.4 1.398 2.099 1.678 3.357 0 0-5.035-2.937-4.756.56-1.399-1.12-1.678.28-3.497-.28.28-1.119 2.658-1.818 2.518-2.937-.14-1.399-4.896 1.678-5.176 1.818-.699.14-1.818-.42-2.937-.14-.559.14-.28 1.26-.559 1.399-.98.56-3.218.98-4.337 1.119-1.818.28-3.497-.14-5.175.56-.28.14-.56-.56-.979-.42-.7.28-.84 1.538-1.539 1.958-.839.42-3.217-.28-3.777.28 0 .56.28.839.7.979-.98-.42-1.12 0-.56.979-1.259-.98-1.818-.7-1.539.56-.559-.7-4.336-2.239-1.958.559-.699-.14-1.399 0-1.958.42-.84 1.818 3.077.28 3.077.28.28.559.28 1.118.28 1.678-.7-.42-1.399-.56-2.098-.28-.28.84 2.657 3.217 2.378 3.777-.56 1.119-4.616.42-5.596.42-3.357 0-7.273-1.4-10.631-1.68-3.636-.279-3.636 2.798-4.056 6.015-.14 1.819-.28 3.077.28 4.756.28.979 2.378 1.678 1.399 3.217-2.518 3.777-5.176-4.056-6.015-4.756-.42-.419-.84-.979-1.119-1.398-.7.279-1.539.419-2.238.139-.42-.419-.14-1.118 0-.979.139.14.839-1.119.419-1.818-.699-.84-3.217.7-3.777.98.28.699 1.819.419 1.959.978.14.979-1.119.7-1.119 1.399 0 0 3.077 2.098.559 1.958-1.678 0-2.238-3.077-3.916-2.797-4.756.979 2.378 7.972 1.259 10.35.139-.419-5.736-4.755-5.875-5.734-.28-1.119.839-2.938 1.818-4.057 1.958-2.378 3.077-2.657 3.497-5.874.14-1.12.42-4.616-.699-5.316-1.119-.699-.7 3.218-.84 3.357-.559 2.378-1.398 3.357-3.497 4.616-4.336 2.518-5.595 2.238-6.434 7.833-.56 3.357-1.399 4.336-3.497 6.994-1.119 1.398-3.917 5.035-3.637 6.713.56 3.218 2.238 1.399 4.616 1.959 2.658.699 4.336 4.056 4.616 6.574.14.979-.559 3.916-1.119 4.755-.559.7-1.399 0-1.958.7-3.218 4.615 3.217 2.797 2.238 6.574-.979 0-4.197-2.658-4.476-3.357-1.119-2.798 2.657-5.176 2.937-7.833.28-3.357-1.259-3.777-3.777-4.336-3.357-.699-3.357-.42-4.616 2.797-1.818 4.896-6.434 8.672-10.91 9.931-1.959.56-4.616 2.658-6.575 1.958-2.517-.839-4.756-4.475-5.315-6.713.839.139.559 1.958 1.539 1.678 1.259-.42.279-2.518 2.098-.42-.56 1.539-1.399.7.699 1.399-.28-.14 2.798-.28 3.217-.28.56-.139 2.239-1.678 2.798-1.958 1.399-.979 3.497-1.818 4.756-2.937 1.399-1.119 4.476-4.056 5.315-5.455 1.119-2.238-.839-3.777 0-6.155.7-1.958 3.218-3.776 4.057-5.175.699-1.259.839-3.077 1.818-4.196 1.679-2.098 2.658-2.098 3.078-5.035.14-1.119-.28-3.777.279-4.756.98-1.818 4.477-3.497 5.875-5.595 1.539-2.378 2.099-4.336-.839-6.714-3.777-3.077-6.434-.839-9.372 2.098-2.658 2.658-5.175 2.518-8.253 4.476-.699.42-3.916 3.077-3.497 3.777 4.057-.14-6.434 7.833-5.735 9.511.28.56 2.518.56 2.798 2.098.14.7-1.399.979-1.399 1.679 0 1.119.839 3.916.56 4.895-.14.42-3.078 3.077-3.637 2.798-1.539-1.119-.98-4.896-1.399-6.295-.7-2.517-1.958-5.315-2.938-7.693-1.678-4.196-3.217-8.112-6.854-11.33-.28 1.26-2.797.42-3.777.98-.559.28-.979 2.657-1.678 3.357-.42.56-.56.7-.56.839-.279 0-.699.14-1.958.7-.14 0-3.077 1.398-3.077 1.398-.56 0 1.399-3.637.699-4.755-.979-1.4-2.937-1.26-4.196-1.54-.84-.139-.84.84-1.819.42-.419-.14-1.538-2.657-2.238-3.077-3.497-2.517-3.497 1.12-6.154.98-.28-.84-.14-1.68.139-2.378-.979-.28-1.538-.98-1.678-1.959.28-.14 1.399.7 1.539.56.559-.56.559-1.539 1.258-1.819.42-.28 3.358-1.398 3.497-1.258-.419-.56-3.776-1.819-4.056-1.819-.839 0-2.658.84-2.658.84-1.399-.14-1.119-.98-2.658-2.238-1.119-.98-3.357-.84-4.616-1.12-2.098-.419-4.336-1.398-6.014-1.678-.28 0-.28 1.819-1.259 1.539-.56-.14-.7-1.679-1.399-1.819-2.238-.28-3.777 2.378-6.015 2.099-.979-.14-3.077-2.798-3.357-3.777 0-.28.699-4.196.839-4.196 3.217-4.336 6.155 2.657 8.813-.42.419-.56 1.818-4.336 1.678-5.315-.14-1.818-1.678-3.357-2.518-4.616-.839-1.259.42-2.937-1.259-.7-.559.7-.419 2.239-1.119 3.078-.699.84-2.517 1.539-3.497 1.958-1.119.56-2.937.98-3.776 1.959-.7.699-.7 1.958-.979 2.377-1.12 1.26-7.134 3.917-7.274 5.036-1.399-1.26.28-5.315-1.119-6.714-1.259-1.259-.56.14-2.378-.84-.56-.28-3.497-1.398-4.197-1.538-1.958-.42-4.895-1.399-6.854-.14-1.399.98-1.538 3.917-3.217 4.616-1.259.56-.42-.28-1.679.28-.839-2.238-.839.28-1.818-1.12-.14-.28-.559-4.755-.559-5.314 0 .42 1.258-4.476.979-4.756-.979-1.259-.84-.14-1.679-.42-1.119-.42-1.399-1.398-2.797-.56 0 1.12-.28 2.239-.98 3.078-.699.84-.559 1.538.28 2.098-.42.98-1.678 3.916-3.357 3.916-2.378 0-1.539-5.175-1.259-6.573.56-.56.979-1.4 1.259-2.239-.14-.979-.42-1.958-.839-2.797.839-1.678 2.518-1.678 3.637-2.797.839-.84 1.538-2.798 2.378-3.497 1.678-1.12 3.357 0 5.175-1.399 1.958-1.538 1.679-3.776 2.658-5.874 1.119-2.378 3.217-4.476 4.476-6.854.56.7-1.119 8.532-1.539 8.812 2.238.42.14 2.098.28 2.797.14 1.539.42 2.658.839 4.196.84 3.357 0 4.896 2.238 7.693 4.337 5.595 11.89 5.175 15.527-1.259 1.679-2.937.979-6.713 1.819-9.79.979-3.498 2.517-6.015 2.377-9.792 0-1.398 0-3.357-.419-4.615-.14-.28-1.539-3.357-1.679-2.938 0 0 1.679-4.756 1.539-5.175.42.28 1.818 4.476 1.678.14 0-1.259.28-.7-.279-1.819-.84.14-1.539-.14-1.819-.979 0-.56-.14-1.119-.14-1.538-.279.42-.559.56-.979.7-.559-.28 0-1.82-.279-1.96-.7-.419-.98.42-1.679 0-.979-.699-3.917-2.657-5.176-2.657-.979 0-4.476 1.12-5.315 1.679-1.958 1.259-2.238 4.196-3.917 6.014.14 1.539-.419 2.098-1.538 1.679-.98 0-1.959-.28-2.938-.56-1.399-.14-1.818-.28-3.357.28-3.077 1.119-4.476 4.616-7.134 6.294-1.818 1.26-3.217 1.26-4.756 1.539-1.678.42-2.238.28-3.637 1.399-.279.14-1.538.14-2.098.42-.28.14-1.119 1.957-1.259 2.097-.559.56-2.797 3.497-3.776 3.917-1.819.7-2.658-.84-4.057 0-.56.42-.699 3.217-1.119 3.916-.56.84-1.679 1.958-2.378 2.518-3.497 2.797-10.491 2.098-14.967.84-2.798-.84-5.176-3.078-8.113-3.498-6.015-.839-.28.56-1.119 2.658-5.176-.28-.839 6.714-3.357 8.392-1.12.84-.7-3.077-1.12-3.776-.28-.7-3.356-2.238-3.496-2.518.28-.42.42-.84.56-1.399-1.4 0-1.82 1.26-2.938 1.679-1.4.42-2.798 0-4.197.42-.839.279-1.678 1.118-2.517 1.398-.56.14-3.078.42-3.218.56-1.259.979-.7 4.475-3.077 3.776-1.399-.42-.7-3.497-3.497-3.357.14 0-1.679 4.476-2.238 4.896-.28.28-1.539-.56-2.378 0-1.26.979-.7 1.538-1.679 2.377-1.119 1.26-3.776 1.959-4.616 3.357-1.259 2.238 1.12 3.637.98 5.316 0 .42-1.26 1.958-1.4 1.818-.14.28-.419.42-.559.7.28.559.7.838 1.259.978.28 1.12 1.259 3.217.42 5.036-1.26 2.797-3.917 3.636-6.575 3.776.56 0-2.238 4.616-2.378 5.036-.56.979-1.678 2.937-2.098 3.916-.14.42-1.119 1.259-1.259 1.679-.14.28.84.839.7 1.119 0 .28-1.26 3.357-1.26 3.357-3.636 2.517-4.755-2.239-5.455-4.756-1.538.28-2.378 2.238-3.497 3.357-1.119 1.119-2.797 1.538-3.357 2.937-.28.699-.56 2.518 0 3.217 1.4 1.399.98-.14 2.238-.699.14 0 2.938 6.014 2.938 6.854 0 1.119-.42 1.678-.98 2.797-.14.42-.699 2.378-.978 2.658-.84.839-1.4-.56-1.679-.42-3.777 2.658-1.679 3.217-1.399 6.154.14 2.378-1.678 3.357-3.077 5.176-1.399 1.818-1.12 4.755.14 7.133.7 1.399 3.497 1.958 3.776 3.497.28.979-1.538 2.657-1.678 3.776-.42 2.938.7.98 1.259 2.238.42.979.28 2.518.42 3.217.42 2.099 1.118 4.476.28 5.875-.28.56 2.097 2.098 2.237 2.658.14.279-1.958.279-2.098.279 1.399 2.238-2.098 1.119-2.378 1.119-.14 0-.979-.419-1.399-.139-.7.419.42 1.818.14 2.377 0 0-2.658-.839-3.217-.699.7-.28-.56 2.518-.56 2.378 0 0-2.657 2.238-2.238 2.098-2.378.699-3.916-2.658-5.735-3.637-.839-.559-4.336-1.958-5.455.42-1.399 2.657 3.637 2.657 3.637 4.196-.14 4.476-6.295-2.658-6.575.28.14-1.399-2.377-4.057-3.636-2.518-.98 1.119.839 4.896-.28 5.875-.7.559-.84-1.959-1.12-1.819-.279.28-.419.42-.839.28v-1.119s-5.315.979-5.175.979c-1.119 0-1.399 1.119-2.658-.14.42.42-.42-4.755-1.259-3.496-.28.559-.42 1.119-.56 1.678-.139-.42-.419-.699-.838-.979-1.4.42 0 8.672.14 10.071.28 2.517.42 6.714.14 9.231-.14 1.259-2.239 8.532-1.4 8.952 1.4.839 3.078 1.259 3.637 3.077.84 2.798.7 4.896 2.238 7.833 1.819 3.497 3.917 6.854 3.917 10.91 0 1.119-.84 2.798-.28 3.917.56.979 1.539.699 2.098 1.258 1.4 1.119 1.12 1.119 2.099 2.518.839 1.259 1.678 2.238 1.818 4.336.14 3.217-1.399 2.238-1.399 4.756 0 1.538 1.819 3.916 2.099 5.315.56 2.098.14 3.497-.14 5.175-.14 1.539-.56 2.658.56 3.917 2.237 2.937 1.818.14 3.496 0 .98-.14 1.959 1.678 3.777.419 1.119-.699 1.399-3.497 1.818-5.315.56-2.657.7-5.595 1.819-8.112.84-1.819 2.378-2.378 3.637-3.218.7-.419 2.098-.699 2.378-1.538.56-1.259-1.12-.56-1.12-1.539 0-1.119.42-4.755.98-5.734 1.119-1.679 2.378-1.259 4.476-1.959 2.378-.839 3.637-1.678 5.875-2.937 0 0-.7 2.098-.56 2.098 1.12.56 3.218-.14 4.477-.14-1.26 0-.42 1.539.42 1.819-.28-.14 1.678-.28 1.258-.28.56 0 1.399-.28 1.819-.28.839 0 .699.839 1.538.839 1.399 0 .98-3.357.84-5.035.559.699 2.517-.42 2.937-1.119.84-1.259.14-3.357.42-4.756.28-1.398 1.398-1.818 1.259-3.497 0-1.119-1.12-2.797-1.54-3.776-.139-.42-1.678-.699-1.678-.839-.14-2.098 2.238-2.938 2.518-5.036.28-2.238-2.098-2.657.84-4.336 1.258-.699 2.937.14 4.056-.699.98-.699.28-1.119.98-1.958 1.118-1.259 1.538-2.518 3.356-3.078.98-.279 2.378-.139 3.497-.419.7-.14 2.098-1.819 3.078-1.539-.42-.14-1.12 5.176-1.26 5.315-.14.979-.839 1.259-.978 2.098-.7 2.099 3.636 1.539 4.196 1.119 1.399-.839 1.678-3.916 2.797-4.475-.56.279 4.197 2.377 3.917 2.517 1.958-.979-.56-1.678 2.098-1.678 0 0 2.099 1.119 2.518 1.259 2.098.559 3.078.279 4.476-.979.42-.42.14 1.398.14 1.398 0-.14 1.819-.559 2.238.14.56.699 0 1.399 0 1.539.28.699.7 2.517 1.399 2.937.42.28 2.098-1.259 3.077.14.14.28-.28 2.378 0 2.937.56 1.259 2.378 1.119 2.938 2.518.559 1.399-.7 1.678-.56 2.378.28 1.259 2.099 2.098 2.238 2.657.42 1.259-1.258.979-.419 2.658.419.979-2.378 1.818-2.238 2.518.419 3.077 3.077-1.959 3.357-1.819.419.14.839 1.259 1.259 1.539-.42-.28 0 4.336.419 4.895 1.959 1.959 3.637-.419 5.875-.139 1.119.139 2.518 2.797 3.078 3.217.979.979.699 2.797 2.797.839 0 0 3.078 2.937 3.218 2.937-.7-.559-.14 4.056 0 5.036.139-.14 2.098 2.517 1.538 2.377.42.28 1.399.56 1.819.7.279-.42.699-.84 1.259-.84.699.28.979.7.979 1.539 1.259.699.699 1.958 2.518 2.658 2.657.979 3.776-.84 6.014-1.399 1.399-.42-3.217-7.273-3.497-7.833.14.28.14-3.776-.279-3.217.699-.699 1.958 0 3.217.14 4.056.559 2.378-.699 3.917-3.357 2.377-4.056 4.755 1.259 7.273 2.098 1.539.56-1.538-4.616-1.399-4.336-.419-2.238-.139-2.238 2.239-1.539-.7-.839-1.399-1.818-2.099-2.657 2.378.839 1.539-.7 1.819-1.818.28-.98 5.455 2.657 5.315 2.517.56.56.56 1.958 1.119 2.378-.14-.14 1.259-.559 1.959-.28 1.119.28 1.818.84 2.378 1.119.559.28.979-.279 1.538 0 .56.28.42.979.979 1.259 1.259.42 2.099 0 3.497.699 1.119.56 1.819 1.119 2.658 1.819.56.419.839-1.399.979-1.539.42-.419 8.533 3.217 9.792 3.357.979.14 1.119.42 1.818.56.28 0 2.378.699 2.518.699 1.539-.14 3.777-1.678 5.316-1.259 1.678.42 2.517 2.378 3.636 3.497.42.559 0 .979.84 1.539.279.139 1.119 0 1.259.139.279.14 1.678-.419 2.238 0 1.538 1.959-3.637 10.491-3.917 10.211.699.42 1.539.839 2.098 1.119 1.119.56.7-.699 1.679-.559.419 0 .419 2.377 1.119 1.678 0 0 .839-2.098.839-1.958.839 2.098-1.399 6.294 1.399 3.077-.56.699 3.637 3.637 3.497 3.217.979 2.098-.42.42-1.819 2.238-2.517 2.937 3.078.42 4.057 4.056 1.679-1.958 7.693-2.238 10.211-2.517.84 0 3.637-1.119 4.476-.28 1.679 1.958-1.398 1.678-2.517 1.818-.98.14 3.776 8.393 3.776 8.812 1.539 4.336 1.259 10.491 1.959 15.246.419 2.518.279 4.756.559 7.274.14 2.797 0 4.056 2.798 3.077.839-.28.28-1.679 1.678-1.819 2.099-.279 1.399.98 2.238 2.518.42.839.98.839 1.399 1.399.42.699-.419 1.259.14 1.818.28.28 3.917 1.958 4.196 2.098 2.099.42 1.959-.839 3.637-.979 3.497-.419 4.756 3.917 5.735 6.294.56 1.399 0 1.259.98 2.518.279.28 1.119 1.119 1.538 1.679.7 1.258 0 2.238.56 3.496.419 1.119 2.657 2.798 4.336 3.078 1.958.279 3.077-1.679 5.036-1.399-1.959-.14.419 5.875 1.119 6.434 1.399 1.119 3.497 1.259 5.035.699.98-.419.28-1.398 1.539-1.818.56-.14 1.539.979 2.518.839 1.259 0 3.497-.419 4.476-.979 2.098-1.119 3.357-2.657 5.875-3.637 1.399-.559 3.077-.279 4.476-.979 1.959-.979 3.078-1.119 5.176-1.678 2.797-.839 1.399-.699 3.916.559 1.819.98 3.637 1.259 6.015 1.959 3.357.979 2.658 3.217 4.197 5.035 1.119 1.259 3.077 2.098 4.756 2.518 1.258.279.839-1.119 2.098-.84 1.399.28 2.098 1.679 3.217 2.099 2.798.979 8.952 1.678 10.351-2.099.839-2.377-4.056-10.21.839-11.049.28-1.259 1.539-2.099 2.518-3.217 2.098-2.238.42-1.819 3.217-.98 1.679.56 2.798 2.098 4.477 2.798 1.119.559 2.517.42 3.776.979.98.42 2.378 1.678 3.078 1.958 1.538.56 3.497-.419 4.616 1.679.14.419-.7 1.678-.56 2.098.14 1.119 1.119 2.378 1.679 3.357 2.238 4.196 6.574 5.455 10.91 4.196 1.819-.56 5.036-2.238 6.715-2.238 1.958 0 6.294 1.399 8.113 2.098 1.119.42 3.357 1.539 4.196 2.098 1.399 1.119 2.238 4.196 4.196 5.175 1.539.7 5.316.42 7.134.7 2.238.279 3.497.979 5.875.419 1.119-.279 2.378-1.398 3.637-1.818.839-.28 1.679 0 2.518-.28 1.119-.28 1.818-.979 2.658-1.538.559-.28.699-.98 1.119-1.259.419-.28 1.399.279 1.818.14 2.938-1.539 4.616-5.455 7.554-7.274-.42.42 2.937-.279 2.098-.279.699 0 1.958-.56 3.077 0 .84.419.7 1.818 1.819 2.237 1.119.42 2.378-.559 3.357-.699 3.637-.699 7.693 3.077 11.19 1.539 1.539-.7 2.098-2.798 3.357-3.777.56-.419 2.099-.839 2.518-1.399 1.119-1.398 1.119-3.916 1.259-6.014.14-2.658.42-4.756 1.399-7.413.839-2.518 3.357-4.896 2.518-7.833-.7-2.658-1.399-1.399-3.078-2.378-.979-.559-1.119.979-1.538-.979-.14-.699 1.958-3.217 2.378-3.777 2.378-3.636 6.294-4.056 10.351-6.014 3.916-1.818 3.077-2.098 7.273-.839.84.279 1.399.699 2.239.699 1.538.14 2.098-.979 3.357-.979 2.238-.14 4.196 1.119 5.455 2.378 1.119.979 3.357 3.497 4.057 4.476 2.098 2.797 3.916 6.294 6.434 9.371 1.539 1.958 3.357 4.336 4.616 6.294.979 1.539.42 3.078 2.658 3.637 2.098.559 2.657-.979 4.476-.979 1.119 0 1.259.979 2.238.979 1.399 0 2.658-1.259 3.777-1.119-.56-.14 6.294 2.238 6.714 1.958-.14 1.259 2.238 4.476 3.077 5.595.56.699.56.979.56.979l.559.56c1.259 1.119 1.539 1.119 2.518 1.259.7.139 5.316-.84 6.295-1.679 1.538-1.538.979-4.196 2.518-6.014 3.077-3.497 6.714-6.854 9.092-2.238.419.839 1.538 1.958 1.538 3.217-.139 1.538-1.398 3.077-1.538 4.895-.14 2.518.979 4.476 1.259 6.434.279 1.959-.14 5.455-.56 7.693-.14 1.119-.559 1.679-.699 2.798-.14.979 2.098 1.119-.14 3.077-1.539 1.399-3.637-.28-5.315.14-1.399.419-1.539.979-2.378 1.678.559-.559-2.378 4.057-2.099 2.938-.979 2.937 2.238 5.175 3.357 8.392.7 2.098 1.819 4.196 2.239 6.154-.14-.419-.84 3.777-.42 3.217-.28.56-1.399 1.119-1.539 1.539-.699 1.539-2.098.14-1.119 2.518 0 .14 1.539 1.818 1.959 1.818 1.398 0 .279-1.818-.28-2.658 1.678 2.238 3.916-7.832 3.776-8.532.7-.14 4.197 0 4.477.14.14.14.839 1.679 1.398 2.098-.139-.28 2.518.14 2.938.28.28-.14 1.539-.839 1.399-.839.559-.28.559-.14 1.399-.56.979-.559 1.958-2.378 2.657-3.357 3.777-4.476 5.875-8.252 6.435-13.427.14-.7-.56-1.399-.42-2.238.14-.42 1.259-1.679 1.539-2.378.699-1.539.14-3.077.559-4.616.28-1.399 1.119-2.518 1.679-3.777 1.678-4.056 2.098-7.133 2.378-11.469.14-1.958.699-3.637.699-5.455 0-1.399-.559-2.798-.28-4.616.28-1.539 0-2.797.28-4.336.14-1.259.839-2.378 1.119-3.497.28-1.398.84-4.476.7-5.734-.56-9.372-7.834-16.366-8.113-25.737-.14-4.196-1.959-6.294-3.777-9.931-.42-.839-1.539-1.259-1.819-2.098-.419-1.259.7-1.678 0-2.797-1.259-1.819-3.636-1.119-5.175-2.798-.28.42-4.197-.699-5.316-.839-1.398-.14-1.398-.56-3.217-.14-.839.14-2.098.699-2.937.839 0 0 2.937 11.889.419 7.413-.979-1.678.7-4.755-1.259-1.258-1.119 1.958-.699 3.077-2.937 4.196-.14 0 1.119-3.917 1.119-4.196 0-.56-1.958.559-2.378-.14-.699-.979.56-.7.42-1.819-.28-2.797-2.099 1.819-2.238 2.098 0 .14 1.119 4.197-.98 3.078-1.958-1.119.14-5.176-2.937-6.155-1.119-.279-2.658 1.679-3.917 1.819-3.217.559-3.776-.84-2.657-3.777.699-1.678.979-3.637 1.818-5.175 1.818-3.637 3.357-6.155 3.637-10.351.14-1.538-.14-2.517 0-4.056.28-2.658 1.958-4.756 2.518-7.273.559-2.938-.14-6.434.419-9.512.28-1.398 1.119-2.657 1.539-3.916.42-1.958.14-3.917.699-5.875 1.259-3.636 4.896-5.455 7.834-7.413 1.259-.979 2.098-2.797 3.357-3.497.699-.419 2.238.56 3.357-.14.559-.279-.56-1.538.14-2.098 1.119-.839 1.818-.14 2.378-.419.419.14.979.14 1.259-.14.699-.28.979-.979.979-1.958 0-.7.42-1.119.979-1.399.839.14 1.679.28 2.518.14-.14-.14-.14-5.176 0-5.315.979-1.959 4.336-1.679 6.015-2.658 2.378-1.539 1.259-1.958 4.196-1.539 1.399.28 2.658-1.818 1.679 1.119-.42 1.259-4.057 2.098-1.259 3.078 1.818.699 3.497-2.378 4.336-3.777.979-1.678 1.818-3.497 2.937-4.896.84-1.118 3.637-2.797 3.497-4.755-.139-2.658-2.098.14-2.937.28-2.798.279-2.518-.98-3.357-3.357-1.539-4.476-.14-8.952-1.399-13.428-.559-1.958-1.399-3.497-1.399-5.175 0-1.399.979-2.098 1.539-3.217.839-1.539 1.958-3.497 3.357-4.476 2.238-1.679 2.378 1.678 2.658-3.497 1.958.419 3.077 7.833 5.455 7.133-.419-.979-.14-1.538.56-1.958.559.14 1.119 2.238 1.538 2.238 1.819-.42 1.119-1.818.979-3.357-.139-3.497-.279-7.833-.419-10.91 0-.419 1.119-.14.839-.979s-3.217-2.378-4.056-3.357c-1.259-1.539-1.959-4.196-.42-6.014 1.119-1.399 2.937-2.099 3.357-.56.14.42-1.119 1.259-.979 2.098s2.658 4.056 3.217 4.616c1.819 2.238 3.917 2.937 4.476 5.875.42 2.657-.419 6.014.28 9.091.14.7 1.259 1.119 1.399 1.539.14 1.399.28 3.497.28 4.895 0 2.798.279 4.476.979 7.274.839 3.077 1.259 6.154 1.538 9.651.14 1.678.14 2.658-.279 4.336 0 .14-.979 0-1.119.42 0 0 .14 1.398.14 1.258.139-.139-1.259 3.357-1.259 2.938 0 1.259.559.839 1.119 1.678.559.979 1.958 1.119 2.517 2.378.28.56-.139 2.798 0 3.497.56 4.756 4.896 12.309 8.393 15.805 2.238 2.238 5.176 3.357 7.414 5.316 2.238 1.958 4.336 4.196 6.434 6.154 3.358 1.678 6.575 3.357 8.953 5.595z" fill="#77253C"/><circle cx="26" cy="179" r="3" fill="#993454"/><circle cx="23" cy="210" r="3" fill="#993454"/><circle cx="68" cy="170" r="3" fill="#993454"/><circle cx="58" cy="134" r="3" fill="#993454"/><circle cx="121" cy="182" r="3" fill="#993454"/><circle cx="154" cy="194" r="3" fill="#993454"/><circle cx="97" cy="137" r="3" fill="#993454"/><circle cx="91" cy="147" r="3" fill="#993454"/><circle cx="103" cy="158" r="3" fill="#993454"/><circle cx="532" cy="335" r="3" fill="#993454"/></svg>