<svg width="588" height="14" fill="none" xmlns="http://www.w3.org/2000/svg"><path d="M39 2v10M49 2v10M59 2v10M69 2v10" stroke="#72253D"/><circle r="5.5" transform="matrix(1 0 0 -1 86 7)" stroke="#72253D" stroke-width="3"/><path d="M103 2v10m10-10v10m10-10v10m10-10v10m10-10v10m10-10v10m10-10v10m10-10v10" stroke="#72253D"/><circle r="5.5" transform="matrix(1 0 0 -1 190 7)" stroke="#72253D" stroke-width="3"/><path d="M207 2v10m10-10v10m10-10v10m10-10v10m10-10v10m10-10v10m10-10v10m10-10v10" stroke="#72253D"/><circle r="5.5" transform="matrix(1 0 0 -1 294 7)" stroke="#72253D" stroke-width="3"/><path d="M311 2v10m10-10v10m10-10v10m10-10v10m10-10v10m10-10v10m10-10v10m10-10v10" stroke="#72253D"/><circle r="6.5" transform="matrix(1 0 0 -1 398 7)" stroke="#72253D"/><path d="M415 2v10m10-10v10m10-10v10m10-10v10m10-10v10m10-10v10m10-10v10m10-10v10" stroke="#72253D"/><circle r="6.5" transform="matrix(1 0 0 -1 502 7)" stroke="#72253D"/><path d="M519 2v10m10-10v10m10-10v10m10-10v10" stroke="#72253D"/></svg>