<svg width="245" height="69" viewBox="0 0 245 69" fill="none" xmlns="http://www.w3.org/2000/svg">
<path d="M66.0826 0H2.75385C1.23294 0 0 1.23587 0 2.76039V66.2396C0 67.7641 1.23294 69 2.75385 69H66.0826C67.6035 69 68.8364 67.7641 68.8364 66.2396V2.76039C68.8364 1.23587 67.6035 0 66.0826 0Z" fill="white"/>
<path d="M61.9533 65.5532H58.5098V69.0049H61.9533V65.5532Z" fill="#72253D"/>
<path d="M51.6291 65.5532H48.1855V69.0049H51.6291V65.5532Z" fill="#72253D"/>
<path d="M44.7463 65.5532H41.3027V69.0049H44.7463V65.5532Z" fill="#72253D"/>
<path d="M30.9767 65.5532H27.5332V69.0049H30.9767V65.5532Z" fill="#72253D"/>
<path d="M24.0959 65.5532H20.6523V69.0049H24.0959V65.5532Z" fill="#72253D"/>
<path d="M10.3263 65.5532H6.88281V69.0049H10.3263V65.5532Z" fill="#72253D"/>
<path d="M68.84 62.1015H65.3965V65.5532H68.84V62.1015Z" fill="#72253D"/>
<path d="M58.5158 62.1015H55.0723V65.5532H58.5158V62.1015Z" fill="#72253D"/>
<path d="M48.1896 62.1015H44.7461V65.5532H48.1896V62.1015Z" fill="#72253D"/>
<path d="M3.44352 62.1015H0V65.5532H3.44352V62.1015Z" fill="#72253D"/>
<path d="M27.5392 62.1015H24.0957V65.5532H27.5392V62.1015Z" fill="#72253D"/>
<path d="M17.2131 62.1015H13.7695V65.5532H17.2131V62.1015Z" fill="#72253D"/>
<path d="M51.6291 58.6497H48.1855V62.1015H51.6291H55.0726V58.6497H51.6291Z" fill="#72253D"/>
<path d="M30.9767 58.6497H27.5332V62.1015H30.9767V58.6497Z" fill="#72253D"/>
<path d="M24.0959 58.6497H20.6523V62.1015H24.0959V58.6497Z" fill="#72253D"/>
<path d="M13.7697 58.6497H10.3262V62.1015H13.7697V58.6497Z" fill="#72253D"/>
<path d="M48.1896 55.2029H44.7461V58.6546H48.1896V55.2029Z" fill="#72253D"/>
<path d="M37.8594 58.6498V62.1015H41.3029V58.6498V55.2029H37.8594V58.6498Z" fill="#72253D"/>
<path d="M61.9533 55.2029H58.5098V58.6546H61.9533V55.2029Z" fill="#72253D"/>
<path d="M10.3263 55.2029H6.88281V58.6546H10.3263V55.2029Z" fill="#72253D"/>
<path d="M65.3986 51.7512H61.9551V55.2029H65.3986V51.7512Z" fill="#72253D"/>
<path d="M44.7463 51.7512H41.3027V55.2029H44.7463V51.7512Z" fill="#72253D"/>
<path d="M51.6288 51.7512V55.2029H55.0724V51.7512V48.2995H51.6288V44.8527H55.0724V41.401H51.6288V37.9493V34.5024H48.1853V31.0507H51.6288V34.5024H55.0724V31.0507V27.599V24.1522V20.7005V17.2488V13.802V10.3503H51.6288H48.1853H44.7467H41.3031H37.8596H34.4209H30.9774H27.5339H24.0952H20.6517H17.2082H13.7695V13.802V17.2488V20.7005V24.1522V27.599V31.0507V34.5024V37.9493V41.401V44.8527V48.2995V51.7512V55.2029V58.6498H17.2082H20.6517V55.2029H17.2082V51.7512H20.6517V55.2029H24.0952H27.5339V51.7512H24.0952V48.2995V44.8527V41.401V37.9493V34.5024V31.0507V27.599V24.1522V20.7005H27.5339H30.9774H34.4209H37.8596H41.3031H44.7467V24.1522V27.599V31.0507V34.5024V37.9493V41.401V44.8527H48.1853V48.2995H44.7467V51.7512H48.1853H51.6288Z" fill="#72253D"/>
<path d="M44.7463 44.8527H41.3027V48.3044H44.7463V44.8527Z" fill="#72253D"/>
<path d="M61.9533 44.8527H58.5098V48.3044H61.9533V44.8527Z" fill="#72253D"/>
<path d="M58.5158 37.9493H55.0723V41.401H58.5158V37.9493Z" fill="#72253D"/>
<path d="M61.9533 34.5024H58.5098V37.9541H61.9533V34.5024Z" fill="#72253D"/>
<path d="M68.84 31.0507H65.3965V34.5024H68.84V31.0507Z" fill="#72253D"/>
<path d="M86.5205 54.4532C86.3966 54.8036 86.2455 55.1438 86.0689 55.4707C85.9382 55.704 85.7746 55.9171 85.5832 56.1036C85.4343 56.253 85.2531 56.3663 85.0538 56.4346C84.8546 56.4991 84.6462 56.5303 84.437 56.5271H83.689V55.6313H84.267C84.4859 55.6332 84.7011 55.5742 84.8886 55.4609C85.1127 55.2875 85.2815 55.0523 85.3743 54.7842L85.5589 54.2974L82.873 47.1749H83.8444L84.8984 50.0424L86.0494 53.2166H86.1029L87.3462 49.9061L88.3953 47.1749H89.3424L86.5205 54.4532Z" fill="white"/>
<path d="M95.9862 56.4054V48.0318H91.2264V56.4054H90.2891V47.1554H96.9478V56.4054H95.9862Z" fill="white"/>
<path d="M104.811 49.8818C104.806 50.553 104.565 51.2011 104.131 51.7123C103.903 51.9684 103.63 52.1797 103.325 52.3354C102.986 52.5003 102.613 52.582 102.237 52.574H99.4491V56.4054H98.5117V47.1554H102.237C102.629 47.1454 103.018 47.2271 103.373 47.394C103.684 47.5433 103.96 47.7555 104.185 48.0171C104.403 48.2724 104.568 48.5686 104.67 48.8886C104.768 49.2104 104.816 49.5454 104.811 49.8818ZM103.874 49.8818C103.876 49.6218 103.828 49.3639 103.733 49.1223C103.646 48.9038 103.513 48.7064 103.344 48.5429C103.177 48.3814 102.981 48.2526 102.766 48.1632C102.54 48.0754 102.3 48.0308 102.057 48.0318H99.4491V51.6879H102.057C102.299 51.6904 102.54 51.6475 102.766 51.5614C102.981 51.4825 103.177 51.3617 103.344 51.206C103.514 51.0507 103.647 50.8594 103.733 50.6461C103.83 50.4031 103.878 50.1434 103.874 49.8818Z" fill="white"/>
<path d="M111.83 56.4054C111.704 56.05 111.583 55.6946 111.471 55.3344C111.359 54.9741 111.233 54.6187 111.107 54.2633H107.163L106.444 56.4054H105.473C106.007 54.854 106.54 53.3156 107.071 51.7902C107.602 50.2647 108.134 48.7263 108.668 47.1749H109.64L112.85 56.4249L111.83 56.4054ZM109.115 48.392C109.038 48.65 108.921 49.0103 108.775 49.4631C108.63 49.9158 108.469 50.3978 108.29 50.8944C108.11 51.391 107.964 51.8681 107.804 52.3208L107.445 53.4065H110.786C110.704 53.1387 110.587 52.7736 110.436 52.3208C110.286 51.8681 110.126 51.391 109.951 50.8944C109.776 50.3978 109.62 49.9207 109.465 49.4631C109.31 49.0054 109.198 48.65 109.115 48.392Z" fill="white"/>
<path d="M120.372 53.7959C120.374 54.1277 120.318 54.4573 120.207 54.7696C120.099 55.0772 119.935 55.3614 119.721 55.607C119.496 55.8572 119.221 56.0578 118.915 56.1961C118.566 56.3479 118.188 56.4226 117.807 56.4152H113.922V47.1652H117.642C118.025 47.1564 118.406 47.2225 118.764 47.3599C119.065 47.4746 119.338 47.6521 119.566 47.8808C119.777 48.0982 119.943 48.3566 120.051 48.6403C120.165 48.9302 120.223 49.2392 120.221 49.5507C120.22 49.7425 120.197 49.9335 120.153 50.1203C120.108 50.3128 120.036 50.498 119.94 50.6704C119.835 50.8523 119.702 51.0165 119.546 51.1573C119.362 51.3207 119.152 51.4523 118.924 51.5467C119.167 51.6434 119.39 51.7818 119.585 51.9557C119.764 52.1133 119.917 52.2991 120.037 52.5058C120.149 52.7044 120.234 52.9173 120.289 53.1387C120.343 53.3537 120.371 53.5743 120.372 53.7959ZM119.289 49.5848C119.295 49.3382 119.245 49.0934 119.143 48.8691C119.051 48.6775 118.914 48.5106 118.745 48.3823C118.571 48.2575 118.374 48.1667 118.167 48.1145C117.935 48.0551 117.697 48.0257 117.458 48.0269H114.864V51.1183H117.589C117.803 51.1181 118.017 51.0836 118.22 51.0161C118.417 50.953 118.601 50.8558 118.764 50.7288C118.93 50.6007 119.062 50.4335 119.148 50.242C119.243 50.0362 119.291 49.8116 119.289 49.5848ZM119.434 53.7959C119.439 53.5365 119.388 53.2791 119.284 53.0413C119.183 52.8283 119.045 52.6353 118.876 52.4717C118.704 52.3159 118.505 52.1937 118.288 52.1115C118.071 52.0289 117.841 51.986 117.608 51.9849H114.864V55.5632H117.608C118.094 55.5866 118.57 55.4268 118.944 55.1153C119.114 54.9429 119.246 54.7361 119.331 54.5086C119.416 54.2811 119.451 54.0382 119.434 53.7959Z" fill="white"/>
<path d="M123.806 48.0318V51.3569C123.814 52.0561 123.764 52.7547 123.655 53.4454C123.57 53.9662 123.421 54.4746 123.213 54.9595C123.039 55.3493 122.797 55.7053 122.499 56.0111C122.212 56.2936 121.885 56.5315 121.528 56.717L121.096 55.9137C121.38 55.7439 121.64 55.5359 121.868 55.2954C122.104 55.0359 122.292 54.7357 122.422 54.4094C122.589 53.9854 122.703 53.5422 122.762 53.09C122.848 52.4446 122.887 51.7938 122.878 51.1427V47.1749H128.425V56.4249H127.487V48.0318H123.806Z" fill="white"/>
<path d="M130.163 49.8769C130.162 49.5277 130.218 49.1806 130.329 48.8496C130.433 48.5319 130.598 48.2376 130.814 47.9831C131.037 47.7306 131.312 47.5296 131.621 47.394C131.976 47.2417 132.36 47.1671 132.747 47.1749H136.477V56.4249H135.506V52.3646H133.296C133.124 52.3657 132.953 52.3886 132.786 52.4328C132.612 52.4783 132.447 52.5559 132.3 52.6616C132.136 52.7831 131.995 52.9352 131.888 53.1095C131.747 53.3365 131.639 53.5824 131.567 53.8398L130.814 56.4249H129.867L130.644 53.7181C130.74 53.3801 130.871 53.0536 131.038 52.7444C131.193 52.4734 131.437 52.2639 131.727 52.1504C131.478 52.0967 131.241 51.9943 131.031 51.8489C130.821 51.7036 130.642 51.5182 130.503 51.3033C130.26 50.8689 130.142 50.3748 130.163 49.8769ZM131.057 49.8769C131.051 50.1364 131.103 50.3941 131.208 50.6315C131.3 50.834 131.44 51.0111 131.616 51.1475C131.799 51.2841 132.007 51.3833 132.228 51.4396C132.475 51.5033 132.73 51.5344 132.985 51.5321H135.506V48.0317H132.883C132.387 48.0092 131.902 48.1842 131.533 48.5186C131.36 48.6966 131.227 48.9092 131.141 49.1424C131.056 49.3756 131.021 49.6242 131.038 49.872L131.057 49.8769Z" fill="white"/>
<path d="M146.59 53.4211C146.596 53.8557 146.523 54.2877 146.377 54.6966C146.245 55.0635 146.034 55.3965 145.758 55.6718C145.483 55.947 145.15 56.1577 144.784 56.2886C143.932 56.5805 143.008 56.5805 142.156 56.2886C141.791 56.1548 141.459 55.9421 141.185 55.6654C140.917 55.3897 140.714 55.0569 140.592 54.6917C140.453 54.2796 140.385 53.8465 140.393 53.4113V52.1504H139.038V56.4103H138.105V47.1603H139.038V51.2741H140.393V50.1592C140.387 49.7338 140.454 49.3105 140.592 48.9081C140.716 48.544 140.919 48.2117 141.185 47.9344C141.458 47.6532 141.79 47.4355 142.156 47.2966C142.582 47.1382 143.033 47.0606 143.487 47.0678C143.934 47.061 144.379 47.1386 144.798 47.2966C145.163 47.438 145.494 47.6554 145.77 47.9344C146.04 48.2108 146.247 48.5431 146.377 48.9081C146.518 49.3099 146.589 49.7332 146.586 50.1592L146.59 53.4211ZM145.653 50.3102C145.661 49.9498 145.607 49.5908 145.493 49.2489C145.397 48.9752 145.243 48.7259 145.041 48.5186C144.848 48.3279 144.616 48.1816 144.361 48.0902C144.078 47.9942 143.781 47.9464 143.482 47.949C143.195 47.9341 142.907 47.9764 142.636 48.0733C142.366 48.1702 142.116 48.3199 141.904 48.5137C141.69 48.7581 141.529 49.0433 141.428 49.3521C141.328 49.6608 141.292 49.9868 141.321 50.3102V53.2994C141.313 53.6637 141.37 54.0265 141.491 54.3704C141.587 54.6432 141.743 54.891 141.947 55.0958C142.14 55.2837 142.372 55.4253 142.627 55.5096C142.903 55.5989 143.192 55.6433 143.482 55.6411C144.059 55.6677 144.623 55.4687 145.056 55.0861C145.274 54.8463 145.44 54.5636 145.542 54.2559C145.645 53.9483 145.683 53.6225 145.653 53.2994V50.3102Z" fill="white"/>
<path d="M153.807 55.5632H157.566V47.1749H158.499V55.534H159.237V58.3771H158.299V56.3908H148.168V47.1408H149.105V55.5291H152.879V47.1749H153.812L153.807 55.5632Z" fill="white"/>
<path d="M166.172 56.4054C166.051 56.05 165.929 55.6946 165.813 55.3344C165.696 54.9741 165.575 54.6187 165.453 54.2633H161.51L160.786 56.4054H159.814C160.355 54.854 160.888 53.3156 161.412 51.7902C161.937 50.2647 162.47 48.7263 163.01 47.1749H163.982L167.192 56.4249L166.172 56.4054ZM163.462 48.392C163.379 48.65 163.268 49.0103 163.117 49.4631C162.967 49.9158 162.816 50.3978 162.631 50.8944C162.447 51.391 162.311 51.8681 162.146 52.3208L161.786 53.4065H165.128C165.05 53.1387 164.934 52.7736 164.783 52.3208C164.632 51.8681 164.467 51.391 164.297 50.8944L163.812 49.4631C163.661 49.0103 163.545 48.65 163.467 48.392H163.462Z" fill="white"/>
<path d="M168.316 49.8769C168.314 49.5277 168.37 49.1806 168.481 48.8496C168.585 48.5318 168.75 48.2374 168.967 47.9831C169.192 47.7305 169.468 47.5295 169.778 47.394C170.134 47.2412 170.518 47.1665 170.905 47.1749H174.625V56.4249H173.688V52.3646H171.483C171.31 52.3657 171.139 52.3886 170.973 52.4328C170.798 52.4783 170.633 52.5559 170.487 52.6616C170.322 52.7842 170.18 52.936 170.069 53.1095C169.933 53.3386 169.825 53.5839 169.749 53.8398L169.02 56.4054H168.049L168.826 53.6986C168.917 53.3591 169.049 53.0321 169.219 52.7249C169.374 52.4553 169.616 52.246 169.904 52.131C169.402 52.0213 168.964 51.7167 168.685 51.2839C168.435 50.8581 168.307 50.3711 168.316 49.8769ZM169.21 49.8769C169.201 50.1367 169.253 50.3949 169.36 50.6315C169.453 50.834 169.593 51.0111 169.768 51.1475C169.951 51.285 170.159 51.3843 170.38 51.4396C170.628 51.5033 170.882 51.5344 171.138 51.5321H173.688V48.0318H171.07C170.573 48.0092 170.088 48.1842 169.72 48.5186C169.544 48.6954 169.408 48.9073 169.32 49.1406C169.232 49.3739 169.195 49.6231 169.21 49.872V49.8769Z" fill="white"/>
<path d="M179.359 56.4054V47.1554H180.292V51.2157H182.006C182.17 51.2149 182.332 51.197 182.492 51.1621C182.665 51.1256 182.829 51.058 182.978 50.9625C183.148 50.8488 183.296 50.7054 183.415 50.539C183.564 50.3186 183.68 50.0775 183.76 49.8233L184.644 47.1554H185.532L184.692 49.8087C184.572 50.2139 184.39 50.5981 184.153 50.9479C183.964 51.2364 183.683 51.4526 183.357 51.5614C183.737 51.6484 184.069 51.8785 184.284 52.204C184.512 52.5662 184.685 52.9598 184.799 53.3724L185.707 56.386H184.736L183.847 53.5525C183.779 53.2893 183.671 53.0381 183.527 52.8077C183.42 52.6323 183.28 52.4801 183.114 52.3598C182.969 52.2516 182.804 52.1753 182.628 52.1358C182.458 52.0969 182.283 52.0773 182.108 52.0774H180.287V56.4298L179.359 56.4054Z" fill="white"/>
<path d="M193.45 53.4211C193.457 53.8589 193.373 54.2933 193.203 54.6966C193.046 55.0659 192.812 55.3977 192.518 55.6703C192.211 55.9441 191.853 56.1542 191.464 56.2886C191.034 56.4337 190.582 56.5061 190.128 56.5028C189.667 56.5077 189.209 56.432 188.773 56.2788C188.388 56.1438 188.035 55.9318 187.734 55.6557C187.441 55.3844 187.21 55.052 187.059 54.682C186.894 54.2756 186.813 53.8401 186.821 53.4016V50.169C186.816 49.7406 186.895 49.3155 187.054 48.9178C187.202 48.5486 187.429 48.2163 187.719 47.9441C188.021 47.6612 188.378 47.444 188.768 47.3064C189.204 47.1494 189.665 47.0719 190.128 47.0775C190.587 47.0729 191.042 47.1504 191.474 47.3064C191.864 47.4452 192.223 47.6622 192.528 47.9441C192.822 48.2155 193.054 48.5478 193.208 48.9178C193.372 49.3142 193.454 49.7398 193.45 50.169V53.4211ZM192.513 50.3102C192.523 49.9467 192.456 49.5852 192.319 49.2489C192.201 48.9701 192.024 48.7208 191.799 48.5186C191.577 48.3275 191.319 48.182 191.041 48.0902C190.748 47.9952 190.441 47.9476 190.133 47.949C189.819 47.9476 189.506 47.9953 189.206 48.0902C188.926 48.1797 188.669 48.3255 188.448 48.5186C188.235 48.7235 188.069 48.9728 187.962 49.2489C187.829 49.5863 187.764 49.9472 187.773 50.3102V53.2994C187.763 53.667 187.832 54.0324 187.977 54.3704C188.097 54.6501 188.28 54.8983 188.511 55.0958C188.735 55.2833 188.994 55.424 189.274 55.5096C189.558 55.5975 189.855 55.6418 190.153 55.6411C190.463 55.6425 190.773 55.5982 191.071 55.5096C191.35 55.4268 191.607 55.2821 191.823 55.0861C192.047 54.8843 192.223 54.6347 192.338 54.3558C192.476 54.0213 192.543 53.6613 192.532 53.2994L192.513 50.3102Z" fill="white"/>
<path d="M199.195 53.8057L202.337 47.1749H203.206V56.4249H202.274V49.3998H202.23L199.53 55.0131H198.796L196.067 49.5166H196.013L195.96 56.4298H195.027V47.1798H195.936L199.141 53.8106L199.195 53.8057Z" fill="white"/>
<path d="M210.507 56.4054V48.0318H205.747V56.4054H204.814V47.1554H211.468V56.4054H210.507Z" fill="white"/>
<path d="M218.905 56.4054C218.778 56.05 218.657 55.6946 218.545 55.3344C218.433 54.9741 218.307 54.6187 218.181 54.2633H214.237L213.518 56.4054H212.547C213.081 54.854 213.614 53.3156 214.145 51.7902C214.676 50.2647 215.208 48.7263 215.743 47.1749H216.714L219.924 56.4249L218.905 56.4054ZM216.19 48.392C216.112 48.65 215.995 49.0103 215.85 49.4631C215.704 49.9158 215.548 50.3978 215.364 50.8944C215.179 51.391 215.038 51.8681 214.878 52.3208C214.718 52.7736 214.606 53.1387 214.514 53.4065H217.86C217.778 53.1387 217.661 52.7736 217.511 52.3208C217.36 51.8681 217.2 51.391 217.025 50.8944C216.85 50.3978 216.695 49.9207 216.539 49.4631C216.384 49.0054 216.272 48.65 216.19 48.392Z" fill="white"/>
<path d="M226.656 56.4054V52.1456H221.897V56.4054H220.988V47.1554H221.921V51.2692H226.681V47.1749H227.652V56.4249L226.656 56.4054Z" fill="white"/>
<path d="M230.254 54.7599L231.925 52.1845L235.199 47.1749H236.121V56.4249H235.189V48.7815H235.136L233.358 51.5273L230.172 56.3957H229.244V47.1457H230.182V54.7307L230.254 54.7599Z" fill="white"/>
<path d="M237.837 49.8769C237.835 49.5277 237.891 49.1806 238.002 48.8496C238.106 48.5318 238.271 48.2374 238.487 47.9831C238.711 47.7316 238.986 47.5308 239.294 47.394C239.648 47.2428 240.03 47.1682 240.416 47.1749H244.141V56.4249H243.203V52.3646H240.998C240.834 52.3677 240.671 52.3906 240.513 52.4328C240.338 52.4783 240.173 52.5559 240.027 52.6616C239.861 52.7829 239.719 52.9349 239.609 53.1095C239.473 53.3386 239.365 53.5839 239.289 53.8398L238.541 56.4249H237.594L238.366 53.7181C238.461 53.3801 238.593 53.0536 238.759 52.7444C238.915 52.4728 239.156 52.2605 239.444 52.1407C238.942 52.0311 238.504 51.7265 238.225 51.2936C237.966 50.867 237.832 50.3762 237.837 49.8769ZM238.73 49.8769C238.723 50.1361 238.773 50.3937 238.876 50.6315C238.968 50.834 239.108 51.0111 239.284 51.1475C239.469 51.2841 239.678 51.3833 239.901 51.4396C240.147 51.5036 240.4 51.5347 240.654 51.5321H243.208V48.0318H240.59C240.344 48.0201 240.099 48.057 239.867 48.1406C239.635 48.2241 239.422 48.3526 239.24 48.5186C239.065 48.6954 238.929 48.9073 238.841 49.1406C238.753 49.3739 238.715 49.6231 238.73 49.872V49.8769Z" fill="white"/>
<path fill-rule="evenodd" clip-rule="evenodd" d="M115.905 16.9226H120.791C121.655 16.9226 122.35 17.8963 122.35 19.0988V30.4081C122.35 31.6057 121.655 32.5794 120.791 32.5794H115.905C115.05 32.5794 114.346 31.6057 114.346 30.4081V19.0988C114.346 17.9011 115.05 16.9226 115.905 16.9226ZM132.452 11.0805H141.306C140.581 11.3596 140.353 11.8919 140.621 12.6773L145.823 24.7413L151.127 12.5118C151.433 11.9568 151.127 11.4894 150.316 11.0805H159.107C158.033 11.6014 157.494 13.0279 157.494 15.3842V34.4586C157.635 36.3768 158.087 37.8665 159.112 38.5091H150.078C150.918 38.0223 151.501 36.8441 151.724 34.7653V24.084L145.813 38.5383L139.985 24.084V34.999C140.184 36.6105 140.617 37.8373 141.486 38.5091H132.544C133.046 38.0482 133.44 37.4829 133.7 36.853C133.96 36.2231 134.08 35.5438 134.05 34.8627V15.2186C134.006 13.1447 133.506 11.7329 132.452 11.0854V11.0805ZM112.374 11.1097C111.366 11.111 110.399 11.512 109.684 12.2253C108.97 12.9386 108.566 13.9062 108.561 14.9168V34.6826C108.566 35.6932 108.97 36.6608 109.684 37.3741C110.399 38.0873 111.366 38.4884 112.374 38.4897H124.336C125.345 38.4897 126.313 38.089 127.027 37.3755C127.742 36.6619 128.145 35.6936 128.149 34.6826V14.9217C128.145 13.9106 127.742 12.9423 127.027 12.2288C126.313 11.5152 125.345 11.1146 124.336 11.1146L112.374 11.1097ZM170.812 16.9226H175.698C176.553 16.9226 177.262 17.8963 177.262 19.0988V30.4081C177.262 31.6057 176.553 32.5794 175.698 32.5794H170.812C169.952 32.5794 169.253 31.6057 169.253 30.4081V19.0988C169.253 17.9011 169.952 16.9226 170.812 16.9226ZM167.281 11.1146C166.273 11.1158 165.306 11.5169 164.591 12.2302C163.877 12.9434 163.473 13.911 163.468 14.9217V34.6874C163.473 35.6981 163.877 36.6657 164.591 37.3789C165.306 38.0922 166.273 38.4933 167.281 38.4945H179.219C180.227 38.4933 181.194 38.0922 181.908 37.3789C182.623 36.6657 183.026 35.6981 183.032 34.6874V14.9217C183.026 13.911 182.623 12.9434 181.908 12.2302C181.194 11.5169 180.227 11.1158 179.219 11.1146H167.281ZM187.447 11.0659H196.485C195.426 11.7767 194.97 12.8964 194.921 14.3034L194.955 32.5697H200.74V14.5565C200.74 12.9337 200.202 11.7669 199.127 11.0562H208.312C207.292 11.543 206.728 12.6725 206.631 14.4105V32.5599H212.503V14.0356C212.296 12.6562 211.781 11.6631 210.959 11.0562H219.958C218.948 11.7815 218.501 12.9694 218.409 14.464V35.0526C218.564 36.591 218.987 37.8616 219.983 38.5481C217.156 38.4799 214.664 40.7243 212.45 44.5022V38.5237H188.972V14.1184C188.772 12.4777 188.185 11.5333 187.447 11.0659ZM223.873 11.0659H232.955C231.984 11.6063 231.537 12.6871 231.348 14.0161V18.8846L239.575 18.8505C242.489 19.3373 244.432 20.8709 244.996 23.8747V32.852C244.782 36.2664 242.732 38.1732 238.847 38.5724H223.902C224.616 37.7351 225.146 36.367 225.476 34.4781V14.0648C225.447 13.4788 225.292 12.9061 225.02 12.3864C224.748 11.8668 224.367 11.4129 223.902 11.0562L223.873 11.0659ZM231.328 24.6974V32.5843H237.268C238.439 32.5161 239.104 31.7956 239.235 30.4178V26.9613C239.235 25.3936 238.264 24.8192 236.807 24.6974H231.328ZM102.179 11.4359H82.7227V38.811H88.5169V17.2439H96.3753V38.811H102.17V11.4359H102.179Z" fill="white"/>
</svg>
